M48
METRIC,LZ,000.000
;FILE_FORMAT=3:3
;TYPE=PLATED
;Layer: PTH_Through
;EasyEDA v6.5.20, 2023-09-17 03:17:05
;a67cddfb3fce44daa9051d46cbbcc19f,10
;Gerber Generator version 0.2
;Holesize 1 = 0.701 mm
T01C0.701
;Holesize 2 = 0.889 mm
T02C0.889
%
G05
G90
T01
X041501Y086749
X043501Y086749
X045501Y086749
X047501Y086749
X049501Y086749
X053501Y086749
X055501Y086749
X057501Y086749
X059501Y086749
X040501Y088749
X042501Y088749
X044501Y088749
X046501Y088749
X048501Y088749
X050501Y088749
X054501Y088749
X056501Y088749
X058501Y088749
X059501Y093249
X058501Y091249
X057501Y093249
X056501Y091249
X055501Y093249
X053501Y093249
X054501Y091249
X050501Y091249
X049501Y093249
X048501Y091249
X047501Y093249
X046501Y091249
X045501Y093249
X044501Y091249
X043501Y093249
X042501Y091249
X041501Y093249
X040501Y091249
X016250Y085000
X013750Y082500
X013750Y087500
T02
X018249Y075500
X020789Y075500
X023329Y075500
X025869Y075500
X028409Y075500
X030949Y075500
X033489Y075500
X036029Y075500
X038569Y075500
X041109Y075500
X043649Y075500
X046189Y075500
X048729Y075500
X051269Y075500
X053809Y075500
X056349Y075500
X058889Y075500
X061429Y075500
M30
