G04 Layer: BottomSolderMaskLayer*
G04 EasyEDA v6.5.20, 2023-09-17 03:17:05*
G04 a67cddfb3fce44daa9051d46cbbcc19f,10*
G04 Gerber Generator version 0.2*
G04 Scale: 100 percent, Rotated: No, Reflected: No *
G04 Dimensions in millimeters *
G04 leading zeros omitted , absolute positions ,4 integer and 5 decimal *
%FSLAX45Y45*%
%MOMM*%

%AMMACRO1*1,1,$1,$2,$3*1,1,$1,$4,$5*1,1,$1,0-$2,0-$3*1,1,$1,0-$4,0-$5*20,1,$1,$2,$3,$4,$5,0*20,1,$1,$4,$5,0-$2,0-$3,0*20,1,$1,0-$2,0-$3,0-$4,0-$5,0*20,1,$1,0-$4,0-$5,$2,$3,0*4,1,4,$2,$3,$4,$5,0-$2,0-$3,0-$4,0-$5,$2,$3,0*%
%AMMACRO2*4,1,4,-0.8509,-1.6497,-0.8509,1.6497,0.8509,1.6497,0.8509,-1.6497,-0.8509,-1.6497,0*%
%ADD10C,1.2016*%
%ADD11MACRO1,0.1016X-0.7874X-0.7874X-0.7874X0.7874*%
%ADD12C,1.6764*%
%ADD13C,1.6256*%
%ADD14MACRO1,0.1016X0.35X-0.625X0.35X0.625*%
%ADD15MACRO1,0.1016X0.6885X0.5663X-0.6885X0.5663*%
%ADD16MACRO1,0.1016X0.6885X-0.5663X-0.6885X-0.5663*%
%ADD17MACRO1,0.1016X-0.6885X-0.5663X0.6885X-0.5663*%
%ADD18MACRO1,0.1016X-0.6885X0.5663X0.6885X0.5663*%
%ADD19MACRO2*%
%ADD20C,0.0155*%

%LPD*%
D10*
G01*
X4150106Y8674862D03*
G01*
X4350105Y8674862D03*
G01*
X4550105Y8674862D03*
G01*
X4750130Y8674862D03*
G01*
X4950129Y8674862D03*
G01*
X5350129Y8674862D03*
G01*
X5550128Y8674862D03*
G01*
X5750128Y8674862D03*
G01*
X5950127Y8674862D03*
G01*
X4050106Y8874861D03*
G01*
X4250105Y8874861D03*
G01*
X4450105Y8874861D03*
G01*
X4650104Y8874861D03*
G01*
X4850104Y8874861D03*
G01*
X5050104Y8874861D03*
G01*
X5450103Y8874861D03*
G01*
X5650102Y8874861D03*
G01*
X5850102Y8874861D03*
G01*
X5950102Y9324873D03*
G01*
X5850102Y9124873D03*
G01*
X5750102Y9324873D03*
G01*
X5650102Y9124873D03*
G01*
X5550103Y9324873D03*
G01*
X5350103Y9324873D03*
G01*
X5450103Y9124873D03*
G01*
X5050104Y9124873D03*
G01*
X4950104Y9324873D03*
G01*
X4850104Y9124873D03*
G01*
X4750104Y9324873D03*
G01*
X4650104Y9124873D03*
G01*
X4550105Y9324873D03*
G01*
X4450105Y9124873D03*
G01*
X4350105Y9324873D03*
G01*
X4250105Y9124873D03*
G01*
X4150106Y9324873D03*
G01*
X4050106Y9124873D03*
D11*
G01*
X1824888Y7549972D03*
D12*
G01*
X2078888Y7549972D03*
G01*
X2332888Y7549972D03*
G01*
X2586888Y7549972D03*
G01*
X2840888Y7549972D03*
G01*
X3094888Y7549972D03*
G01*
X3348888Y7549972D03*
G01*
X3602888Y7549972D03*
G01*
X3856888Y7549972D03*
G01*
X4110888Y7549972D03*
G01*
X4364888Y7549972D03*
G01*
X4618888Y7549972D03*
G01*
X4872888Y7549972D03*
G01*
X5126888Y7549972D03*
G01*
X5380888Y7549972D03*
G01*
X5634888Y7549972D03*
G01*
X5888888Y7549972D03*
G01*
X6142888Y7549972D03*
D13*
G01*
X1624990Y8499957D03*
G01*
X1375003Y8249970D03*
G01*
X1375003Y8749969D03*
D14*
G01*
X6004991Y6699986D03*
G01*
X6194982Y6699986D03*
G01*
X6099986Y6499987D03*
G01*
X5704992Y6699986D03*
G01*
X5894983Y6699986D03*
G01*
X5799987Y6499987D03*
G01*
X5404993Y6699986D03*
G01*
X5594983Y6699986D03*
G01*
X5499987Y6499987D03*
D15*
G01*
X5899988Y7049980D03*
D16*
G01*
X5899988Y7249990D03*
D15*
G01*
X5649988Y7049980D03*
D16*
G01*
X5649988Y7249990D03*
D15*
G01*
X6149987Y7049980D03*
D16*
G01*
X6149987Y7249990D03*
D17*
G01*
X5999987Y5599993D03*
D18*
G01*
X5999987Y5399984D03*
D17*
G01*
X6249923Y5599993D03*
D18*
G01*
X6249923Y5399984D03*
D17*
G01*
X6500114Y5599993D03*
D18*
G01*
X6500114Y5399984D03*
D17*
G01*
X6999985Y5599993D03*
D18*
G01*
X6999985Y5399984D03*
D17*
G01*
X7500112Y5599993D03*
D18*
G01*
X7500112Y5399984D03*
D17*
G01*
X7750047Y5599993D03*
D18*
G01*
X7750047Y5399984D03*
D17*
G01*
X7999984Y5599993D03*
D18*
G01*
X7999984Y5399984D03*
D17*
G01*
X8299958Y5599993D03*
D18*
G01*
X8299958Y5399984D03*
G36*
X9813036Y3287521D02*
G01*
X9802622Y3288029D01*
X9792715Y3289807D01*
X9782809Y3292855D01*
X9773411Y3297173D01*
X9764775Y3302507D01*
X9756647Y3308857D01*
X9749281Y3315970D01*
X9742931Y3324097D01*
X9737597Y3332987D01*
X9733534Y3342386D01*
X9730486Y3352037D01*
X9728454Y3362197D01*
X9727945Y3372357D01*
X9727945Y3532631D01*
X9728454Y3542792D01*
X9730486Y3552952D01*
X9733534Y3562604D01*
X9737597Y3572002D01*
X9742931Y3580892D01*
X9749281Y3589020D01*
X9756647Y3596131D01*
X9764775Y3602481D01*
X9773411Y3607815D01*
X9782809Y3612134D01*
X9792715Y3615181D01*
X9802622Y3616960D01*
X9813036Y3617468D01*
X9823195Y3616960D01*
X9833356Y3615181D01*
X9843261Y3612134D01*
X9852406Y3607815D01*
X9861295Y3602481D01*
X9869424Y3596131D01*
X9876536Y3589020D01*
X9882886Y3580892D01*
X9888220Y3572002D01*
X9892538Y3562604D01*
X9895586Y3552952D01*
X9897363Y3542792D01*
X9898125Y3532631D01*
X9898125Y3372357D01*
X9897363Y3362197D01*
X9895586Y3352037D01*
X9892538Y3342386D01*
X9888220Y3332987D01*
X9882886Y3324097D01*
X9876536Y3315970D01*
X9869424Y3308857D01*
X9861295Y3302507D01*
X9852659Y3297173D01*
X9843261Y3292855D01*
X9833356Y3289807D01*
X9823195Y3288029D01*
G37*
G36*
X9559036Y3287521D02*
G01*
X9548622Y3288029D01*
X9538715Y3289807D01*
X9528809Y3292855D01*
X9519411Y3297173D01*
X9510775Y3302507D01*
X9502647Y3308857D01*
X9495281Y3315970D01*
X9488931Y3324097D01*
X9483597Y3332987D01*
X9479534Y3342386D01*
X9476486Y3352037D01*
X9474454Y3362197D01*
X9473945Y3372357D01*
X9473945Y3532631D01*
X9474454Y3542792D01*
X9476486Y3552952D01*
X9479534Y3562604D01*
X9483597Y3572002D01*
X9488931Y3580892D01*
X9495281Y3589020D01*
X9502647Y3596131D01*
X9510775Y3602481D01*
X9519411Y3607815D01*
X9528809Y3612134D01*
X9538715Y3615181D01*
X9548622Y3616960D01*
X9559036Y3617468D01*
X9569195Y3616960D01*
X9579356Y3615181D01*
X9589261Y3612134D01*
X9598406Y3607815D01*
X9607295Y3602481D01*
X9615424Y3596131D01*
X9622536Y3589020D01*
X9628886Y3580892D01*
X9634220Y3572002D01*
X9638538Y3562604D01*
X9641586Y3552952D01*
X9643363Y3542792D01*
X9644125Y3532631D01*
X9644125Y3372357D01*
X9643363Y3362197D01*
X9641586Y3352037D01*
X9638538Y3342386D01*
X9634220Y3332987D01*
X9628886Y3324097D01*
X9622536Y3315970D01*
X9615424Y3308857D01*
X9607295Y3302507D01*
X9598659Y3297173D01*
X9589261Y3292855D01*
X9579356Y3289807D01*
X9569195Y3288029D01*
G37*
D19*
G01*
X9305035Y3452494D03*
G36*
X9051036Y3287521D02*
G01*
X9040622Y3288029D01*
X9030715Y3289807D01*
X9020809Y3292855D01*
X9011411Y3297173D01*
X9002775Y3302507D01*
X8994647Y3308857D01*
X8987281Y3315970D01*
X8980931Y3324097D01*
X8975597Y3332987D01*
X8971534Y3342386D01*
X8968486Y3352037D01*
X8966454Y3362197D01*
X8965945Y3372357D01*
X8965945Y3532631D01*
X8966454Y3542792D01*
X8968486Y3552952D01*
X8971534Y3562604D01*
X8975597Y3572002D01*
X8980931Y3580892D01*
X8987281Y3589020D01*
X8994647Y3596131D01*
X9002775Y3602481D01*
X9011411Y3607815D01*
X9020809Y3612134D01*
X9030715Y3615181D01*
X9040622Y3616960D01*
X9051036Y3617468D01*
X9061195Y3616960D01*
X9071356Y3615181D01*
X9081261Y3612134D01*
X9090406Y3607815D01*
X9099295Y3602481D01*
X9107424Y3596131D01*
X9114536Y3589020D01*
X9120886Y3580892D01*
X9126220Y3572002D01*
X9130538Y3562604D01*
X9133586Y3552952D01*
X9135363Y3542792D01*
X9136125Y3532631D01*
X9136125Y3372357D01*
X9135363Y3362197D01*
X9133586Y3352037D01*
X9130538Y3342386D01*
X9126220Y3332987D01*
X9120886Y3324097D01*
X9114536Y3315970D01*
X9107424Y3308857D01*
X9099295Y3302507D01*
X9090659Y3297173D01*
X9081261Y3292855D01*
X9071356Y3289807D01*
X9061195Y3288029D01*
G37*
G36*
X8797036Y3287521D02*
G01*
X8786622Y3288029D01*
X8776715Y3289807D01*
X8766809Y3292855D01*
X8757411Y3297173D01*
X8748775Y3302507D01*
X8740647Y3308857D01*
X8733281Y3315970D01*
X8726931Y3324097D01*
X8721597Y3332987D01*
X8717534Y3342386D01*
X8714486Y3352037D01*
X8712454Y3362197D01*
X8711945Y3372357D01*
X8711945Y3532631D01*
X8712454Y3542792D01*
X8714486Y3552952D01*
X8717534Y3562604D01*
X8721597Y3572002D01*
X8726931Y3580892D01*
X8733281Y3589020D01*
X8740647Y3596131D01*
X8748775Y3602481D01*
X8757411Y3607815D01*
X8766809Y3612134D01*
X8776715Y3615181D01*
X8786622Y3616960D01*
X8797036Y3617468D01*
X8807195Y3616960D01*
X8817356Y3615181D01*
X8827261Y3612134D01*
X8836406Y3607815D01*
X8845295Y3602481D01*
X8853424Y3596131D01*
X8860536Y3589020D01*
X8866886Y3580892D01*
X8872220Y3572002D01*
X8876538Y3562604D01*
X8879586Y3552952D01*
X8881363Y3542792D01*
X8882125Y3532631D01*
X8882125Y3372357D01*
X8881363Y3362197D01*
X8879586Y3352037D01*
X8876538Y3342386D01*
X8872220Y3332987D01*
X8866886Y3324097D01*
X8860536Y3315970D01*
X8853424Y3308857D01*
X8845295Y3302507D01*
X8836659Y3297173D01*
X8827261Y3292855D01*
X8817356Y3289807D01*
X8807195Y3288029D01*
G37*
G36*
X8543036Y3287521D02*
G01*
X8532622Y3288029D01*
X8522715Y3289807D01*
X8512809Y3292855D01*
X8503411Y3297173D01*
X8494775Y3302507D01*
X8486647Y3308857D01*
X8479281Y3315970D01*
X8472931Y3324097D01*
X8467597Y3332987D01*
X8463534Y3342386D01*
X8460486Y3352037D01*
X8458454Y3362197D01*
X8457945Y3372357D01*
X8457945Y3532631D01*
X8458454Y3542792D01*
X8460486Y3552952D01*
X8463534Y3562604D01*
X8467597Y3572002D01*
X8472931Y3580892D01*
X8479281Y3589020D01*
X8486647Y3596131D01*
X8494775Y3602481D01*
X8503411Y3607815D01*
X8512809Y3612134D01*
X8522715Y3615181D01*
X8532622Y3616960D01*
X8543036Y3617468D01*
X8553195Y3616960D01*
X8563356Y3615181D01*
X8573261Y3612134D01*
X8582406Y3607815D01*
X8591295Y3602481D01*
X8599424Y3596131D01*
X8606536Y3589020D01*
X8612886Y3580892D01*
X8618220Y3572002D01*
X8622538Y3562604D01*
X8625586Y3552952D01*
X8627363Y3542792D01*
X8628125Y3532631D01*
X8628125Y3372357D01*
X8627363Y3362197D01*
X8625586Y3352037D01*
X8622538Y3342386D01*
X8618220Y3332987D01*
X8612886Y3324097D01*
X8606536Y3315970D01*
X8599424Y3308857D01*
X8591295Y3302507D01*
X8582659Y3297173D01*
X8573261Y3292855D01*
X8563356Y3289807D01*
X8553195Y3288029D01*
G37*
G36*
X8289036Y3287521D02*
G01*
X8278622Y3288029D01*
X8268715Y3289807D01*
X8258809Y3292855D01*
X8249411Y3297173D01*
X8240775Y3302507D01*
X8232647Y3308857D01*
X8225281Y3315970D01*
X8218931Y3324097D01*
X8213597Y3332987D01*
X8209534Y3342386D01*
X8206486Y3352037D01*
X8204454Y3362197D01*
X8203945Y3372357D01*
X8203945Y3532631D01*
X8204454Y3542792D01*
X8206486Y3552952D01*
X8209534Y3562604D01*
X8213597Y3572002D01*
X8218931Y3580892D01*
X8225281Y3589020D01*
X8232647Y3596131D01*
X8240775Y3602481D01*
X8249411Y3607815D01*
X8258809Y3612134D01*
X8268715Y3615181D01*
X8278622Y3616960D01*
X8289036Y3617468D01*
X8299195Y3616960D01*
X8309356Y3615181D01*
X8319261Y3612134D01*
X8328406Y3607815D01*
X8337295Y3602481D01*
X8345424Y3596131D01*
X8352536Y3589020D01*
X8358886Y3580892D01*
X8364220Y3572002D01*
X8368538Y3562604D01*
X8371586Y3552952D01*
X8373363Y3542792D01*
X8374125Y3532631D01*
X8374125Y3372357D01*
X8373363Y3362197D01*
X8371586Y3352037D01*
X8368538Y3342386D01*
X8364220Y3332987D01*
X8358886Y3324097D01*
X8352536Y3315970D01*
X8345424Y3308857D01*
X8337295Y3302507D01*
X8328659Y3297173D01*
X8319261Y3292855D01*
X8309356Y3289807D01*
X8299195Y3288029D01*
G37*
G01*
X8035035Y3452494D03*
G36*
X7781036Y3287521D02*
G01*
X7770622Y3288029D01*
X7760715Y3289807D01*
X7750809Y3292855D01*
X7741411Y3297173D01*
X7732775Y3302507D01*
X7724647Y3308857D01*
X7717281Y3315970D01*
X7710931Y3324097D01*
X7705597Y3332987D01*
X7701534Y3342386D01*
X7698486Y3352037D01*
X7696454Y3362197D01*
X7695945Y3372357D01*
X7695945Y3532631D01*
X7696454Y3542792D01*
X7698486Y3552952D01*
X7701534Y3562604D01*
X7705597Y3572002D01*
X7710931Y3580892D01*
X7717281Y3589020D01*
X7724647Y3596131D01*
X7732775Y3602481D01*
X7741411Y3607815D01*
X7750809Y3612134D01*
X7760715Y3615181D01*
X7770622Y3616960D01*
X7781036Y3617468D01*
X7791195Y3616960D01*
X7801356Y3615181D01*
X7811261Y3612134D01*
X7820406Y3607815D01*
X7829295Y3602481D01*
X7837424Y3596131D01*
X7844536Y3589020D01*
X7850886Y3580892D01*
X7856220Y3572002D01*
X7860538Y3562604D01*
X7863586Y3552952D01*
X7865363Y3542792D01*
X7866125Y3532631D01*
X7866125Y3372357D01*
X7865363Y3362197D01*
X7863586Y3352037D01*
X7860538Y3342386D01*
X7856220Y3332987D01*
X7850886Y3324097D01*
X7844536Y3315970D01*
X7837424Y3308857D01*
X7829295Y3302507D01*
X7820659Y3297173D01*
X7811261Y3292855D01*
X7801356Y3289807D01*
X7791195Y3288029D01*
G37*
G36*
X7527036Y3287521D02*
G01*
X7516622Y3288029D01*
X7506715Y3289807D01*
X7496809Y3292855D01*
X7487411Y3297173D01*
X7478775Y3302507D01*
X7470647Y3308857D01*
X7463281Y3315970D01*
X7456931Y3324097D01*
X7451597Y3332987D01*
X7447534Y3342386D01*
X7444486Y3352037D01*
X7442454Y3362197D01*
X7441945Y3372357D01*
X7441945Y3532631D01*
X7442454Y3542792D01*
X7444486Y3552952D01*
X7447534Y3562604D01*
X7451597Y3572002D01*
X7456931Y3580892D01*
X7463281Y3589020D01*
X7470647Y3596131D01*
X7478775Y3602481D01*
X7487411Y3607815D01*
X7496809Y3612134D01*
X7506715Y3615181D01*
X7516622Y3616960D01*
X7527036Y3617468D01*
X7537195Y3616960D01*
X7547356Y3615181D01*
X7557261Y3612134D01*
X7566406Y3607815D01*
X7575295Y3602481D01*
X7583424Y3596131D01*
X7590536Y3589020D01*
X7596886Y3580892D01*
X7602220Y3572002D01*
X7606538Y3562604D01*
X7609586Y3552952D01*
X7611363Y3542792D01*
X7612125Y3532631D01*
X7612125Y3372357D01*
X7611363Y3362197D01*
X7609586Y3352037D01*
X7606538Y3342386D01*
X7602220Y3332987D01*
X7596886Y3324097D01*
X7590536Y3315970D01*
X7583424Y3308857D01*
X7575295Y3302507D01*
X7566659Y3297173D01*
X7557261Y3292855D01*
X7547356Y3289807D01*
X7537195Y3288029D01*
G37*
G36*
X7273036Y3287521D02*
G01*
X7262622Y3288029D01*
X7252715Y3289807D01*
X7242809Y3292855D01*
X7233411Y3297173D01*
X7224775Y3302507D01*
X7216647Y3308857D01*
X7209281Y3315970D01*
X7202931Y3324097D01*
X7197597Y3332987D01*
X7193534Y3342386D01*
X7190486Y3352037D01*
X7188454Y3362197D01*
X7187945Y3372357D01*
X7187945Y3532631D01*
X7188454Y3542792D01*
X7190486Y3552952D01*
X7193534Y3562604D01*
X7197597Y3572002D01*
X7202931Y3580892D01*
X7209281Y3589020D01*
X7216647Y3596131D01*
X7224775Y3602481D01*
X7233411Y3607815D01*
X7242809Y3612134D01*
X7252715Y3615181D01*
X7262622Y3616960D01*
X7273036Y3617468D01*
X7283195Y3616960D01*
X7293356Y3615181D01*
X7303261Y3612134D01*
X7312406Y3607815D01*
X7321295Y3602481D01*
X7329424Y3596131D01*
X7336790Y3589020D01*
X7342886Y3580892D01*
X7348220Y3572002D01*
X7352538Y3562604D01*
X7355586Y3552952D01*
X7357363Y3542792D01*
X7358125Y3532631D01*
X7358125Y3372357D01*
X7357363Y3362197D01*
X7355586Y3352037D01*
X7352538Y3342386D01*
X7348220Y3332987D01*
X7342886Y3324097D01*
X7336790Y3315970D01*
X7329424Y3308857D01*
X7321295Y3302507D01*
X7312659Y3297173D01*
X7303261Y3292855D01*
X7293356Y3289807D01*
X7283195Y3288029D01*
G37*
G36*
X7019036Y3287521D02*
G01*
X7008622Y3288029D01*
X6998715Y3289807D01*
X6988809Y3292855D01*
X6979411Y3297173D01*
X6970775Y3302507D01*
X6962647Y3308857D01*
X6955281Y3315970D01*
X6948931Y3324097D01*
X6943597Y3332987D01*
X6939534Y3342386D01*
X6936486Y3352037D01*
X6934454Y3362197D01*
X6933945Y3372357D01*
X6933945Y3532631D01*
X6934454Y3542792D01*
X6936486Y3552952D01*
X6939534Y3562604D01*
X6943597Y3572002D01*
X6948931Y3580892D01*
X6955281Y3589020D01*
X6962647Y3596131D01*
X6970775Y3602481D01*
X6979411Y3607815D01*
X6988809Y3612134D01*
X6998715Y3615181D01*
X7008622Y3616960D01*
X7019036Y3617468D01*
X7029195Y3616960D01*
X7039356Y3615181D01*
X7049261Y3612134D01*
X7058406Y3607815D01*
X7067295Y3602481D01*
X7075424Y3596131D01*
X7082790Y3589020D01*
X7088886Y3580892D01*
X7094220Y3572002D01*
X7098538Y3562604D01*
X7101586Y3552952D01*
X7103363Y3542792D01*
X7104125Y3532631D01*
X7104125Y3372357D01*
X7103363Y3362197D01*
X7101586Y3352037D01*
X7098538Y3342386D01*
X7094220Y3332987D01*
X7088886Y3324097D01*
X7082790Y3315970D01*
X7075424Y3308857D01*
X7067295Y3302507D01*
X7058659Y3297173D01*
X7049261Y3292855D01*
X7039356Y3289807D01*
X7029195Y3288029D01*
G37*
G01*
X6765035Y3452494D03*
G36*
X6511036Y3287521D02*
G01*
X6500622Y3288029D01*
X6490715Y3289807D01*
X6480809Y3292855D01*
X6471411Y3297173D01*
X6462775Y3302507D01*
X6454647Y3308857D01*
X6447281Y3315970D01*
X6440931Y3324097D01*
X6435597Y3332987D01*
X6431534Y3342386D01*
X6428486Y3352037D01*
X6426454Y3362197D01*
X6425945Y3372357D01*
X6425945Y3532631D01*
X6426454Y3542792D01*
X6428486Y3552952D01*
X6431534Y3562604D01*
X6435597Y3572002D01*
X6440931Y3580892D01*
X6447281Y3589020D01*
X6454647Y3596131D01*
X6462775Y3602481D01*
X6471411Y3607815D01*
X6480809Y3612134D01*
X6490715Y3615181D01*
X6500622Y3616960D01*
X6511036Y3617468D01*
X6521195Y3616960D01*
X6531356Y3615181D01*
X6541261Y3612134D01*
X6550406Y3607815D01*
X6559295Y3602481D01*
X6567424Y3596131D01*
X6574790Y3589020D01*
X6580886Y3580892D01*
X6586220Y3572002D01*
X6590538Y3562604D01*
X6593586Y3552952D01*
X6595363Y3542792D01*
X6596125Y3532631D01*
X6596125Y3372357D01*
X6595363Y3362197D01*
X6593586Y3352037D01*
X6590538Y3342386D01*
X6586220Y3332987D01*
X6580886Y3324097D01*
X6574790Y3315970D01*
X6567424Y3308857D01*
X6559295Y3302507D01*
X6550659Y3297173D01*
X6541261Y3292855D01*
X6531356Y3289807D01*
X6521195Y3288029D01*
G37*
G36*
X6257036Y3287521D02*
G01*
X6246622Y3288029D01*
X6236715Y3289807D01*
X6226809Y3292855D01*
X6217411Y3297173D01*
X6208522Y3302507D01*
X6200647Y3308857D01*
X6193281Y3315970D01*
X6186931Y3324097D01*
X6181597Y3332987D01*
X6177534Y3342386D01*
X6174486Y3352037D01*
X6172454Y3362197D01*
X6171945Y3372357D01*
X6171945Y3532631D01*
X6172454Y3542792D01*
X6174486Y3552952D01*
X6177534Y3562604D01*
X6181597Y3572002D01*
X6186931Y3580892D01*
X6193281Y3589020D01*
X6200647Y3596131D01*
X6208775Y3602481D01*
X6217411Y3607815D01*
X6226809Y3612134D01*
X6236715Y3615181D01*
X6246622Y3616960D01*
X6257036Y3617468D01*
X6267195Y3616960D01*
X6277356Y3615181D01*
X6287261Y3612134D01*
X6296406Y3607815D01*
X6305295Y3602481D01*
X6313424Y3596131D01*
X6320790Y3589020D01*
X6326886Y3580892D01*
X6332220Y3572002D01*
X6336538Y3562604D01*
X6339586Y3552952D01*
X6341363Y3542792D01*
X6342125Y3532631D01*
X6342125Y3372357D01*
X6341363Y3362197D01*
X6339586Y3352037D01*
X6336538Y3342386D01*
X6332220Y3332987D01*
X6326886Y3324097D01*
X6320790Y3315970D01*
X6313424Y3308857D01*
X6305295Y3302507D01*
X6296659Y3297173D01*
X6287261Y3292855D01*
X6277356Y3289807D01*
X6267195Y3288029D01*
G37*
G36*
X6003036Y3287521D02*
G01*
X5992622Y3288029D01*
X5982715Y3289807D01*
X5972809Y3292855D01*
X5963411Y3297173D01*
X5954522Y3302507D01*
X5946647Y3308857D01*
X5939281Y3315970D01*
X5932931Y3324097D01*
X5927597Y3332987D01*
X5923534Y3342386D01*
X5920486Y3352037D01*
X5918454Y3362197D01*
X5917945Y3372357D01*
X5917945Y3532631D01*
X5918454Y3542792D01*
X5920486Y3552952D01*
X5923534Y3562604D01*
X5927597Y3572002D01*
X5932931Y3580892D01*
X5939281Y3589020D01*
X5946647Y3596131D01*
X5954775Y3602481D01*
X5963411Y3607815D01*
X5972809Y3612134D01*
X5982715Y3615181D01*
X5992622Y3616960D01*
X6003036Y3617468D01*
X6013195Y3616960D01*
X6023356Y3615181D01*
X6033261Y3612134D01*
X6042406Y3607815D01*
X6051295Y3602481D01*
X6059424Y3596131D01*
X6066790Y3589020D01*
X6072886Y3580892D01*
X6078220Y3572002D01*
X6082538Y3562604D01*
X6085586Y3552952D01*
X6087363Y3542792D01*
X6088125Y3532631D01*
X6088125Y3372357D01*
X6087363Y3362197D01*
X6085586Y3352037D01*
X6082538Y3342386D01*
X6078220Y3332987D01*
X6072886Y3324097D01*
X6066790Y3315970D01*
X6059424Y3308857D01*
X6051295Y3302507D01*
X6042659Y3297173D01*
X6033261Y3292855D01*
X6023356Y3289807D01*
X6013195Y3288029D01*
G37*
G36*
X5749036Y3287521D02*
G01*
X5738622Y3288029D01*
X5728715Y3289807D01*
X5718809Y3292855D01*
X5709411Y3297173D01*
X5700522Y3302507D01*
X5692647Y3308857D01*
X5685281Y3315970D01*
X5678931Y3324097D01*
X5673597Y3332987D01*
X5669534Y3342386D01*
X5666486Y3352037D01*
X5664454Y3362197D01*
X5663945Y3372357D01*
X5663945Y3532631D01*
X5664454Y3542792D01*
X5666486Y3552952D01*
X5669534Y3562604D01*
X5673597Y3572002D01*
X5678931Y3580892D01*
X5685281Y3589020D01*
X5692647Y3596131D01*
X5700775Y3602481D01*
X5709411Y3607815D01*
X5718809Y3612134D01*
X5728715Y3615181D01*
X5738622Y3616960D01*
X5749036Y3617468D01*
X5759195Y3616960D01*
X5769356Y3615181D01*
X5779261Y3612134D01*
X5788406Y3607815D01*
X5797295Y3602481D01*
X5805424Y3596131D01*
X5812790Y3589020D01*
X5818886Y3580892D01*
X5824220Y3572002D01*
X5828538Y3562604D01*
X5831586Y3552952D01*
X5833363Y3542792D01*
X5834125Y3532631D01*
X5834125Y3372357D01*
X5833363Y3362197D01*
X5831586Y3352037D01*
X5828538Y3342386D01*
X5824220Y3332987D01*
X5818886Y3324097D01*
X5812790Y3315970D01*
X5805424Y3308857D01*
X5797295Y3302507D01*
X5788659Y3297173D01*
X5779261Y3292855D01*
X5769356Y3289807D01*
X5759195Y3288029D01*
G37*
G01*
X5495035Y3452494D03*
G36*
X5241036Y3287521D02*
G01*
X5230875Y3288029D01*
X5220715Y3289807D01*
X5210809Y3292855D01*
X5201411Y3297173D01*
X5192522Y3302507D01*
X5184647Y3308857D01*
X5177281Y3315970D01*
X5170931Y3324097D01*
X5165597Y3332987D01*
X5161534Y3342386D01*
X5158486Y3352037D01*
X5156454Y3362197D01*
X5155945Y3372357D01*
X5155945Y3532631D01*
X5156454Y3542792D01*
X5158486Y3552952D01*
X5161534Y3562604D01*
X5165597Y3572002D01*
X5170931Y3580892D01*
X5177281Y3589020D01*
X5184647Y3596131D01*
X5192775Y3602481D01*
X5201411Y3607815D01*
X5210809Y3612134D01*
X5220715Y3615181D01*
X5230875Y3616960D01*
X5241036Y3617468D01*
X5251195Y3616960D01*
X5261356Y3615181D01*
X5271261Y3612134D01*
X5280406Y3607815D01*
X5289295Y3602481D01*
X5297424Y3596131D01*
X5304790Y3589020D01*
X5310886Y3580892D01*
X5316220Y3572002D01*
X5320538Y3562604D01*
X5323586Y3552952D01*
X5325363Y3542792D01*
X5326125Y3532631D01*
X5326125Y3372357D01*
X5325363Y3362197D01*
X5323586Y3352037D01*
X5320538Y3342386D01*
X5316220Y3332987D01*
X5310886Y3324097D01*
X5304790Y3315970D01*
X5297424Y3308857D01*
X5289295Y3302507D01*
X5280659Y3297173D01*
X5271261Y3292855D01*
X5261356Y3289807D01*
X5251195Y3288029D01*
G37*
G36*
X4987036Y3287521D02*
G01*
X4976875Y3288029D01*
X4966715Y3289807D01*
X4956809Y3292855D01*
X4947411Y3297173D01*
X4938522Y3302507D01*
X4930647Y3308857D01*
X4923281Y3315970D01*
X4916931Y3324097D01*
X4911597Y3332987D01*
X4907534Y3342386D01*
X4904486Y3352037D01*
X4902454Y3362197D01*
X4901945Y3372357D01*
X4901945Y3532631D01*
X4902454Y3542792D01*
X4904486Y3552952D01*
X4907534Y3562604D01*
X4911597Y3572002D01*
X4916931Y3580892D01*
X4923281Y3589020D01*
X4930647Y3596131D01*
X4938775Y3602481D01*
X4947411Y3607815D01*
X4956809Y3612134D01*
X4966715Y3615181D01*
X4976875Y3616960D01*
X4987036Y3617468D01*
X4997195Y3616960D01*
X5007356Y3615181D01*
X5017261Y3612134D01*
X5026406Y3607815D01*
X5035295Y3602481D01*
X5043424Y3596131D01*
X5050790Y3589020D01*
X5056886Y3580892D01*
X5062220Y3572002D01*
X5066538Y3562604D01*
X5069586Y3552952D01*
X5071363Y3542792D01*
X5072125Y3532631D01*
X5072125Y3372357D01*
X5071363Y3362197D01*
X5069586Y3352037D01*
X5066538Y3342386D01*
X5062220Y3332987D01*
X5056886Y3324097D01*
X5050790Y3315970D01*
X5043424Y3308857D01*
X5035295Y3302507D01*
X5026659Y3297173D01*
X5017261Y3292855D01*
X5007356Y3289807D01*
X4997195Y3288029D01*
G37*
G36*
X4987036Y1382521D02*
G01*
X4976875Y1383029D01*
X4966715Y1384807D01*
X4956809Y1387855D01*
X4947411Y1392173D01*
X4938775Y1397507D01*
X4930647Y1403857D01*
X4923281Y1410970D01*
X4916931Y1419097D01*
X4911597Y1427987D01*
X4907534Y1437386D01*
X4904486Y1447037D01*
X4902454Y1457197D01*
X4901945Y1467357D01*
X4901945Y1627631D01*
X4902454Y1637792D01*
X4904486Y1647952D01*
X4907534Y1657604D01*
X4911597Y1667002D01*
X4916931Y1675892D01*
X4923281Y1684020D01*
X4930647Y1691131D01*
X4938522Y1697481D01*
X4947411Y1702815D01*
X4956809Y1707134D01*
X4966715Y1710181D01*
X4976875Y1711960D01*
X4987036Y1712468D01*
X4997195Y1711960D01*
X5007356Y1710181D01*
X5017261Y1707134D01*
X5026659Y1702815D01*
X5035295Y1697481D01*
X5043424Y1691131D01*
X5050790Y1684020D01*
X5056886Y1675892D01*
X5062220Y1667002D01*
X5066538Y1657604D01*
X5069586Y1647952D01*
X5071363Y1637792D01*
X5072125Y1627631D01*
X5072125Y1467357D01*
X5071363Y1457197D01*
X5069586Y1447037D01*
X5066538Y1437386D01*
X5062220Y1427987D01*
X5056886Y1419097D01*
X5050790Y1410970D01*
X5043424Y1403857D01*
X5035295Y1397507D01*
X5026406Y1392173D01*
X5017261Y1387855D01*
X5007356Y1384807D01*
X4997195Y1383029D01*
G37*
G36*
X5241036Y1382521D02*
G01*
X5230875Y1383029D01*
X5220715Y1384807D01*
X5210809Y1387855D01*
X5201411Y1392173D01*
X5192775Y1397507D01*
X5184647Y1403857D01*
X5177281Y1410970D01*
X5170931Y1419097D01*
X5165597Y1427987D01*
X5161534Y1437386D01*
X5158486Y1447037D01*
X5156454Y1457197D01*
X5155945Y1467357D01*
X5155945Y1627631D01*
X5156454Y1637792D01*
X5158486Y1647952D01*
X5161534Y1657604D01*
X5165597Y1667002D01*
X5170931Y1675892D01*
X5177281Y1684020D01*
X5184647Y1691131D01*
X5192522Y1697481D01*
X5201411Y1702815D01*
X5210809Y1707134D01*
X5220715Y1710181D01*
X5230875Y1711960D01*
X5241036Y1712468D01*
X5251195Y1711960D01*
X5261356Y1710181D01*
X5271261Y1707134D01*
X5280659Y1702815D01*
X5289295Y1697481D01*
X5297424Y1691131D01*
X5304790Y1684020D01*
X5310886Y1675892D01*
X5316220Y1667002D01*
X5320538Y1657604D01*
X5323586Y1647952D01*
X5325363Y1637792D01*
X5326125Y1627631D01*
X5326125Y1467357D01*
X5325363Y1457197D01*
X5323586Y1447037D01*
X5320538Y1437386D01*
X5316220Y1427987D01*
X5310886Y1419097D01*
X5304790Y1410970D01*
X5297424Y1403857D01*
X5289295Y1397507D01*
X5280406Y1392173D01*
X5271261Y1387855D01*
X5261356Y1384807D01*
X5251195Y1383029D01*
G37*
G01*
X5495035Y1547494D03*
G36*
X5749036Y1382521D02*
G01*
X5738622Y1383029D01*
X5728715Y1384807D01*
X5718809Y1387855D01*
X5709411Y1392173D01*
X5700775Y1397507D01*
X5692647Y1403857D01*
X5685281Y1410970D01*
X5678931Y1419097D01*
X5673597Y1427987D01*
X5669534Y1437386D01*
X5666486Y1447037D01*
X5664454Y1457197D01*
X5663945Y1467357D01*
X5663945Y1627631D01*
X5664454Y1637792D01*
X5666486Y1647952D01*
X5669534Y1657604D01*
X5673597Y1667002D01*
X5678931Y1675892D01*
X5685281Y1684020D01*
X5692647Y1691131D01*
X5700522Y1697481D01*
X5709411Y1702815D01*
X5718809Y1707134D01*
X5728715Y1710181D01*
X5738622Y1711960D01*
X5749036Y1712468D01*
X5759195Y1711960D01*
X5769356Y1710181D01*
X5779261Y1707134D01*
X5788659Y1702815D01*
X5797295Y1697481D01*
X5805424Y1691131D01*
X5812790Y1684020D01*
X5818886Y1675892D01*
X5824220Y1667002D01*
X5828538Y1657604D01*
X5831586Y1647952D01*
X5833363Y1637792D01*
X5834125Y1627631D01*
X5834125Y1467357D01*
X5833363Y1457197D01*
X5831586Y1447037D01*
X5828538Y1437386D01*
X5824220Y1427987D01*
X5818886Y1419097D01*
X5812790Y1410970D01*
X5805424Y1403857D01*
X5797295Y1397507D01*
X5788406Y1392173D01*
X5779261Y1387855D01*
X5769356Y1384807D01*
X5759195Y1383029D01*
G37*
G36*
X6003036Y1382521D02*
G01*
X5992622Y1383029D01*
X5982715Y1384807D01*
X5972809Y1387855D01*
X5963411Y1392173D01*
X5954775Y1397507D01*
X5946647Y1403857D01*
X5939281Y1410970D01*
X5932931Y1419097D01*
X5927597Y1427987D01*
X5923534Y1437386D01*
X5920486Y1447037D01*
X5918454Y1457197D01*
X5917945Y1467357D01*
X5917945Y1627631D01*
X5918454Y1637792D01*
X5920486Y1647952D01*
X5923534Y1657604D01*
X5927597Y1667002D01*
X5932931Y1675892D01*
X5939281Y1684020D01*
X5946647Y1691131D01*
X5954522Y1697481D01*
X5963411Y1702815D01*
X5972809Y1707134D01*
X5982715Y1710181D01*
X5992622Y1711960D01*
X6003036Y1712468D01*
X6013195Y1711960D01*
X6023356Y1710181D01*
X6033261Y1707134D01*
X6042659Y1702815D01*
X6051295Y1697481D01*
X6059424Y1691131D01*
X6066790Y1684020D01*
X6072886Y1675892D01*
X6078220Y1667002D01*
X6082538Y1657604D01*
X6085586Y1647952D01*
X6087363Y1637792D01*
X6088125Y1627631D01*
X6088125Y1467357D01*
X6087363Y1457197D01*
X6085586Y1447037D01*
X6082538Y1437386D01*
X6078220Y1427987D01*
X6072886Y1419097D01*
X6066790Y1410970D01*
X6059424Y1403857D01*
X6051295Y1397507D01*
X6042406Y1392173D01*
X6033261Y1387855D01*
X6023356Y1384807D01*
X6013195Y1383029D01*
G37*
G36*
X6257036Y1382521D02*
G01*
X6246622Y1383029D01*
X6236715Y1384807D01*
X6226809Y1387855D01*
X6217411Y1392173D01*
X6208775Y1397507D01*
X6200647Y1403857D01*
X6193281Y1410970D01*
X6186931Y1419097D01*
X6181597Y1427987D01*
X6177534Y1437386D01*
X6174486Y1447037D01*
X6172454Y1457197D01*
X6171945Y1467357D01*
X6171945Y1627631D01*
X6172454Y1637792D01*
X6174486Y1647952D01*
X6177534Y1657604D01*
X6181597Y1667002D01*
X6186931Y1675892D01*
X6193281Y1684020D01*
X6200647Y1691131D01*
X6208522Y1697481D01*
X6217411Y1702815D01*
X6226809Y1707134D01*
X6236715Y1710181D01*
X6246622Y1711960D01*
X6257036Y1712468D01*
X6267195Y1711960D01*
X6277356Y1710181D01*
X6287261Y1707134D01*
X6296659Y1702815D01*
X6305295Y1697481D01*
X6313424Y1691131D01*
X6320790Y1684020D01*
X6326886Y1675892D01*
X6332220Y1667002D01*
X6336538Y1657604D01*
X6339586Y1647952D01*
X6341363Y1637792D01*
X6342125Y1627631D01*
X6342125Y1467357D01*
X6341363Y1457197D01*
X6339586Y1447037D01*
X6336538Y1437386D01*
X6332220Y1427987D01*
X6326886Y1419097D01*
X6320790Y1410970D01*
X6313424Y1403857D01*
X6305295Y1397507D01*
X6296406Y1392173D01*
X6287261Y1387855D01*
X6277356Y1384807D01*
X6267195Y1383029D01*
G37*
G36*
X6511036Y1382521D02*
G01*
X6500622Y1383029D01*
X6490715Y1384807D01*
X6480809Y1387855D01*
X6471411Y1392173D01*
X6462775Y1397507D01*
X6454647Y1403857D01*
X6447281Y1410970D01*
X6440931Y1419097D01*
X6435597Y1427987D01*
X6431534Y1437386D01*
X6428486Y1447037D01*
X6426454Y1457197D01*
X6425945Y1467357D01*
X6425945Y1627631D01*
X6426454Y1637792D01*
X6428486Y1647952D01*
X6431534Y1657604D01*
X6435597Y1667002D01*
X6440931Y1675892D01*
X6447281Y1684020D01*
X6454647Y1691131D01*
X6462775Y1697481D01*
X6471411Y1702815D01*
X6480809Y1707134D01*
X6490715Y1710181D01*
X6500622Y1711960D01*
X6511036Y1712468D01*
X6521195Y1711960D01*
X6531356Y1710181D01*
X6541261Y1707134D01*
X6550659Y1702815D01*
X6559295Y1697481D01*
X6567424Y1691131D01*
X6574790Y1684020D01*
X6580886Y1675892D01*
X6586220Y1667002D01*
X6590538Y1657604D01*
X6593586Y1647952D01*
X6595363Y1637792D01*
X6596125Y1627631D01*
X6596125Y1467357D01*
X6595363Y1457197D01*
X6593586Y1447037D01*
X6590538Y1437386D01*
X6586220Y1427987D01*
X6580886Y1419097D01*
X6574790Y1410970D01*
X6567424Y1403857D01*
X6559295Y1397507D01*
X6550406Y1392173D01*
X6541261Y1387855D01*
X6531356Y1384807D01*
X6521195Y1383029D01*
G37*
G01*
X6765035Y1547494D03*
G36*
X7019036Y1382521D02*
G01*
X7008622Y1383029D01*
X6998715Y1384807D01*
X6988809Y1387855D01*
X6979411Y1392173D01*
X6970775Y1397507D01*
X6962647Y1403857D01*
X6955281Y1410970D01*
X6948931Y1419097D01*
X6943597Y1427987D01*
X6939534Y1437386D01*
X6936486Y1447037D01*
X6934454Y1457197D01*
X6933945Y1467357D01*
X6933945Y1627631D01*
X6934454Y1637792D01*
X6936486Y1647952D01*
X6939534Y1657604D01*
X6943597Y1667002D01*
X6948931Y1675892D01*
X6955281Y1684020D01*
X6962647Y1691131D01*
X6970775Y1697481D01*
X6979411Y1702815D01*
X6988809Y1707134D01*
X6998715Y1710181D01*
X7008622Y1711960D01*
X7019036Y1712468D01*
X7029195Y1711960D01*
X7039356Y1710181D01*
X7049261Y1707134D01*
X7058659Y1702815D01*
X7067295Y1697481D01*
X7075424Y1691131D01*
X7082790Y1684020D01*
X7088886Y1675892D01*
X7094220Y1667002D01*
X7098538Y1657604D01*
X7101586Y1647952D01*
X7103363Y1637792D01*
X7104125Y1627631D01*
X7104125Y1467357D01*
X7103363Y1457197D01*
X7101586Y1447037D01*
X7098538Y1437386D01*
X7094220Y1427987D01*
X7088886Y1419097D01*
X7082790Y1410970D01*
X7075424Y1403857D01*
X7067295Y1397507D01*
X7058406Y1392173D01*
X7049261Y1387855D01*
X7039356Y1384807D01*
X7029195Y1383029D01*
G37*
G36*
X7273036Y1382521D02*
G01*
X7262622Y1383029D01*
X7252715Y1384807D01*
X7242809Y1387855D01*
X7233411Y1392173D01*
X7224775Y1397507D01*
X7216647Y1403857D01*
X7209281Y1410970D01*
X7202931Y1419097D01*
X7197597Y1427987D01*
X7193534Y1437386D01*
X7190486Y1447037D01*
X7188454Y1457197D01*
X7187945Y1467357D01*
X7187945Y1627631D01*
X7188454Y1637792D01*
X7190486Y1647952D01*
X7193534Y1657604D01*
X7197597Y1667002D01*
X7202931Y1675892D01*
X7209281Y1684020D01*
X7216647Y1691131D01*
X7224775Y1697481D01*
X7233411Y1702815D01*
X7242809Y1707134D01*
X7252715Y1710181D01*
X7262622Y1711960D01*
X7273036Y1712468D01*
X7283195Y1711960D01*
X7293356Y1710181D01*
X7303261Y1707134D01*
X7312659Y1702815D01*
X7321295Y1697481D01*
X7329424Y1691131D01*
X7336790Y1684020D01*
X7342886Y1675892D01*
X7348220Y1667002D01*
X7352538Y1657604D01*
X7355586Y1647952D01*
X7357363Y1637792D01*
X7358125Y1627631D01*
X7358125Y1467357D01*
X7357363Y1457197D01*
X7355586Y1447037D01*
X7352538Y1437386D01*
X7348220Y1427987D01*
X7342886Y1419097D01*
X7336790Y1410970D01*
X7329424Y1403857D01*
X7321295Y1397507D01*
X7312406Y1392173D01*
X7303261Y1387855D01*
X7293356Y1384807D01*
X7283195Y1383029D01*
G37*
G36*
X7527036Y1382521D02*
G01*
X7516622Y1383029D01*
X7506715Y1384807D01*
X7496809Y1387855D01*
X7487411Y1392173D01*
X7478775Y1397507D01*
X7470647Y1403857D01*
X7463281Y1410970D01*
X7456931Y1419097D01*
X7451597Y1427987D01*
X7447534Y1437386D01*
X7444486Y1447037D01*
X7442454Y1457197D01*
X7441945Y1467357D01*
X7441945Y1627631D01*
X7442454Y1637792D01*
X7444486Y1647952D01*
X7447534Y1657604D01*
X7451597Y1667002D01*
X7456931Y1675892D01*
X7463281Y1684020D01*
X7470647Y1691131D01*
X7478775Y1697481D01*
X7487411Y1702815D01*
X7496809Y1707134D01*
X7506715Y1710181D01*
X7516622Y1711960D01*
X7527036Y1712468D01*
X7537195Y1711960D01*
X7547356Y1710181D01*
X7557261Y1707134D01*
X7566659Y1702815D01*
X7575295Y1697481D01*
X7583424Y1691131D01*
X7590536Y1684020D01*
X7596886Y1675892D01*
X7602220Y1667002D01*
X7606538Y1657604D01*
X7609586Y1647952D01*
X7611363Y1637792D01*
X7612125Y1627631D01*
X7612125Y1467357D01*
X7611363Y1457197D01*
X7609586Y1447037D01*
X7606538Y1437386D01*
X7602220Y1427987D01*
X7596886Y1419097D01*
X7590536Y1410970D01*
X7583424Y1403857D01*
X7575295Y1397507D01*
X7566406Y1392173D01*
X7557261Y1387855D01*
X7547356Y1384807D01*
X7537195Y1383029D01*
G37*
G36*
X7781036Y1382521D02*
G01*
X7770622Y1383029D01*
X7760715Y1384807D01*
X7750809Y1387855D01*
X7741411Y1392173D01*
X7732775Y1397507D01*
X7724647Y1403857D01*
X7717281Y1410970D01*
X7710931Y1419097D01*
X7705597Y1427987D01*
X7701534Y1437386D01*
X7698486Y1447037D01*
X7696454Y1457197D01*
X7695945Y1467357D01*
X7695945Y1627631D01*
X7696454Y1637792D01*
X7698486Y1647952D01*
X7701534Y1657604D01*
X7705597Y1667002D01*
X7710931Y1675892D01*
X7717281Y1684020D01*
X7724647Y1691131D01*
X7732775Y1697481D01*
X7741411Y1702815D01*
X7750809Y1707134D01*
X7760715Y1710181D01*
X7770622Y1711960D01*
X7781036Y1712468D01*
X7791195Y1711960D01*
X7801356Y1710181D01*
X7811261Y1707134D01*
X7820659Y1702815D01*
X7829295Y1697481D01*
X7837424Y1691131D01*
X7844536Y1684020D01*
X7850886Y1675892D01*
X7856220Y1667002D01*
X7860538Y1657604D01*
X7863586Y1647952D01*
X7865363Y1637792D01*
X7866125Y1627631D01*
X7866125Y1467357D01*
X7865363Y1457197D01*
X7863586Y1447037D01*
X7860538Y1437386D01*
X7856220Y1427987D01*
X7850886Y1419097D01*
X7844536Y1410970D01*
X7837424Y1403857D01*
X7829295Y1397507D01*
X7820406Y1392173D01*
X7811261Y1387855D01*
X7801356Y1384807D01*
X7791195Y1383029D01*
G37*
G01*
X8035035Y1547494D03*
G36*
X8289036Y1382521D02*
G01*
X8278622Y1383029D01*
X8268715Y1384807D01*
X8258809Y1387855D01*
X8249411Y1392173D01*
X8240775Y1397507D01*
X8232647Y1403857D01*
X8225281Y1410970D01*
X8218931Y1419097D01*
X8213597Y1427987D01*
X8209534Y1437386D01*
X8206486Y1447037D01*
X8204454Y1457197D01*
X8203945Y1467357D01*
X8203945Y1627631D01*
X8204454Y1637792D01*
X8206486Y1647952D01*
X8209534Y1657604D01*
X8213597Y1667002D01*
X8218931Y1675892D01*
X8225281Y1684020D01*
X8232647Y1691131D01*
X8240775Y1697481D01*
X8249411Y1702815D01*
X8258809Y1707134D01*
X8268715Y1710181D01*
X8278622Y1711960D01*
X8289036Y1712468D01*
X8299195Y1711960D01*
X8309356Y1710181D01*
X8319261Y1707134D01*
X8328659Y1702815D01*
X8337295Y1697481D01*
X8345424Y1691131D01*
X8352536Y1684020D01*
X8358886Y1675892D01*
X8364220Y1667002D01*
X8368538Y1657604D01*
X8371586Y1647952D01*
X8373363Y1637792D01*
X8374125Y1627631D01*
X8374125Y1467357D01*
X8373363Y1457197D01*
X8371586Y1447037D01*
X8368538Y1437386D01*
X8364220Y1427987D01*
X8358886Y1419097D01*
X8352536Y1410970D01*
X8345424Y1403857D01*
X8337295Y1397507D01*
X8328406Y1392173D01*
X8319261Y1387855D01*
X8309356Y1384807D01*
X8299195Y1383029D01*
G37*
G36*
X8543036Y1382521D02*
G01*
X8532622Y1383029D01*
X8522715Y1384807D01*
X8512809Y1387855D01*
X8503411Y1392173D01*
X8494775Y1397507D01*
X8486647Y1403857D01*
X8479281Y1410970D01*
X8472931Y1419097D01*
X8467597Y1427987D01*
X8463534Y1437386D01*
X8460486Y1447037D01*
X8458454Y1457197D01*
X8457945Y1467357D01*
X8457945Y1627631D01*
X8458454Y1637792D01*
X8460486Y1647952D01*
X8463534Y1657604D01*
X8467597Y1667002D01*
X8472931Y1675892D01*
X8479281Y1684020D01*
X8486647Y1691131D01*
X8494775Y1697481D01*
X8503411Y1702815D01*
X8512809Y1707134D01*
X8522715Y1710181D01*
X8532622Y1711960D01*
X8543036Y1712468D01*
X8553195Y1711960D01*
X8563356Y1710181D01*
X8573261Y1707134D01*
X8582659Y1702815D01*
X8591295Y1697481D01*
X8599424Y1691131D01*
X8606536Y1684020D01*
X8612886Y1675892D01*
X8618220Y1667002D01*
X8622538Y1657604D01*
X8625586Y1647952D01*
X8627363Y1637792D01*
X8628125Y1627631D01*
X8628125Y1467357D01*
X8627363Y1457197D01*
X8625586Y1447037D01*
X8622538Y1437386D01*
X8618220Y1427987D01*
X8612886Y1419097D01*
X8606536Y1410970D01*
X8599424Y1403857D01*
X8591295Y1397507D01*
X8582406Y1392173D01*
X8573261Y1387855D01*
X8563356Y1384807D01*
X8553195Y1383029D01*
G37*
G36*
X8797036Y1382521D02*
G01*
X8786622Y1383029D01*
X8776715Y1384807D01*
X8766809Y1387855D01*
X8757411Y1392173D01*
X8748775Y1397507D01*
X8740647Y1403857D01*
X8733281Y1410970D01*
X8726931Y1419097D01*
X8721597Y1427987D01*
X8717534Y1437386D01*
X8714486Y1447037D01*
X8712454Y1457197D01*
X8711945Y1467357D01*
X8711945Y1627631D01*
X8712454Y1637792D01*
X8714486Y1647952D01*
X8717534Y1657604D01*
X8721597Y1667002D01*
X8726931Y1675892D01*
X8733281Y1684020D01*
X8740647Y1691131D01*
X8748775Y1697481D01*
X8757411Y1702815D01*
X8766809Y1707134D01*
X8776715Y1710181D01*
X8786622Y1711960D01*
X8797036Y1712468D01*
X8807195Y1711960D01*
X8817356Y1710181D01*
X8827261Y1707134D01*
X8836659Y1702815D01*
X8845295Y1697481D01*
X8853424Y1691131D01*
X8860536Y1684020D01*
X8866886Y1675892D01*
X8872220Y1667002D01*
X8876538Y1657604D01*
X8879586Y1647952D01*
X8881363Y1637792D01*
X8882125Y1627631D01*
X8882125Y1467357D01*
X8881363Y1457197D01*
X8879586Y1447037D01*
X8876538Y1437386D01*
X8872220Y1427987D01*
X8866886Y1419097D01*
X8860536Y1410970D01*
X8853424Y1403857D01*
X8845295Y1397507D01*
X8836406Y1392173D01*
X8827261Y1387855D01*
X8817356Y1384807D01*
X8807195Y1383029D01*
G37*
G36*
X9051036Y1382521D02*
G01*
X9040622Y1383029D01*
X9030715Y1384807D01*
X9020809Y1387855D01*
X9011411Y1392173D01*
X9002775Y1397507D01*
X8994647Y1403857D01*
X8987281Y1410970D01*
X8980931Y1419097D01*
X8975597Y1427987D01*
X8971534Y1437386D01*
X8968486Y1447037D01*
X8966454Y1457197D01*
X8965945Y1467357D01*
X8965945Y1627631D01*
X8966454Y1637792D01*
X8968486Y1647952D01*
X8971534Y1657604D01*
X8975597Y1667002D01*
X8980931Y1675892D01*
X8987281Y1684020D01*
X8994647Y1691131D01*
X9002775Y1697481D01*
X9011411Y1702815D01*
X9020809Y1707134D01*
X9030715Y1710181D01*
X9040622Y1711960D01*
X9051036Y1712468D01*
X9061195Y1711960D01*
X9071356Y1710181D01*
X9081261Y1707134D01*
X9090659Y1702815D01*
X9099295Y1697481D01*
X9107424Y1691131D01*
X9114536Y1684020D01*
X9120886Y1675892D01*
X9126220Y1667002D01*
X9130538Y1657604D01*
X9133586Y1647952D01*
X9135363Y1637792D01*
X9136125Y1627631D01*
X9136125Y1467357D01*
X9135363Y1457197D01*
X9133586Y1447037D01*
X9130538Y1437386D01*
X9126220Y1427987D01*
X9120886Y1419097D01*
X9114536Y1410970D01*
X9107424Y1403857D01*
X9099295Y1397507D01*
X9090406Y1392173D01*
X9081261Y1387855D01*
X9071356Y1384807D01*
X9061195Y1383029D01*
G37*
G01*
X9305035Y1547494D03*
G36*
X9559036Y1382521D02*
G01*
X9548622Y1383029D01*
X9538715Y1384807D01*
X9528809Y1387855D01*
X9519411Y1392173D01*
X9510775Y1397507D01*
X9502647Y1403857D01*
X9495281Y1410970D01*
X9488931Y1419097D01*
X9483597Y1427987D01*
X9479534Y1437386D01*
X9476486Y1447037D01*
X9474454Y1457197D01*
X9473945Y1467357D01*
X9473945Y1627631D01*
X9474454Y1637792D01*
X9476486Y1647952D01*
X9479534Y1657604D01*
X9483597Y1667002D01*
X9488931Y1675892D01*
X9495281Y1684020D01*
X9502647Y1691131D01*
X9510775Y1697481D01*
X9519411Y1702815D01*
X9528809Y1707134D01*
X9538715Y1710181D01*
X9548622Y1711960D01*
X9559036Y1712468D01*
X9569195Y1711960D01*
X9579356Y1710181D01*
X9589261Y1707134D01*
X9598659Y1702815D01*
X9607295Y1697481D01*
X9615424Y1691131D01*
X9622536Y1684020D01*
X9628886Y1675892D01*
X9634220Y1667002D01*
X9638538Y1657604D01*
X9641586Y1647952D01*
X9643363Y1637792D01*
X9644125Y1627631D01*
X9644125Y1467357D01*
X9643363Y1457197D01*
X9641586Y1447037D01*
X9638538Y1437386D01*
X9634220Y1427987D01*
X9628886Y1419097D01*
X9622536Y1410970D01*
X9615424Y1403857D01*
X9607295Y1397507D01*
X9598406Y1392173D01*
X9589261Y1387855D01*
X9579356Y1384807D01*
X9569195Y1383029D01*
G37*
G36*
X9813036Y1382521D02*
G01*
X9802622Y1383029D01*
X9792715Y1384807D01*
X9782809Y1387855D01*
X9773411Y1392173D01*
X9764775Y1397507D01*
X9756647Y1403857D01*
X9749281Y1410970D01*
X9742931Y1419097D01*
X9737597Y1427987D01*
X9733534Y1437386D01*
X9730486Y1447037D01*
X9728454Y1457197D01*
X9727945Y1467357D01*
X9727945Y1627631D01*
X9728454Y1637792D01*
X9730486Y1647952D01*
X9733534Y1657604D01*
X9737597Y1667002D01*
X9742931Y1675892D01*
X9749281Y1684020D01*
X9756647Y1691131D01*
X9764775Y1697481D01*
X9773411Y1702815D01*
X9782809Y1707134D01*
X9792715Y1710181D01*
X9802622Y1711960D01*
X9813036Y1712468D01*
X9823195Y1711960D01*
X9833356Y1710181D01*
X9843261Y1707134D01*
X9852659Y1702815D01*
X9861295Y1697481D01*
X9869424Y1691131D01*
X9876536Y1684020D01*
X9882886Y1675892D01*
X9888220Y1667002D01*
X9892538Y1657604D01*
X9895586Y1647952D01*
X9897363Y1637792D01*
X9898125Y1627631D01*
X9898125Y1467357D01*
X9897363Y1457197D01*
X9895586Y1447037D01*
X9892538Y1437386D01*
X9888220Y1427987D01*
X9882886Y1419097D01*
X9876536Y1410970D01*
X9869424Y1403857D01*
X9861295Y1397507D01*
X9852406Y1392173D01*
X9843261Y1387855D01*
X9833356Y1384807D01*
X9823195Y1383029D01*
G37*
G36*
X4906772Y2414778D02*
G01*
X4896611Y2415539D01*
X4886706Y2417318D01*
X4876800Y2420365D01*
X4867402Y2424684D01*
X4858765Y2430018D01*
X4850638Y2436368D01*
X4843272Y2443479D01*
X4836922Y2451607D01*
X4831588Y2460497D01*
X4827524Y2469895D01*
X4824475Y2479547D01*
X4822443Y2489707D01*
X4821936Y2499868D01*
X4822443Y2510281D01*
X4824475Y2520442D01*
X4827524Y2530094D01*
X4831588Y2539492D01*
X4836922Y2548381D01*
X4843272Y2556510D01*
X4850638Y2563621D01*
X4858765Y2569971D01*
X4867402Y2575305D01*
X4876800Y2579623D01*
X4886706Y2582671D01*
X4896611Y2584450D01*
X4906772Y2584957D01*
X5067045Y2584957D01*
X5077206Y2584450D01*
X5087365Y2582671D01*
X5097272Y2579623D01*
X5106415Y2575305D01*
X5115306Y2569971D01*
X5123434Y2563621D01*
X5130545Y2556510D01*
X5136895Y2548381D01*
X5142229Y2539492D01*
X5146547Y2530094D01*
X5149595Y2520442D01*
X5151374Y2510281D01*
X5152136Y2499868D01*
X5151374Y2489707D01*
X5149595Y2479547D01*
X5146547Y2469895D01*
X5142229Y2460497D01*
X5136895Y2451607D01*
X5130545Y2443479D01*
X5123434Y2436368D01*
X5115306Y2430018D01*
X5106415Y2424684D01*
X5097272Y2420365D01*
X5087365Y2417318D01*
X5077206Y2415539D01*
X5067045Y2414778D01*
G37*
G36*
X4906772Y2160778D02*
G01*
X4896611Y2161539D01*
X4886706Y2163318D01*
X4876800Y2166365D01*
X4867402Y2170684D01*
X4858765Y2176018D01*
X4850638Y2182368D01*
X4843272Y2189479D01*
X4836922Y2197607D01*
X4831588Y2206497D01*
X4827524Y2215895D01*
X4824475Y2225547D01*
X4822443Y2235707D01*
X4821936Y2245868D01*
X4822443Y2256281D01*
X4824475Y2266442D01*
X4827524Y2276094D01*
X4831588Y2285492D01*
X4836922Y2294381D01*
X4843272Y2302510D01*
X4850638Y2309621D01*
X4858765Y2315971D01*
X4867402Y2321305D01*
X4876800Y2325623D01*
X4886706Y2328671D01*
X4896611Y2330450D01*
X4906772Y2330957D01*
X5067045Y2330957D01*
X5077206Y2330450D01*
X5087365Y2328671D01*
X5097272Y2325623D01*
X5106415Y2321305D01*
X5115306Y2315971D01*
X5123434Y2309621D01*
X5130545Y2302510D01*
X5136895Y2294381D01*
X5142229Y2285492D01*
X5146547Y2276094D01*
X5149595Y2266442D01*
X5151374Y2256281D01*
X5152136Y2245868D01*
X5151374Y2235707D01*
X5149595Y2225547D01*
X5146547Y2215895D01*
X5142229Y2206497D01*
X5136895Y2197607D01*
X5130545Y2189479D01*
X5123434Y2182368D01*
X5115306Y2176018D01*
X5106415Y2170684D01*
X5097272Y2166365D01*
X5087365Y2163318D01*
X5077206Y2161539D01*
X5067045Y2160778D01*
G37*
G36*
X4906772Y2668778D02*
G01*
X4896611Y2669539D01*
X4886706Y2671318D01*
X4876800Y2674365D01*
X4867402Y2678684D01*
X4858765Y2684018D01*
X4850638Y2690368D01*
X4843272Y2697479D01*
X4836922Y2705607D01*
X4831588Y2714497D01*
X4827524Y2723895D01*
X4824475Y2733547D01*
X4822443Y2743707D01*
X4821936Y2753868D01*
X4822443Y2764281D01*
X4824475Y2774442D01*
X4827524Y2784094D01*
X4831588Y2793492D01*
X4836922Y2802381D01*
X4843272Y2810510D01*
X4850638Y2817621D01*
X4858765Y2823971D01*
X4867402Y2829305D01*
X4876800Y2833623D01*
X4886706Y2836671D01*
X4896611Y2838450D01*
X4906772Y2838957D01*
X5067045Y2838957D01*
X5077206Y2838450D01*
X5087365Y2836671D01*
X5097272Y2833623D01*
X5106415Y2829305D01*
X5115306Y2823971D01*
X5123434Y2817621D01*
X5130545Y2810510D01*
X5136895Y2802381D01*
X5142229Y2793492D01*
X5146547Y2784094D01*
X5149595Y2774442D01*
X5151374Y2764281D01*
X5152136Y2753868D01*
X5151374Y2743707D01*
X5149595Y2733547D01*
X5146547Y2723895D01*
X5142229Y2714497D01*
X5136895Y2705607D01*
X5130545Y2697479D01*
X5123434Y2690368D01*
X5115306Y2684018D01*
X5106415Y2678684D01*
X5097272Y2674365D01*
X5087365Y2671318D01*
X5077206Y2669539D01*
X5067045Y2668778D01*
G37*
M02*
