G04 Layer: BottomPasteMaskLayer*
G04 EasyEDA v6.5.20, 2023-09-17 03:17:05*
G04 a67cddfb3fce44daa9051d46cbbcc19f,10*
G04 Gerber Generator version 0.2*
G04 Scale: 100 percent, Rotated: No, Reflected: No *
G04 Dimensions in millimeters *
G04 leading zeros omitted , absolute positions ,4 integer and 5 decimal *
%FSLAX45Y45*%
%MOMM*%

%AMMACRO1*21,1,$1,$2,0,0,$3*%
%AMMACRO2*4,1,4,-0.8,-1.5999,0.8,-1.5999,0.8,1.5999,-0.8,1.5999,-0.8,-1.5999,0*%
%AMMACRO3*4,1,4,-0.8001,-1.5999,0.8001,-1.5999,0.8001,1.5999,-0.8001,1.5999,-0.8001,-1.5999,0*%
%ADD10MACRO1,1.25X0.7X90.0000*%
%ADD11MACRO2*%
%ADD12MACRO3*%

%LPD*%
G36*
X5836005Y7319975D02*
G01*
X5830976Y7314996D01*
X5830976Y7199985D01*
X5836005Y7195007D01*
X5877001Y7194499D01*
X5877001Y7239508D01*
X5922010Y7239508D01*
X5922010Y7195464D01*
X5963970Y7195007D01*
X5969000Y7199985D01*
X5969000Y7314996D01*
X5963970Y7319975D01*
G37*
G36*
X5836005Y7104989D02*
G01*
X5830976Y7100011D01*
X5830976Y6985000D01*
X5836005Y6979970D01*
X5963970Y6979970D01*
X5969000Y6985000D01*
X5969000Y7100011D01*
X5963970Y7104989D01*
X5922010Y7104989D01*
X5922010Y7060488D01*
X5877001Y7060488D01*
X5877001Y7104481D01*
G37*
G36*
X5585968Y7319975D02*
G01*
X5580989Y7314996D01*
X5580989Y7199985D01*
X5585968Y7195007D01*
X5627014Y7194499D01*
X5627014Y7239508D01*
X5671972Y7239508D01*
X5671972Y7195464D01*
X5713984Y7195007D01*
X5719013Y7199985D01*
X5719013Y7314996D01*
X5713984Y7319975D01*
G37*
G36*
X5585968Y7104989D02*
G01*
X5580989Y7100011D01*
X5580989Y6985000D01*
X5585968Y6979970D01*
X5713984Y6979970D01*
X5719013Y6985000D01*
X5719013Y7100011D01*
X5713984Y7104989D01*
X5671972Y7104989D01*
X5671972Y7060488D01*
X5627014Y7060488D01*
X5627014Y7104481D01*
G37*
G36*
X6085992Y7319975D02*
G01*
X6080963Y7314996D01*
X6080963Y7199985D01*
X6085992Y7195007D01*
X6126988Y7194499D01*
X6126988Y7239508D01*
X6171996Y7239508D01*
X6171996Y7195464D01*
X6214008Y7195007D01*
X6218986Y7199985D01*
X6218986Y7314996D01*
X6214008Y7319975D01*
G37*
G36*
X6085992Y7104989D02*
G01*
X6080963Y7100011D01*
X6080963Y6985000D01*
X6085992Y6979970D01*
X6214008Y6979970D01*
X6218986Y6985000D01*
X6218986Y7100011D01*
X6214008Y7104989D01*
X6171996Y7104989D01*
X6171996Y7060488D01*
X6126988Y7060488D01*
X6126988Y7104481D01*
G37*
G36*
X6023000Y5455513D02*
G01*
X6023000Y5410504D01*
X5977991Y5410504D01*
X5977991Y5454497D01*
X5935980Y5455005D01*
X5931001Y5449976D01*
X5931001Y5334965D01*
X5935980Y5329986D01*
X6063996Y5329986D01*
X6068974Y5334965D01*
X6068974Y5449976D01*
X6063996Y5455005D01*
G37*
G36*
X5935980Y5669991D02*
G01*
X5931001Y5664962D01*
X5931001Y5550001D01*
X5935980Y5544972D01*
X5977991Y5544972D01*
X5977991Y5589473D01*
X6023000Y5589473D01*
X6023000Y5545480D01*
X6063996Y5544972D01*
X6068974Y5550001D01*
X6068974Y5664962D01*
X6063996Y5669991D01*
G37*
G36*
X6272936Y5455513D02*
G01*
X6272936Y5410504D01*
X6227927Y5410504D01*
X6227927Y5454497D01*
X6185916Y5455005D01*
X6180937Y5449976D01*
X6180937Y5334965D01*
X6185916Y5329986D01*
X6313932Y5329986D01*
X6318910Y5334965D01*
X6318910Y5449976D01*
X6313932Y5455005D01*
G37*
G36*
X6185916Y5669991D02*
G01*
X6180937Y5664962D01*
X6180937Y5550001D01*
X6185916Y5544972D01*
X6227927Y5544972D01*
X6227927Y5589473D01*
X6272936Y5589473D01*
X6272936Y5545480D01*
X6313932Y5544972D01*
X6318910Y5550001D01*
X6318910Y5664962D01*
X6313932Y5669991D01*
G37*
G36*
X6523126Y5455513D02*
G01*
X6523126Y5410504D01*
X6478117Y5410504D01*
X6478117Y5454497D01*
X6436106Y5455005D01*
X6431127Y5449976D01*
X6431127Y5334965D01*
X6436106Y5329986D01*
X6564122Y5329986D01*
X6569100Y5334965D01*
X6569100Y5449976D01*
X6564122Y5455005D01*
G37*
G36*
X6436106Y5669991D02*
G01*
X6431127Y5664962D01*
X6431127Y5550001D01*
X6436106Y5544972D01*
X6478117Y5544972D01*
X6478117Y5589473D01*
X6523126Y5589473D01*
X6523126Y5545480D01*
X6564122Y5544972D01*
X6569100Y5550001D01*
X6569100Y5664962D01*
X6564122Y5669991D01*
G37*
G36*
X7022998Y5455513D02*
G01*
X7022998Y5410504D01*
X6977989Y5410504D01*
X6977989Y5454497D01*
X6935978Y5455005D01*
X6930999Y5449976D01*
X6930999Y5334965D01*
X6935978Y5329986D01*
X7063994Y5329986D01*
X7068972Y5334965D01*
X7068972Y5449976D01*
X7063994Y5455005D01*
G37*
G36*
X6935978Y5669991D02*
G01*
X6930999Y5664962D01*
X6930999Y5550001D01*
X6935978Y5544972D01*
X6977989Y5544972D01*
X6977989Y5589473D01*
X7022998Y5589473D01*
X7022998Y5545480D01*
X7063994Y5544972D01*
X7068972Y5550001D01*
X7068972Y5664962D01*
X7063994Y5669991D01*
G37*
G36*
X7523124Y5455513D02*
G01*
X7523124Y5410504D01*
X7478115Y5410504D01*
X7478115Y5454497D01*
X7436103Y5455005D01*
X7431125Y5449976D01*
X7431125Y5334965D01*
X7436103Y5329986D01*
X7564120Y5329986D01*
X7569098Y5334965D01*
X7569098Y5449976D01*
X7564120Y5455005D01*
G37*
G36*
X7436103Y5669991D02*
G01*
X7431125Y5664962D01*
X7431125Y5550001D01*
X7436103Y5544972D01*
X7478115Y5544972D01*
X7478115Y5589473D01*
X7523124Y5589473D01*
X7523124Y5545480D01*
X7564120Y5544972D01*
X7569098Y5550001D01*
X7569098Y5664962D01*
X7564120Y5669991D01*
G37*
G36*
X7773060Y5455513D02*
G01*
X7773060Y5410504D01*
X7728051Y5410504D01*
X7728051Y5454497D01*
X7686040Y5455005D01*
X7681061Y5449976D01*
X7681061Y5334965D01*
X7686040Y5329986D01*
X7814056Y5329986D01*
X7819034Y5334965D01*
X7819034Y5449976D01*
X7814056Y5455005D01*
G37*
G36*
X7686040Y5669991D02*
G01*
X7681061Y5664962D01*
X7681061Y5550001D01*
X7686040Y5544972D01*
X7728051Y5544972D01*
X7728051Y5589473D01*
X7773060Y5589473D01*
X7773060Y5545480D01*
X7814056Y5544972D01*
X7819034Y5550001D01*
X7819034Y5664962D01*
X7814056Y5669991D01*
G37*
G36*
X8022996Y5455513D02*
G01*
X8022996Y5410504D01*
X7977987Y5410504D01*
X7977987Y5454497D01*
X7935975Y5455005D01*
X7930997Y5449976D01*
X7930997Y5334965D01*
X7935975Y5329986D01*
X8063992Y5329986D01*
X8068970Y5334965D01*
X8068970Y5449976D01*
X8063992Y5455005D01*
G37*
G36*
X7935975Y5669991D02*
G01*
X7930997Y5664962D01*
X7930997Y5550001D01*
X7935975Y5544972D01*
X7977987Y5544972D01*
X7977987Y5589473D01*
X8022996Y5589473D01*
X8022996Y5545480D01*
X8063992Y5544972D01*
X8068970Y5550001D01*
X8068970Y5664962D01*
X8063992Y5669991D01*
G37*
G36*
X8322970Y5455513D02*
G01*
X8322970Y5410504D01*
X8277961Y5410504D01*
X8277961Y5454497D01*
X8235950Y5455005D01*
X8230971Y5449976D01*
X8230971Y5334965D01*
X8235950Y5329986D01*
X8363966Y5329986D01*
X8368944Y5334965D01*
X8368944Y5449976D01*
X8363966Y5455005D01*
G37*
G36*
X8235950Y5669991D02*
G01*
X8230971Y5664962D01*
X8230971Y5550001D01*
X8235950Y5544972D01*
X8277961Y5544972D01*
X8277961Y5589473D01*
X8322970Y5589473D01*
X8322970Y5545480D01*
X8363966Y5544972D01*
X8368944Y5550001D01*
X8368944Y5664962D01*
X8363966Y5669991D01*
G37*
D10*
G01*
X6004991Y6699986D03*
G01*
X6194982Y6699986D03*
G01*
X6099986Y6499987D03*
G01*
X5704992Y6699986D03*
G01*
X5894983Y6699986D03*
G01*
X5799987Y6499987D03*
G01*
X5404993Y6699986D03*
G01*
X5594983Y6699986D03*
G01*
X5499987Y6499987D03*
G36*
X9732975Y3372485D02*
G01*
X9733559Y3362858D01*
X9735311Y3353358D01*
X9738182Y3344113D01*
X9742144Y3335324D01*
X9747148Y3327044D01*
X9753091Y3319449D01*
X9759924Y3312617D01*
X9767544Y3306648D01*
X9775799Y3301644D01*
X9784613Y3297681D01*
X9793833Y3294811D01*
X9803333Y3293084D01*
X9812985Y3292500D01*
X9822611Y3293084D01*
X9832136Y3294811D01*
X9841356Y3297681D01*
X9850170Y3301644D01*
X9858425Y3306648D01*
X9866020Y3312617D01*
X9872852Y3319449D01*
X9878822Y3327044D01*
X9883825Y3335324D01*
X9887788Y3344113D01*
X9890658Y3353358D01*
X9892385Y3362858D01*
X9892969Y3372485D01*
X9892969Y3532504D01*
X9892385Y3542131D01*
X9890658Y3551631D01*
X9887788Y3560851D01*
X9883825Y3569665D01*
X9878822Y3577945D01*
X9872852Y3585540D01*
X9866020Y3592372D01*
X9858425Y3598341D01*
X9850170Y3603320D01*
X9841356Y3607282D01*
X9832136Y3610178D01*
X9822611Y3611905D01*
X9812985Y3612489D01*
X9803333Y3611905D01*
X9793833Y3610178D01*
X9784613Y3607282D01*
X9775799Y3603320D01*
X9767544Y3598341D01*
X9759924Y3592372D01*
X9753091Y3585540D01*
X9747148Y3577945D01*
X9742144Y3569665D01*
X9738182Y3560851D01*
X9735311Y3551631D01*
X9733559Y3542131D01*
X9732975Y3532504D01*
G37*
G36*
X9478975Y3372485D02*
G01*
X9479559Y3362858D01*
X9481311Y3353358D01*
X9484182Y3344113D01*
X9488144Y3335324D01*
X9493148Y3327044D01*
X9499091Y3319449D01*
X9505924Y3312617D01*
X9513544Y3306648D01*
X9521799Y3301644D01*
X9530613Y3297681D01*
X9539833Y3294811D01*
X9549333Y3293084D01*
X9558985Y3292500D01*
X9568611Y3293084D01*
X9578136Y3294811D01*
X9587356Y3297681D01*
X9596170Y3301644D01*
X9604425Y3306648D01*
X9612020Y3312617D01*
X9618852Y3319449D01*
X9624822Y3327044D01*
X9629825Y3335324D01*
X9633788Y3344113D01*
X9636658Y3353358D01*
X9638385Y3362858D01*
X9638969Y3372485D01*
X9638969Y3532504D01*
X9638385Y3542131D01*
X9636658Y3551631D01*
X9633788Y3560851D01*
X9629825Y3569665D01*
X9624822Y3577945D01*
X9618852Y3585540D01*
X9612020Y3592372D01*
X9604425Y3598341D01*
X9596170Y3603320D01*
X9587356Y3607282D01*
X9578136Y3610178D01*
X9568611Y3611905D01*
X9558985Y3612489D01*
X9549333Y3611905D01*
X9539833Y3610178D01*
X9530613Y3607282D01*
X9521799Y3603320D01*
X9513544Y3598341D01*
X9505924Y3592372D01*
X9499091Y3585540D01*
X9493148Y3577945D01*
X9488144Y3569665D01*
X9484182Y3560851D01*
X9481311Y3551631D01*
X9479559Y3542131D01*
X9478975Y3532504D01*
G37*
D11*
G01*
X9304972Y3452495D03*
G36*
X8970975Y3372485D02*
G01*
X8971559Y3362858D01*
X8973311Y3353358D01*
X8976182Y3344113D01*
X8980144Y3335324D01*
X8985148Y3327044D01*
X8991091Y3319449D01*
X8997924Y3312617D01*
X9005544Y3306648D01*
X9013799Y3301644D01*
X9022613Y3297681D01*
X9031833Y3294811D01*
X9041333Y3293084D01*
X9050985Y3292500D01*
X9060637Y3293084D01*
X9070136Y3294811D01*
X9079356Y3297681D01*
X9088170Y3301644D01*
X9096425Y3306648D01*
X9104020Y3312617D01*
X9110852Y3319449D01*
X9116822Y3327044D01*
X9121825Y3335324D01*
X9125788Y3344113D01*
X9128658Y3353358D01*
X9130411Y3362858D01*
X9130969Y3372485D01*
X9130969Y3532504D01*
X9130411Y3542131D01*
X9128658Y3551631D01*
X9125788Y3560851D01*
X9121825Y3569665D01*
X9116822Y3577945D01*
X9110852Y3585540D01*
X9104020Y3592372D01*
X9096425Y3598341D01*
X9088170Y3603320D01*
X9079356Y3607282D01*
X9070136Y3610178D01*
X9060637Y3611905D01*
X9050985Y3612489D01*
X9041333Y3611905D01*
X9031833Y3610178D01*
X9022613Y3607282D01*
X9013799Y3603320D01*
X9005544Y3598341D01*
X8997924Y3592372D01*
X8991091Y3585540D01*
X8985148Y3577945D01*
X8980144Y3569665D01*
X8976182Y3560851D01*
X8973311Y3551631D01*
X8971559Y3542131D01*
X8970975Y3532504D01*
G37*
G36*
X8716975Y3372485D02*
G01*
X8717559Y3362858D01*
X8719311Y3353358D01*
X8722182Y3344113D01*
X8726144Y3335324D01*
X8731148Y3327044D01*
X8737091Y3319449D01*
X8743924Y3312617D01*
X8751544Y3306648D01*
X8759799Y3301644D01*
X8768613Y3297681D01*
X8777833Y3294811D01*
X8787333Y3293084D01*
X8796985Y3292500D01*
X8806637Y3293084D01*
X8816136Y3294811D01*
X8825356Y3297681D01*
X8834170Y3301644D01*
X8842425Y3306648D01*
X8850020Y3312617D01*
X8856852Y3319449D01*
X8862822Y3327044D01*
X8867825Y3335324D01*
X8871788Y3344113D01*
X8874658Y3353358D01*
X8876411Y3362858D01*
X8876969Y3372485D01*
X8876969Y3532504D01*
X8876411Y3542131D01*
X8874658Y3551631D01*
X8871788Y3560851D01*
X8867825Y3569665D01*
X8862822Y3577945D01*
X8856852Y3585540D01*
X8850020Y3592372D01*
X8842425Y3598341D01*
X8834170Y3603320D01*
X8825356Y3607282D01*
X8816136Y3610178D01*
X8806637Y3611905D01*
X8796985Y3612489D01*
X8787333Y3611905D01*
X8777833Y3610178D01*
X8768613Y3607282D01*
X8759799Y3603320D01*
X8751544Y3598341D01*
X8743924Y3592372D01*
X8737091Y3585540D01*
X8731148Y3577945D01*
X8726144Y3569665D01*
X8722182Y3560851D01*
X8719311Y3551631D01*
X8717559Y3542131D01*
X8716975Y3532504D01*
G37*
G36*
X8462975Y3372485D02*
G01*
X8463559Y3362858D01*
X8465311Y3353358D01*
X8468182Y3344113D01*
X8472144Y3335324D01*
X8477148Y3327044D01*
X8483091Y3319449D01*
X8489924Y3312617D01*
X8497544Y3306648D01*
X8505799Y3301644D01*
X8514613Y3297681D01*
X8523833Y3294811D01*
X8533333Y3293084D01*
X8542985Y3292500D01*
X8552637Y3293084D01*
X8562136Y3294811D01*
X8571356Y3297681D01*
X8580170Y3301644D01*
X8588425Y3306648D01*
X8596020Y3312617D01*
X8602852Y3319449D01*
X8608822Y3327044D01*
X8613825Y3335324D01*
X8617788Y3344113D01*
X8620658Y3353358D01*
X8622411Y3362858D01*
X8622995Y3372485D01*
X8622995Y3532504D01*
X8622411Y3542131D01*
X8620658Y3551631D01*
X8617788Y3560851D01*
X8613825Y3569665D01*
X8608822Y3577945D01*
X8602852Y3585540D01*
X8596020Y3592372D01*
X8588425Y3598341D01*
X8580170Y3603320D01*
X8571356Y3607282D01*
X8562136Y3610178D01*
X8552637Y3611905D01*
X8542985Y3612489D01*
X8533333Y3611905D01*
X8523833Y3610178D01*
X8514613Y3607282D01*
X8505799Y3603320D01*
X8497544Y3598341D01*
X8489924Y3592372D01*
X8483091Y3585540D01*
X8477148Y3577945D01*
X8472144Y3569665D01*
X8468182Y3560851D01*
X8465311Y3551631D01*
X8463559Y3542131D01*
X8462975Y3532504D01*
G37*
G36*
X8208975Y3372485D02*
G01*
X8209559Y3362858D01*
X8211311Y3353358D01*
X8214182Y3344113D01*
X8218144Y3335324D01*
X8223148Y3327044D01*
X8229091Y3319449D01*
X8235924Y3312617D01*
X8243544Y3306648D01*
X8251799Y3301644D01*
X8260613Y3297681D01*
X8269833Y3294811D01*
X8279333Y3293084D01*
X8288985Y3292500D01*
X8298637Y3293084D01*
X8308136Y3294811D01*
X8317356Y3297681D01*
X8326170Y3301644D01*
X8334425Y3306648D01*
X8342045Y3312617D01*
X8348852Y3319449D01*
X8354822Y3327044D01*
X8359825Y3335324D01*
X8363788Y3344113D01*
X8366658Y3353358D01*
X8368411Y3362858D01*
X8368995Y3372485D01*
X8368995Y3532504D01*
X8368411Y3542131D01*
X8366658Y3551631D01*
X8363788Y3560851D01*
X8359825Y3569665D01*
X8354822Y3577945D01*
X8348852Y3585540D01*
X8342045Y3592372D01*
X8334425Y3598341D01*
X8326170Y3603320D01*
X8317356Y3607282D01*
X8308136Y3610178D01*
X8298637Y3611905D01*
X8288985Y3612489D01*
X8279333Y3611905D01*
X8269833Y3610178D01*
X8260613Y3607282D01*
X8251799Y3603320D01*
X8243544Y3598341D01*
X8235924Y3592372D01*
X8229091Y3585540D01*
X8223148Y3577945D01*
X8218144Y3569665D01*
X8214182Y3560851D01*
X8211311Y3551631D01*
X8209559Y3542131D01*
X8208975Y3532504D01*
G37*
D12*
G01*
X8034985Y3452495D03*
G36*
X7700975Y3372485D02*
G01*
X7701559Y3362858D01*
X7703311Y3353358D01*
X7706182Y3344113D01*
X7710144Y3335324D01*
X7715148Y3327044D01*
X7721091Y3319449D01*
X7727924Y3312617D01*
X7735544Y3306648D01*
X7743799Y3301644D01*
X7752613Y3297681D01*
X7761833Y3294811D01*
X7771333Y3293084D01*
X7780985Y3292500D01*
X7790637Y3293084D01*
X7800136Y3294811D01*
X7809356Y3297681D01*
X7818170Y3301644D01*
X7826425Y3306648D01*
X7834045Y3312617D01*
X7840852Y3319449D01*
X7846822Y3327044D01*
X7851825Y3335324D01*
X7855788Y3344113D01*
X7858658Y3353358D01*
X7860411Y3362858D01*
X7860995Y3372485D01*
X7860995Y3532504D01*
X7860411Y3542131D01*
X7858658Y3551631D01*
X7855788Y3560851D01*
X7851825Y3569665D01*
X7846822Y3577945D01*
X7840852Y3585540D01*
X7834045Y3592372D01*
X7826425Y3598341D01*
X7818170Y3603320D01*
X7809356Y3607282D01*
X7800136Y3610178D01*
X7790637Y3611905D01*
X7780985Y3612489D01*
X7771333Y3611905D01*
X7761833Y3610178D01*
X7752613Y3607282D01*
X7743799Y3603320D01*
X7735544Y3598341D01*
X7727924Y3592372D01*
X7721091Y3585540D01*
X7715148Y3577945D01*
X7710144Y3569665D01*
X7706182Y3560851D01*
X7703311Y3551631D01*
X7701559Y3542131D01*
X7700975Y3532504D01*
G37*
G36*
X7446975Y3372485D02*
G01*
X7447559Y3362858D01*
X7449311Y3353358D01*
X7452182Y3344113D01*
X7456144Y3335324D01*
X7461148Y3327044D01*
X7467091Y3319449D01*
X7473924Y3312617D01*
X7481544Y3306648D01*
X7489799Y3301644D01*
X7498613Y3297681D01*
X7507833Y3294811D01*
X7517333Y3293084D01*
X7526985Y3292500D01*
X7536637Y3293084D01*
X7546136Y3294811D01*
X7555356Y3297681D01*
X7564170Y3301644D01*
X7572425Y3306648D01*
X7580045Y3312617D01*
X7586852Y3319449D01*
X7592822Y3327044D01*
X7597825Y3335324D01*
X7601788Y3344113D01*
X7604658Y3353358D01*
X7606411Y3362858D01*
X7606995Y3372485D01*
X7606995Y3532504D01*
X7606411Y3542131D01*
X7604658Y3551631D01*
X7601788Y3560851D01*
X7597825Y3569665D01*
X7592822Y3577945D01*
X7586852Y3585540D01*
X7580045Y3592372D01*
X7572425Y3598341D01*
X7564170Y3603320D01*
X7555356Y3607282D01*
X7546136Y3610178D01*
X7536637Y3611905D01*
X7526985Y3612489D01*
X7517333Y3611905D01*
X7507833Y3610178D01*
X7498613Y3607282D01*
X7489799Y3603320D01*
X7481544Y3598341D01*
X7473924Y3592372D01*
X7467091Y3585540D01*
X7461148Y3577945D01*
X7456144Y3569665D01*
X7452182Y3560851D01*
X7449311Y3551631D01*
X7447559Y3542131D01*
X7446975Y3532504D01*
G37*
G36*
X7192975Y3372485D02*
G01*
X7193559Y3362858D01*
X7195311Y3353358D01*
X7198182Y3344113D01*
X7202144Y3335324D01*
X7207148Y3327044D01*
X7213117Y3319449D01*
X7219924Y3312617D01*
X7227544Y3306648D01*
X7235799Y3301644D01*
X7244613Y3297681D01*
X7253833Y3294811D01*
X7263333Y3293084D01*
X7272985Y3292500D01*
X7282637Y3293084D01*
X7292136Y3294811D01*
X7301356Y3297681D01*
X7310170Y3301644D01*
X7318425Y3306648D01*
X7326045Y3312617D01*
X7332878Y3319449D01*
X7338822Y3327044D01*
X7343825Y3335324D01*
X7347788Y3344113D01*
X7350658Y3353358D01*
X7352411Y3362858D01*
X7352995Y3372485D01*
X7352995Y3532504D01*
X7352411Y3542131D01*
X7350658Y3551631D01*
X7347788Y3560851D01*
X7343825Y3569665D01*
X7338822Y3577945D01*
X7332878Y3585540D01*
X7326045Y3592372D01*
X7318425Y3598341D01*
X7310170Y3603320D01*
X7301356Y3607282D01*
X7292136Y3610178D01*
X7282637Y3611905D01*
X7272985Y3612489D01*
X7263333Y3611905D01*
X7253833Y3610178D01*
X7244613Y3607282D01*
X7235799Y3603320D01*
X7227544Y3598341D01*
X7219924Y3592372D01*
X7213117Y3585540D01*
X7207148Y3577945D01*
X7202144Y3569665D01*
X7198182Y3560851D01*
X7195311Y3551631D01*
X7193559Y3542131D01*
X7192975Y3532504D01*
G37*
G36*
X6938975Y3372485D02*
G01*
X6939559Y3362858D01*
X6941311Y3353358D01*
X6944182Y3344113D01*
X6948144Y3335324D01*
X6953148Y3327044D01*
X6959117Y3319449D01*
X6965924Y3312617D01*
X6973544Y3306648D01*
X6981799Y3301644D01*
X6990613Y3297681D01*
X6999833Y3294811D01*
X7009333Y3293084D01*
X7018985Y3292500D01*
X7028637Y3293084D01*
X7038136Y3294811D01*
X7047356Y3297681D01*
X7056170Y3301644D01*
X7064425Y3306648D01*
X7072045Y3312617D01*
X7078878Y3319449D01*
X7084822Y3327044D01*
X7089825Y3335324D01*
X7093788Y3344113D01*
X7096658Y3353358D01*
X7098411Y3362858D01*
X7098995Y3372485D01*
X7098995Y3532504D01*
X7098411Y3542131D01*
X7096658Y3551631D01*
X7093788Y3560851D01*
X7089825Y3569665D01*
X7084822Y3577945D01*
X7078878Y3585540D01*
X7072045Y3592372D01*
X7064425Y3598341D01*
X7056170Y3603320D01*
X7047356Y3607282D01*
X7038136Y3610178D01*
X7028637Y3611905D01*
X7018985Y3612489D01*
X7009333Y3611905D01*
X6999833Y3610178D01*
X6990613Y3607282D01*
X6981799Y3603320D01*
X6973544Y3598341D01*
X6965924Y3592372D01*
X6959117Y3585540D01*
X6953148Y3577945D01*
X6948144Y3569665D01*
X6944182Y3560851D01*
X6941311Y3551631D01*
X6939559Y3542131D01*
X6938975Y3532504D01*
G37*
G01*
X6764985Y3452495D03*
G36*
X6430975Y3372485D02*
G01*
X6431559Y3362858D01*
X6433311Y3353358D01*
X6436182Y3344113D01*
X6440144Y3335324D01*
X6445148Y3327044D01*
X6451117Y3319449D01*
X6457924Y3312617D01*
X6465544Y3306648D01*
X6473799Y3301644D01*
X6482613Y3297681D01*
X6491833Y3294811D01*
X6501333Y3293084D01*
X6510985Y3292500D01*
X6520637Y3293084D01*
X6530136Y3294811D01*
X6539356Y3297681D01*
X6548170Y3301644D01*
X6556425Y3306648D01*
X6564045Y3312617D01*
X6570878Y3319449D01*
X6576822Y3327044D01*
X6581825Y3335324D01*
X6585788Y3344113D01*
X6588658Y3353358D01*
X6590411Y3362858D01*
X6590995Y3372485D01*
X6590995Y3532504D01*
X6590411Y3542131D01*
X6588658Y3551631D01*
X6585788Y3560851D01*
X6581825Y3569665D01*
X6576822Y3577945D01*
X6570878Y3585540D01*
X6564045Y3592372D01*
X6556425Y3598341D01*
X6548170Y3603320D01*
X6539356Y3607282D01*
X6530136Y3610178D01*
X6520637Y3611905D01*
X6510985Y3612489D01*
X6501333Y3611905D01*
X6491833Y3610178D01*
X6482613Y3607282D01*
X6473799Y3603320D01*
X6465544Y3598341D01*
X6457924Y3592372D01*
X6451117Y3585540D01*
X6445148Y3577945D01*
X6440144Y3569665D01*
X6436182Y3560851D01*
X6433311Y3551631D01*
X6431559Y3542131D01*
X6430975Y3532504D01*
G37*
G36*
X6176975Y3372485D02*
G01*
X6177559Y3362858D01*
X6179311Y3353358D01*
X6182182Y3344113D01*
X6186144Y3335324D01*
X6191148Y3327044D01*
X6197117Y3319449D01*
X6203950Y3312617D01*
X6211544Y3306648D01*
X6219799Y3301644D01*
X6228613Y3297681D01*
X6237833Y3294811D01*
X6247333Y3293084D01*
X6256985Y3292500D01*
X6266637Y3293084D01*
X6276136Y3294811D01*
X6285356Y3297681D01*
X6294170Y3301644D01*
X6302425Y3306648D01*
X6310045Y3312617D01*
X6316878Y3319449D01*
X6322822Y3327044D01*
X6327825Y3335324D01*
X6331788Y3344113D01*
X6334658Y3353358D01*
X6336411Y3362858D01*
X6336995Y3372485D01*
X6336995Y3532504D01*
X6336411Y3542131D01*
X6334658Y3551631D01*
X6331788Y3560851D01*
X6327825Y3569665D01*
X6322822Y3577945D01*
X6316878Y3585540D01*
X6310045Y3592372D01*
X6302425Y3598341D01*
X6294170Y3603320D01*
X6285356Y3607282D01*
X6276136Y3610178D01*
X6266637Y3611905D01*
X6256985Y3612489D01*
X6247333Y3611905D01*
X6237833Y3610178D01*
X6228613Y3607282D01*
X6219799Y3603320D01*
X6211544Y3598341D01*
X6203950Y3592372D01*
X6197117Y3585540D01*
X6191148Y3577945D01*
X6186144Y3569665D01*
X6182182Y3560851D01*
X6179311Y3551631D01*
X6177559Y3542131D01*
X6176975Y3532504D01*
G37*
G36*
X5923000Y3372485D02*
G01*
X5923559Y3362858D01*
X5925311Y3353358D01*
X5928182Y3344113D01*
X5932144Y3335324D01*
X5937148Y3327044D01*
X5943117Y3319449D01*
X5949950Y3312617D01*
X5957544Y3306648D01*
X5965799Y3301644D01*
X5974613Y3297681D01*
X5983833Y3294811D01*
X5993333Y3293084D01*
X6002985Y3292500D01*
X6012637Y3293084D01*
X6022136Y3294811D01*
X6031356Y3297681D01*
X6040170Y3301644D01*
X6048425Y3306648D01*
X6056045Y3312617D01*
X6062878Y3319449D01*
X6068822Y3327044D01*
X6073825Y3335324D01*
X6077788Y3344113D01*
X6080658Y3353358D01*
X6082411Y3362858D01*
X6082995Y3372485D01*
X6082995Y3532504D01*
X6082411Y3542131D01*
X6080658Y3551631D01*
X6077788Y3560851D01*
X6073825Y3569665D01*
X6068822Y3577945D01*
X6062878Y3585540D01*
X6056045Y3592372D01*
X6048425Y3598341D01*
X6040170Y3603320D01*
X6031356Y3607282D01*
X6022136Y3610178D01*
X6012637Y3611905D01*
X6002985Y3612489D01*
X5993333Y3611905D01*
X5983833Y3610178D01*
X5974613Y3607282D01*
X5965799Y3603320D01*
X5957544Y3598341D01*
X5949950Y3592372D01*
X5943117Y3585540D01*
X5937148Y3577945D01*
X5932144Y3569665D01*
X5928182Y3560851D01*
X5925311Y3551631D01*
X5923559Y3542131D01*
X5923000Y3532504D01*
G37*
G36*
X5669000Y3372485D02*
G01*
X5669559Y3362858D01*
X5671311Y3353358D01*
X5674182Y3344113D01*
X5678144Y3335324D01*
X5683148Y3327044D01*
X5689117Y3319449D01*
X5695950Y3312617D01*
X5703544Y3306648D01*
X5711799Y3301644D01*
X5720613Y3297681D01*
X5729833Y3294811D01*
X5739333Y3293084D01*
X5748985Y3292500D01*
X5758637Y3293084D01*
X5768136Y3294811D01*
X5777356Y3297681D01*
X5786170Y3301644D01*
X5794425Y3306648D01*
X5802045Y3312617D01*
X5808878Y3319449D01*
X5814822Y3327044D01*
X5819825Y3335324D01*
X5823788Y3344113D01*
X5826658Y3353358D01*
X5828411Y3362858D01*
X5828995Y3372485D01*
X5828995Y3532504D01*
X5828411Y3542131D01*
X5826658Y3551631D01*
X5823788Y3560851D01*
X5819825Y3569665D01*
X5814822Y3577945D01*
X5808878Y3585540D01*
X5802045Y3592372D01*
X5794425Y3598341D01*
X5786170Y3603320D01*
X5777356Y3607282D01*
X5768136Y3610178D01*
X5758637Y3611905D01*
X5748985Y3612489D01*
X5739333Y3611905D01*
X5729833Y3610178D01*
X5720613Y3607282D01*
X5711799Y3603320D01*
X5703544Y3598341D01*
X5695950Y3592372D01*
X5689117Y3585540D01*
X5683148Y3577945D01*
X5678144Y3569665D01*
X5674182Y3560851D01*
X5671311Y3551631D01*
X5669559Y3542131D01*
X5669000Y3532504D01*
G37*
D11*
G01*
X5494997Y3452495D03*
G36*
X5161000Y3372485D02*
G01*
X5161584Y3362858D01*
X5163311Y3353358D01*
X5166182Y3344113D01*
X5170144Y3335324D01*
X5175148Y3327044D01*
X5181117Y3319449D01*
X5187950Y3312617D01*
X5195544Y3306648D01*
X5203799Y3301644D01*
X5212613Y3297681D01*
X5221833Y3294811D01*
X5231358Y3293084D01*
X5240985Y3292500D01*
X5250637Y3293084D01*
X5260136Y3294811D01*
X5269356Y3297681D01*
X5278170Y3301644D01*
X5286425Y3306648D01*
X5294045Y3312617D01*
X5300878Y3319449D01*
X5306822Y3327044D01*
X5311825Y3335324D01*
X5315788Y3344113D01*
X5318658Y3353358D01*
X5320411Y3362858D01*
X5320995Y3372485D01*
X5320995Y3532504D01*
X5320411Y3542131D01*
X5318658Y3551631D01*
X5315788Y3560851D01*
X5311825Y3569665D01*
X5306822Y3577945D01*
X5300878Y3585540D01*
X5294045Y3592372D01*
X5286425Y3598341D01*
X5278170Y3603320D01*
X5269356Y3607282D01*
X5260136Y3610178D01*
X5250637Y3611905D01*
X5240985Y3612489D01*
X5231358Y3611905D01*
X5221833Y3610178D01*
X5212613Y3607282D01*
X5203799Y3603320D01*
X5195544Y3598341D01*
X5187950Y3592372D01*
X5181117Y3585540D01*
X5175148Y3577945D01*
X5170144Y3569665D01*
X5166182Y3560851D01*
X5163311Y3551631D01*
X5161584Y3542131D01*
X5161000Y3532504D01*
G37*
G36*
X4907000Y3372485D02*
G01*
X4907584Y3362858D01*
X4909311Y3353358D01*
X4912182Y3344113D01*
X4916144Y3335324D01*
X4921148Y3327044D01*
X4927117Y3319449D01*
X4933950Y3312617D01*
X4941544Y3306648D01*
X4949799Y3301644D01*
X4958613Y3297681D01*
X4967833Y3294811D01*
X4977358Y3293084D01*
X4986985Y3292500D01*
X4996637Y3293084D01*
X5006136Y3294811D01*
X5015356Y3297681D01*
X5024170Y3301644D01*
X5032425Y3306648D01*
X5040045Y3312617D01*
X5046878Y3319449D01*
X5052822Y3327044D01*
X5057825Y3335324D01*
X5061788Y3344113D01*
X5064658Y3353358D01*
X5066411Y3362858D01*
X5066995Y3372485D01*
X5066995Y3532504D01*
X5066411Y3542131D01*
X5064658Y3551631D01*
X5061788Y3560851D01*
X5057825Y3569665D01*
X5052822Y3577945D01*
X5046878Y3585540D01*
X5040045Y3592372D01*
X5032425Y3598341D01*
X5024170Y3603320D01*
X5015356Y3607282D01*
X5006136Y3610178D01*
X4996637Y3611905D01*
X4986985Y3612489D01*
X4977358Y3611905D01*
X4967833Y3610178D01*
X4958613Y3607282D01*
X4949799Y3603320D01*
X4941544Y3598341D01*
X4933950Y3592372D01*
X4927117Y3585540D01*
X4921148Y3577945D01*
X4916144Y3569665D01*
X4912182Y3560851D01*
X4909311Y3551631D01*
X4907584Y3542131D01*
X4907000Y3532504D01*
G37*
G36*
X4907000Y1467485D02*
G01*
X4907584Y1457858D01*
X4909311Y1448358D01*
X4912182Y1439138D01*
X4916144Y1430324D01*
X4921148Y1422044D01*
X4927117Y1414449D01*
X4933950Y1407617D01*
X4941544Y1401648D01*
X4949799Y1396669D01*
X4958613Y1392707D01*
X4967833Y1389811D01*
X4977358Y1388084D01*
X4986985Y1387500D01*
X4996637Y1388084D01*
X5006136Y1389811D01*
X5015356Y1392707D01*
X5024170Y1396669D01*
X5032425Y1401648D01*
X5040045Y1407617D01*
X5046878Y1414449D01*
X5052822Y1422044D01*
X5057825Y1430324D01*
X5061788Y1439138D01*
X5064658Y1448358D01*
X5066411Y1457858D01*
X5066995Y1467485D01*
X5066995Y1627504D01*
X5066411Y1637131D01*
X5064658Y1646631D01*
X5061788Y1655876D01*
X5057825Y1664665D01*
X5052822Y1672945D01*
X5046878Y1680540D01*
X5040045Y1687372D01*
X5032425Y1693341D01*
X5024170Y1698345D01*
X5015356Y1702307D01*
X5006136Y1705178D01*
X4996637Y1706905D01*
X4986985Y1707489D01*
X4977358Y1706905D01*
X4967833Y1705178D01*
X4958613Y1702307D01*
X4949799Y1698345D01*
X4941544Y1693341D01*
X4933950Y1687372D01*
X4927117Y1680540D01*
X4921148Y1672945D01*
X4916144Y1664665D01*
X4912182Y1655876D01*
X4909311Y1646631D01*
X4907584Y1637131D01*
X4907000Y1627504D01*
G37*
G36*
X5161000Y1467485D02*
G01*
X5161584Y1457858D01*
X5163311Y1448358D01*
X5166182Y1439138D01*
X5170144Y1430324D01*
X5175148Y1422044D01*
X5181117Y1414449D01*
X5187950Y1407617D01*
X5195544Y1401648D01*
X5203799Y1396669D01*
X5212613Y1392707D01*
X5221833Y1389811D01*
X5231358Y1388084D01*
X5240985Y1387500D01*
X5250637Y1388084D01*
X5260136Y1389811D01*
X5269356Y1392707D01*
X5278170Y1396669D01*
X5286425Y1401648D01*
X5294045Y1407617D01*
X5300878Y1414449D01*
X5306822Y1422044D01*
X5311825Y1430324D01*
X5315788Y1439138D01*
X5318658Y1448358D01*
X5320411Y1457858D01*
X5320995Y1467485D01*
X5320995Y1627504D01*
X5320411Y1637131D01*
X5318658Y1646631D01*
X5315788Y1655876D01*
X5311825Y1664665D01*
X5306822Y1672945D01*
X5300878Y1680540D01*
X5294045Y1687372D01*
X5286425Y1693341D01*
X5278170Y1698345D01*
X5269356Y1702307D01*
X5260136Y1705178D01*
X5250637Y1706905D01*
X5240985Y1707489D01*
X5231358Y1706905D01*
X5221833Y1705178D01*
X5212613Y1702307D01*
X5203799Y1698345D01*
X5195544Y1693341D01*
X5187950Y1687372D01*
X5181117Y1680540D01*
X5175148Y1672945D01*
X5170144Y1664665D01*
X5166182Y1655876D01*
X5163311Y1646631D01*
X5161584Y1637131D01*
X5161000Y1627504D01*
G37*
G01*
X5494997Y1547495D03*
G36*
X5669000Y1467485D02*
G01*
X5669559Y1457858D01*
X5671311Y1448358D01*
X5674182Y1439138D01*
X5678144Y1430324D01*
X5683148Y1422044D01*
X5689117Y1414449D01*
X5695950Y1407617D01*
X5703544Y1401648D01*
X5711799Y1396669D01*
X5720613Y1392707D01*
X5729833Y1389811D01*
X5739333Y1388084D01*
X5748985Y1387500D01*
X5758637Y1388084D01*
X5768136Y1389811D01*
X5777356Y1392707D01*
X5786170Y1396669D01*
X5794425Y1401648D01*
X5802045Y1407617D01*
X5808878Y1414449D01*
X5814822Y1422044D01*
X5819825Y1430324D01*
X5823788Y1439138D01*
X5826658Y1448358D01*
X5828411Y1457858D01*
X5828995Y1467485D01*
X5828995Y1627504D01*
X5828411Y1637131D01*
X5826658Y1646631D01*
X5823788Y1655876D01*
X5819825Y1664665D01*
X5814822Y1672945D01*
X5808878Y1680540D01*
X5802045Y1687372D01*
X5794425Y1693341D01*
X5786170Y1698345D01*
X5777356Y1702307D01*
X5768136Y1705178D01*
X5758637Y1706905D01*
X5748985Y1707489D01*
X5739333Y1706905D01*
X5729833Y1705178D01*
X5720613Y1702307D01*
X5711799Y1698345D01*
X5703544Y1693341D01*
X5695950Y1687372D01*
X5689117Y1680540D01*
X5683148Y1672945D01*
X5678144Y1664665D01*
X5674182Y1655876D01*
X5671311Y1646631D01*
X5669559Y1637131D01*
X5669000Y1627504D01*
G37*
G36*
X5923000Y1467485D02*
G01*
X5923559Y1457858D01*
X5925311Y1448358D01*
X5928182Y1439138D01*
X5932144Y1430324D01*
X5937148Y1422044D01*
X5943117Y1414449D01*
X5949950Y1407617D01*
X5957544Y1401648D01*
X5965799Y1396669D01*
X5974613Y1392707D01*
X5983833Y1389811D01*
X5993333Y1388084D01*
X6002985Y1387500D01*
X6012637Y1388084D01*
X6022136Y1389811D01*
X6031356Y1392707D01*
X6040170Y1396669D01*
X6048425Y1401648D01*
X6056045Y1407617D01*
X6062878Y1414449D01*
X6068822Y1422044D01*
X6073825Y1430324D01*
X6077788Y1439138D01*
X6080658Y1448358D01*
X6082411Y1457858D01*
X6082995Y1467485D01*
X6082995Y1627504D01*
X6082411Y1637131D01*
X6080658Y1646631D01*
X6077788Y1655876D01*
X6073825Y1664665D01*
X6068822Y1672945D01*
X6062878Y1680540D01*
X6056045Y1687372D01*
X6048425Y1693341D01*
X6040170Y1698345D01*
X6031356Y1702307D01*
X6022136Y1705178D01*
X6012637Y1706905D01*
X6002985Y1707489D01*
X5993333Y1706905D01*
X5983833Y1705178D01*
X5974613Y1702307D01*
X5965799Y1698345D01*
X5957544Y1693341D01*
X5949950Y1687372D01*
X5943117Y1680540D01*
X5937148Y1672945D01*
X5932144Y1664665D01*
X5928182Y1655876D01*
X5925311Y1646631D01*
X5923559Y1637131D01*
X5923000Y1627504D01*
G37*
G36*
X6176975Y1467485D02*
G01*
X6177559Y1457858D01*
X6179311Y1448358D01*
X6182182Y1439138D01*
X6186144Y1430324D01*
X6191148Y1422044D01*
X6197117Y1414449D01*
X6203950Y1407617D01*
X6211544Y1401648D01*
X6219799Y1396669D01*
X6228613Y1392707D01*
X6237833Y1389811D01*
X6247333Y1388084D01*
X6256985Y1387500D01*
X6266637Y1388084D01*
X6276136Y1389811D01*
X6285356Y1392707D01*
X6294170Y1396669D01*
X6302425Y1401648D01*
X6310045Y1407617D01*
X6316878Y1414449D01*
X6322822Y1422044D01*
X6327825Y1430324D01*
X6331788Y1439138D01*
X6334658Y1448358D01*
X6336411Y1457858D01*
X6336995Y1467485D01*
X6336995Y1627504D01*
X6336411Y1637131D01*
X6334658Y1646631D01*
X6331788Y1655876D01*
X6327825Y1664665D01*
X6322822Y1672945D01*
X6316878Y1680540D01*
X6310045Y1687372D01*
X6302425Y1693341D01*
X6294170Y1698345D01*
X6285356Y1702307D01*
X6276136Y1705178D01*
X6266637Y1706905D01*
X6256985Y1707489D01*
X6247333Y1706905D01*
X6237833Y1705178D01*
X6228613Y1702307D01*
X6219799Y1698345D01*
X6211544Y1693341D01*
X6203950Y1687372D01*
X6197117Y1680540D01*
X6191148Y1672945D01*
X6186144Y1664665D01*
X6182182Y1655876D01*
X6179311Y1646631D01*
X6177559Y1637131D01*
X6176975Y1627504D01*
G37*
G36*
X6430975Y1467485D02*
G01*
X6431559Y1457858D01*
X6433311Y1448358D01*
X6436182Y1439138D01*
X6440144Y1430324D01*
X6445148Y1422044D01*
X6451117Y1414449D01*
X6457924Y1407617D01*
X6465544Y1401648D01*
X6473799Y1396669D01*
X6482613Y1392707D01*
X6491833Y1389811D01*
X6501333Y1388084D01*
X6510985Y1387500D01*
X6520637Y1388084D01*
X6530136Y1389811D01*
X6539356Y1392707D01*
X6548170Y1396669D01*
X6556425Y1401648D01*
X6564045Y1407617D01*
X6570878Y1414449D01*
X6576822Y1422044D01*
X6581825Y1430324D01*
X6585788Y1439138D01*
X6588658Y1448358D01*
X6590411Y1457858D01*
X6590995Y1467485D01*
X6590995Y1627504D01*
X6590411Y1637131D01*
X6588658Y1646631D01*
X6585788Y1655876D01*
X6581825Y1664665D01*
X6576822Y1672945D01*
X6570878Y1680540D01*
X6564045Y1687372D01*
X6556425Y1693341D01*
X6548170Y1698345D01*
X6539356Y1702307D01*
X6530136Y1705178D01*
X6520637Y1706905D01*
X6510985Y1707489D01*
X6501333Y1706905D01*
X6491833Y1705178D01*
X6482613Y1702307D01*
X6473799Y1698345D01*
X6465544Y1693341D01*
X6457924Y1687372D01*
X6451117Y1680540D01*
X6445148Y1672945D01*
X6440144Y1664665D01*
X6436182Y1655876D01*
X6433311Y1646631D01*
X6431559Y1637131D01*
X6430975Y1627504D01*
G37*
D12*
G01*
X6764985Y1547495D03*
G36*
X6938975Y1467485D02*
G01*
X6939559Y1457858D01*
X6941311Y1448358D01*
X6944182Y1439138D01*
X6948144Y1430324D01*
X6953148Y1422044D01*
X6959117Y1414449D01*
X6965924Y1407617D01*
X6973544Y1401648D01*
X6981799Y1396669D01*
X6990613Y1392707D01*
X6999833Y1389811D01*
X7009333Y1388084D01*
X7018985Y1387500D01*
X7028637Y1388084D01*
X7038136Y1389811D01*
X7047356Y1392707D01*
X7056170Y1396669D01*
X7064425Y1401648D01*
X7072045Y1407617D01*
X7078878Y1414449D01*
X7084822Y1422044D01*
X7089825Y1430324D01*
X7093788Y1439138D01*
X7096658Y1448358D01*
X7098411Y1457858D01*
X7098995Y1467485D01*
X7098995Y1627504D01*
X7098411Y1637131D01*
X7096658Y1646631D01*
X7093788Y1655876D01*
X7089825Y1664665D01*
X7084822Y1672945D01*
X7078878Y1680540D01*
X7072045Y1687372D01*
X7064425Y1693341D01*
X7056170Y1698345D01*
X7047356Y1702307D01*
X7038136Y1705178D01*
X7028637Y1706905D01*
X7018985Y1707489D01*
X7009333Y1706905D01*
X6999833Y1705178D01*
X6990613Y1702307D01*
X6981799Y1698345D01*
X6973544Y1693341D01*
X6965924Y1687372D01*
X6959117Y1680540D01*
X6953148Y1672945D01*
X6948144Y1664665D01*
X6944182Y1655876D01*
X6941311Y1646631D01*
X6939559Y1637131D01*
X6938975Y1627504D01*
G37*
G36*
X7192975Y1467485D02*
G01*
X7193559Y1457858D01*
X7195311Y1448358D01*
X7198182Y1439138D01*
X7202144Y1430324D01*
X7207148Y1422044D01*
X7213117Y1414449D01*
X7219924Y1407617D01*
X7227544Y1401648D01*
X7235799Y1396669D01*
X7244613Y1392707D01*
X7253833Y1389811D01*
X7263333Y1388084D01*
X7272985Y1387500D01*
X7282637Y1388084D01*
X7292136Y1389811D01*
X7301356Y1392707D01*
X7310170Y1396669D01*
X7318425Y1401648D01*
X7326045Y1407617D01*
X7332878Y1414449D01*
X7338822Y1422044D01*
X7343825Y1430324D01*
X7347788Y1439138D01*
X7350658Y1448358D01*
X7352411Y1457858D01*
X7352995Y1467485D01*
X7352995Y1627504D01*
X7352411Y1637131D01*
X7350658Y1646631D01*
X7347788Y1655876D01*
X7343825Y1664665D01*
X7338822Y1672945D01*
X7332878Y1680540D01*
X7326045Y1687372D01*
X7318425Y1693341D01*
X7310170Y1698345D01*
X7301356Y1702307D01*
X7292136Y1705178D01*
X7282637Y1706905D01*
X7272985Y1707489D01*
X7263333Y1706905D01*
X7253833Y1705178D01*
X7244613Y1702307D01*
X7235799Y1698345D01*
X7227544Y1693341D01*
X7219924Y1687372D01*
X7213117Y1680540D01*
X7207148Y1672945D01*
X7202144Y1664665D01*
X7198182Y1655876D01*
X7195311Y1646631D01*
X7193559Y1637131D01*
X7192975Y1627504D01*
G37*
G36*
X7446975Y1467485D02*
G01*
X7447559Y1457858D01*
X7449311Y1448358D01*
X7452182Y1439138D01*
X7456144Y1430324D01*
X7461148Y1422044D01*
X7467091Y1414449D01*
X7473924Y1407617D01*
X7481544Y1401648D01*
X7489799Y1396669D01*
X7498613Y1392707D01*
X7507833Y1389811D01*
X7517333Y1388084D01*
X7526985Y1387500D01*
X7536637Y1388084D01*
X7546136Y1389811D01*
X7555356Y1392707D01*
X7564170Y1396669D01*
X7572425Y1401648D01*
X7580045Y1407617D01*
X7586852Y1414449D01*
X7592822Y1422044D01*
X7597825Y1430324D01*
X7601788Y1439138D01*
X7604658Y1448358D01*
X7606411Y1457858D01*
X7606995Y1467485D01*
X7606995Y1627504D01*
X7606411Y1637131D01*
X7604658Y1646631D01*
X7601788Y1655876D01*
X7597825Y1664665D01*
X7592822Y1672945D01*
X7586852Y1680540D01*
X7580045Y1687372D01*
X7572425Y1693341D01*
X7564170Y1698345D01*
X7555356Y1702307D01*
X7546136Y1705178D01*
X7536637Y1706905D01*
X7526985Y1707489D01*
X7517333Y1706905D01*
X7507833Y1705178D01*
X7498613Y1702307D01*
X7489799Y1698345D01*
X7481544Y1693341D01*
X7473924Y1687372D01*
X7467091Y1680540D01*
X7461148Y1672945D01*
X7456144Y1664665D01*
X7452182Y1655876D01*
X7449311Y1646631D01*
X7447559Y1637131D01*
X7446975Y1627504D01*
G37*
G36*
X7700975Y1467485D02*
G01*
X7701559Y1457858D01*
X7703311Y1448358D01*
X7706182Y1439138D01*
X7710144Y1430324D01*
X7715148Y1422044D01*
X7721091Y1414449D01*
X7727924Y1407617D01*
X7735544Y1401648D01*
X7743799Y1396669D01*
X7752613Y1392707D01*
X7761833Y1389811D01*
X7771333Y1388084D01*
X7780985Y1387500D01*
X7790637Y1388084D01*
X7800136Y1389811D01*
X7809356Y1392707D01*
X7818170Y1396669D01*
X7826425Y1401648D01*
X7834045Y1407617D01*
X7840852Y1414449D01*
X7846822Y1422044D01*
X7851825Y1430324D01*
X7855788Y1439138D01*
X7858658Y1448358D01*
X7860411Y1457858D01*
X7860995Y1467485D01*
X7860995Y1627504D01*
X7860411Y1637131D01*
X7858658Y1646631D01*
X7855788Y1655876D01*
X7851825Y1664665D01*
X7846822Y1672945D01*
X7840852Y1680540D01*
X7834045Y1687372D01*
X7826425Y1693341D01*
X7818170Y1698345D01*
X7809356Y1702307D01*
X7800136Y1705178D01*
X7790637Y1706905D01*
X7780985Y1707489D01*
X7771333Y1706905D01*
X7761833Y1705178D01*
X7752613Y1702307D01*
X7743799Y1698345D01*
X7735544Y1693341D01*
X7727924Y1687372D01*
X7721091Y1680540D01*
X7715148Y1672945D01*
X7710144Y1664665D01*
X7706182Y1655876D01*
X7703311Y1646631D01*
X7701559Y1637131D01*
X7700975Y1627504D01*
G37*
G01*
X8034985Y1547495D03*
G36*
X8208975Y1467485D02*
G01*
X8209559Y1457858D01*
X8211311Y1448358D01*
X8214182Y1439138D01*
X8218144Y1430324D01*
X8223148Y1422044D01*
X8229091Y1414449D01*
X8235924Y1407617D01*
X8243544Y1401648D01*
X8251799Y1396669D01*
X8260613Y1392707D01*
X8269833Y1389811D01*
X8279333Y1388084D01*
X8288985Y1387500D01*
X8298637Y1388084D01*
X8308136Y1389811D01*
X8317356Y1392707D01*
X8326170Y1396669D01*
X8334425Y1401648D01*
X8342045Y1407617D01*
X8348852Y1414449D01*
X8354822Y1422044D01*
X8359825Y1430324D01*
X8363788Y1439138D01*
X8366658Y1448358D01*
X8368411Y1457858D01*
X8368995Y1467485D01*
X8368995Y1627504D01*
X8368411Y1637131D01*
X8366658Y1646631D01*
X8363788Y1655876D01*
X8359825Y1664665D01*
X8354822Y1672945D01*
X8348852Y1680540D01*
X8342045Y1687372D01*
X8334425Y1693341D01*
X8326170Y1698345D01*
X8317356Y1702307D01*
X8308136Y1705178D01*
X8298637Y1706905D01*
X8288985Y1707489D01*
X8279333Y1706905D01*
X8269833Y1705178D01*
X8260613Y1702307D01*
X8251799Y1698345D01*
X8243544Y1693341D01*
X8235924Y1687372D01*
X8229091Y1680540D01*
X8223148Y1672945D01*
X8218144Y1664665D01*
X8214182Y1655876D01*
X8211311Y1646631D01*
X8209559Y1637131D01*
X8208975Y1627504D01*
G37*
G36*
X8462975Y1467485D02*
G01*
X8463559Y1457858D01*
X8465311Y1448358D01*
X8468182Y1439138D01*
X8472144Y1430324D01*
X8477148Y1422044D01*
X8483091Y1414449D01*
X8489924Y1407617D01*
X8497544Y1401648D01*
X8505799Y1396669D01*
X8514613Y1392707D01*
X8523833Y1389811D01*
X8533333Y1388084D01*
X8542985Y1387500D01*
X8552637Y1388084D01*
X8562136Y1389811D01*
X8571356Y1392707D01*
X8580170Y1396669D01*
X8588425Y1401648D01*
X8596020Y1407617D01*
X8602852Y1414449D01*
X8608822Y1422044D01*
X8613825Y1430324D01*
X8617788Y1439138D01*
X8620658Y1448358D01*
X8622411Y1457858D01*
X8622995Y1467485D01*
X8622995Y1627504D01*
X8622411Y1637131D01*
X8620658Y1646631D01*
X8617788Y1655876D01*
X8613825Y1664665D01*
X8608822Y1672945D01*
X8602852Y1680540D01*
X8596020Y1687372D01*
X8588425Y1693341D01*
X8580170Y1698345D01*
X8571356Y1702307D01*
X8562136Y1705178D01*
X8552637Y1706905D01*
X8542985Y1707489D01*
X8533333Y1706905D01*
X8523833Y1705178D01*
X8514613Y1702307D01*
X8505799Y1698345D01*
X8497544Y1693341D01*
X8489924Y1687372D01*
X8483091Y1680540D01*
X8477148Y1672945D01*
X8472144Y1664665D01*
X8468182Y1655876D01*
X8465311Y1646631D01*
X8463559Y1637131D01*
X8462975Y1627504D01*
G37*
G36*
X8716975Y1467485D02*
G01*
X8717559Y1457858D01*
X8719311Y1448358D01*
X8722182Y1439138D01*
X8726144Y1430324D01*
X8731148Y1422044D01*
X8737091Y1414449D01*
X8743924Y1407617D01*
X8751544Y1401648D01*
X8759799Y1396669D01*
X8768613Y1392707D01*
X8777833Y1389811D01*
X8787333Y1388084D01*
X8796985Y1387500D01*
X8806637Y1388084D01*
X8816136Y1389811D01*
X8825356Y1392707D01*
X8834170Y1396669D01*
X8842425Y1401648D01*
X8850020Y1407617D01*
X8856852Y1414449D01*
X8862822Y1422044D01*
X8867825Y1430324D01*
X8871788Y1439138D01*
X8874658Y1448358D01*
X8876411Y1457858D01*
X8876969Y1467485D01*
X8876969Y1627504D01*
X8876411Y1637131D01*
X8874658Y1646631D01*
X8871788Y1655876D01*
X8867825Y1664665D01*
X8862822Y1672945D01*
X8856852Y1680540D01*
X8850020Y1687372D01*
X8842425Y1693341D01*
X8834170Y1698345D01*
X8825356Y1702307D01*
X8816136Y1705178D01*
X8806637Y1706905D01*
X8796985Y1707489D01*
X8787333Y1706905D01*
X8777833Y1705178D01*
X8768613Y1702307D01*
X8759799Y1698345D01*
X8751544Y1693341D01*
X8743924Y1687372D01*
X8737091Y1680540D01*
X8731148Y1672945D01*
X8726144Y1664665D01*
X8722182Y1655876D01*
X8719311Y1646631D01*
X8717559Y1637131D01*
X8716975Y1627504D01*
G37*
G36*
X8970975Y1467485D02*
G01*
X8971559Y1457858D01*
X8973311Y1448358D01*
X8976182Y1439138D01*
X8980144Y1430324D01*
X8985148Y1422044D01*
X8991091Y1414449D01*
X8997924Y1407617D01*
X9005544Y1401648D01*
X9013799Y1396669D01*
X9022613Y1392707D01*
X9031833Y1389811D01*
X9041333Y1388084D01*
X9050985Y1387500D01*
X9060637Y1388084D01*
X9070136Y1389811D01*
X9079356Y1392707D01*
X9088170Y1396669D01*
X9096425Y1401648D01*
X9104020Y1407617D01*
X9110852Y1414449D01*
X9116822Y1422044D01*
X9121825Y1430324D01*
X9125788Y1439138D01*
X9128658Y1448358D01*
X9130411Y1457858D01*
X9130969Y1467485D01*
X9130969Y1627504D01*
X9130411Y1637131D01*
X9128658Y1646631D01*
X9125788Y1655876D01*
X9121825Y1664665D01*
X9116822Y1672945D01*
X9110852Y1680540D01*
X9104020Y1687372D01*
X9096425Y1693341D01*
X9088170Y1698345D01*
X9079356Y1702307D01*
X9070136Y1705178D01*
X9060637Y1706905D01*
X9050985Y1707489D01*
X9041333Y1706905D01*
X9031833Y1705178D01*
X9022613Y1702307D01*
X9013799Y1698345D01*
X9005544Y1693341D01*
X8997924Y1687372D01*
X8991091Y1680540D01*
X8985148Y1672945D01*
X8980144Y1664665D01*
X8976182Y1655876D01*
X8973311Y1646631D01*
X8971559Y1637131D01*
X8970975Y1627504D01*
G37*
D11*
G01*
X9304972Y1547495D03*
G36*
X9478975Y1467485D02*
G01*
X9479559Y1457858D01*
X9481311Y1448358D01*
X9484182Y1439138D01*
X9488144Y1430324D01*
X9493148Y1422044D01*
X9499091Y1414449D01*
X9505924Y1407617D01*
X9513544Y1401648D01*
X9521799Y1396669D01*
X9530613Y1392707D01*
X9539833Y1389811D01*
X9549333Y1388084D01*
X9558985Y1387500D01*
X9568611Y1388084D01*
X9578136Y1389811D01*
X9587356Y1392707D01*
X9596170Y1396669D01*
X9604425Y1401648D01*
X9612020Y1407617D01*
X9618852Y1414449D01*
X9624822Y1422044D01*
X9629825Y1430324D01*
X9633788Y1439138D01*
X9636658Y1448358D01*
X9638385Y1457858D01*
X9638969Y1467485D01*
X9638969Y1627504D01*
X9638385Y1637131D01*
X9636658Y1646631D01*
X9633788Y1655876D01*
X9629825Y1664665D01*
X9624822Y1672945D01*
X9618852Y1680540D01*
X9612020Y1687372D01*
X9604425Y1693341D01*
X9596170Y1698345D01*
X9587356Y1702307D01*
X9578136Y1705178D01*
X9568611Y1706905D01*
X9558985Y1707489D01*
X9549333Y1706905D01*
X9539833Y1705178D01*
X9530613Y1702307D01*
X9521799Y1698345D01*
X9513544Y1693341D01*
X9505924Y1687372D01*
X9499091Y1680540D01*
X9493148Y1672945D01*
X9488144Y1664665D01*
X9484182Y1655876D01*
X9481311Y1646631D01*
X9479559Y1637131D01*
X9478975Y1627504D01*
G37*
G36*
X9732975Y1467485D02*
G01*
X9733559Y1457858D01*
X9735311Y1448358D01*
X9738182Y1439138D01*
X9742144Y1430324D01*
X9747148Y1422044D01*
X9753091Y1414449D01*
X9759924Y1407617D01*
X9767544Y1401648D01*
X9775799Y1396669D01*
X9784613Y1392707D01*
X9793833Y1389811D01*
X9803333Y1388084D01*
X9812985Y1387500D01*
X9822611Y1388084D01*
X9832136Y1389811D01*
X9841356Y1392707D01*
X9850170Y1396669D01*
X9858425Y1401648D01*
X9866020Y1407617D01*
X9872852Y1414449D01*
X9878822Y1422044D01*
X9883825Y1430324D01*
X9887788Y1439138D01*
X9890658Y1448358D01*
X9892385Y1457858D01*
X9892969Y1467485D01*
X9892969Y1627504D01*
X9892385Y1637131D01*
X9890658Y1646631D01*
X9887788Y1655876D01*
X9883825Y1664665D01*
X9878822Y1672945D01*
X9872852Y1680540D01*
X9866020Y1687372D01*
X9858425Y1693341D01*
X9850170Y1698345D01*
X9841356Y1702307D01*
X9832136Y1705178D01*
X9822611Y1706905D01*
X9812985Y1707489D01*
X9803333Y1706905D01*
X9793833Y1705178D01*
X9784613Y1702307D01*
X9775799Y1698345D01*
X9767544Y1693341D01*
X9759924Y1687372D01*
X9753091Y1680540D01*
X9747148Y1672945D01*
X9742144Y1664665D01*
X9738182Y1655876D01*
X9735311Y1646631D01*
X9733559Y1637131D01*
X9732975Y1627504D01*
G37*
G36*
X5066995Y2419985D02*
G01*
X5076621Y2420569D01*
X5086146Y2422321D01*
X5095366Y2425192D01*
X5104155Y2429154D01*
X5112435Y2434158D01*
X5120030Y2440101D01*
X5126863Y2446934D01*
X5132831Y2454554D01*
X5137835Y2462809D01*
X5141798Y2471623D01*
X5144668Y2480843D01*
X5146395Y2490343D01*
X5146979Y2499995D01*
X5146395Y2509646D01*
X5144668Y2519146D01*
X5141798Y2528366D01*
X5137835Y2537180D01*
X5132831Y2545435D01*
X5126863Y2553055D01*
X5120030Y2559888D01*
X5112435Y2565831D01*
X5104155Y2570835D01*
X5095366Y2574797D01*
X5086146Y2577668D01*
X5076621Y2579420D01*
X5066995Y2580004D01*
X4907000Y2580004D01*
X4897348Y2579420D01*
X4887849Y2577668D01*
X4878628Y2574797D01*
X4869815Y2570835D01*
X4861534Y2565831D01*
X4853940Y2559888D01*
X4847107Y2553055D01*
X4841163Y2545435D01*
X4836159Y2537180D01*
X4832197Y2528366D01*
X4829327Y2519146D01*
X4827574Y2509646D01*
X4826990Y2499995D01*
X4827574Y2490343D01*
X4829327Y2480843D01*
X4832197Y2471623D01*
X4836159Y2462809D01*
X4841163Y2454554D01*
X4847107Y2446934D01*
X4853940Y2440101D01*
X4861534Y2434158D01*
X4869815Y2429154D01*
X4878628Y2425192D01*
X4887849Y2422321D01*
X4897348Y2420569D01*
X4907000Y2419985D01*
G37*
G36*
X5066995Y2165985D02*
G01*
X5076621Y2166569D01*
X5086146Y2168321D01*
X5095366Y2171192D01*
X5104155Y2175154D01*
X5112435Y2180158D01*
X5120030Y2186127D01*
X5126863Y2192934D01*
X5132831Y2200554D01*
X5137835Y2208809D01*
X5141798Y2217623D01*
X5144668Y2226843D01*
X5146395Y2236343D01*
X5146979Y2245995D01*
X5146395Y2255646D01*
X5144668Y2265146D01*
X5141798Y2274366D01*
X5137835Y2283180D01*
X5132831Y2291435D01*
X5126863Y2299055D01*
X5120030Y2305888D01*
X5112435Y2311831D01*
X5104155Y2316835D01*
X5095366Y2320797D01*
X5086146Y2323668D01*
X5076621Y2325420D01*
X5066995Y2326004D01*
X4907000Y2326004D01*
X4897348Y2325420D01*
X4887849Y2323668D01*
X4878628Y2320797D01*
X4869815Y2316835D01*
X4861534Y2311831D01*
X4853940Y2305888D01*
X4847107Y2299055D01*
X4841163Y2291435D01*
X4836159Y2283180D01*
X4832197Y2274366D01*
X4829327Y2265146D01*
X4827574Y2255646D01*
X4826990Y2245995D01*
X4827574Y2236343D01*
X4829327Y2226843D01*
X4832197Y2217623D01*
X4836159Y2208809D01*
X4841163Y2200554D01*
X4847107Y2192934D01*
X4853940Y2186127D01*
X4861534Y2180158D01*
X4869815Y2175154D01*
X4878628Y2171192D01*
X4887849Y2168321D01*
X4897348Y2166569D01*
X4907000Y2165985D01*
G37*
G36*
X5066995Y2673985D02*
G01*
X5076621Y2674569D01*
X5086146Y2676321D01*
X5095366Y2679192D01*
X5104155Y2683154D01*
X5112435Y2688158D01*
X5120030Y2694101D01*
X5126863Y2700934D01*
X5132831Y2708554D01*
X5137835Y2716809D01*
X5141798Y2725623D01*
X5144668Y2734843D01*
X5146395Y2744343D01*
X5146979Y2753995D01*
X5146395Y2763646D01*
X5144668Y2773146D01*
X5141798Y2782366D01*
X5137835Y2791180D01*
X5132831Y2799435D01*
X5126863Y2807055D01*
X5120030Y2813862D01*
X5112435Y2819831D01*
X5104155Y2824835D01*
X5095366Y2828797D01*
X5086146Y2831668D01*
X5076621Y2833420D01*
X5066995Y2834004D01*
X4907000Y2834004D01*
X4897348Y2833420D01*
X4887849Y2831668D01*
X4878628Y2828797D01*
X4869815Y2824835D01*
X4861534Y2819831D01*
X4853940Y2813862D01*
X4847107Y2807055D01*
X4841163Y2799435D01*
X4836159Y2791180D01*
X4832197Y2782366D01*
X4829327Y2773146D01*
X4827574Y2763646D01*
X4826990Y2753995D01*
X4827574Y2744343D01*
X4829327Y2734843D01*
X4832197Y2725623D01*
X4836159Y2716809D01*
X4841163Y2708554D01*
X4847107Y2700934D01*
X4853940Y2694101D01*
X4861534Y2688158D01*
X4869815Y2683154D01*
X4878628Y2679192D01*
X4887849Y2676321D01*
X4897348Y2674569D01*
X4907000Y2673985D01*
G37*
M02*
