G04 Layer: TopLayer*
G04 EasyEDA v6.5.20, 2023-09-17 03:17:05*
G04 a67cddfb3fce44daa9051d46cbbcc19f,10*
G04 Gerber Generator version 0.2*
G04 Scale: 100 percent, Rotated: No, Reflected: No *
G04 Dimensions in millimeters *
G04 leading zeros omitted , absolute positions ,4 integer and 5 decimal *
%FSLAX45Y45*%
%MOMM*%

%ADD10C,0.2540*%
%ADD11C,1.0000*%
%ADD12C,0.3000*%
%ADD13C,1.1000*%
%ADD14R,1.5748X1.5748*%
%ADD15C,1.5748*%
%ADD16C,1.5240*%
%ADD17C,0.6096*%
%ADD18C,0.6100*%
%ADD19C,0.0106*%

%LPD*%
G36*
X726033Y25908D02*
G01*
X722172Y26670D01*
X718921Y28803D01*
X716686Y32004D01*
X715873Y35864D01*
X716534Y39674D01*
X718616Y43027D01*
X721766Y45313D01*
X725373Y46939D01*
X752805Y61722D01*
X779272Y78130D01*
X804672Y96164D01*
X828954Y115722D01*
X851916Y136702D01*
X873607Y159105D01*
X893826Y182778D01*
X912571Y207670D01*
X929741Y233629D01*
X945286Y260654D01*
X959103Y288544D01*
X971194Y317246D01*
X981506Y346659D01*
X989990Y376631D01*
X996594Y407060D01*
X1001268Y437845D01*
X1004112Y468884D01*
X1004976Y499973D01*
X1004112Y531114D01*
X1001268Y562152D01*
X996594Y592937D01*
X989990Y623366D01*
X981506Y653338D01*
X971194Y682752D01*
X959103Y711454D01*
X945286Y739343D01*
X929741Y766368D01*
X912571Y792327D01*
X893826Y817219D01*
X873607Y840892D01*
X851916Y863295D01*
X828954Y884275D01*
X804672Y903833D01*
X779272Y921867D01*
X752805Y938276D01*
X725373Y953058D01*
X697077Y966063D01*
X668070Y977341D01*
X638403Y986790D01*
X608177Y994410D01*
X577545Y1000150D01*
X546658Y1003960D01*
X515569Y1005890D01*
X484428Y1005890D01*
X453339Y1003960D01*
X422401Y1000150D01*
X391820Y994410D01*
X361594Y986790D01*
X331927Y977341D01*
X302869Y966063D01*
X274624Y953058D01*
X247192Y938276D01*
X220725Y921867D01*
X195275Y903833D01*
X171043Y884275D01*
X148031Y863295D01*
X126390Y840892D01*
X106172Y817219D01*
X87426Y792327D01*
X70256Y766368D01*
X54711Y739343D01*
X45161Y720090D01*
X42316Y716584D01*
X38252Y714705D01*
X33731Y714705D01*
X29718Y716686D01*
X26924Y720242D01*
X25908Y724611D01*
X25908Y9275368D01*
X26924Y9279737D01*
X29718Y9283293D01*
X33731Y9285274D01*
X38252Y9285274D01*
X42316Y9283395D01*
X45161Y9279890D01*
X54711Y9260636D01*
X70256Y9233611D01*
X87426Y9207652D01*
X106172Y9182760D01*
X126390Y9159087D01*
X148031Y9136684D01*
X171043Y9115704D01*
X195275Y9096146D01*
X220725Y9078112D01*
X247192Y9061704D01*
X274624Y9046921D01*
X302869Y9033916D01*
X331927Y9022638D01*
X361594Y9013190D01*
X391820Y9005570D01*
X422401Y8999829D01*
X453339Y8996019D01*
X484428Y8994089D01*
X515569Y8994089D01*
X546658Y8996019D01*
X577545Y8999829D01*
X608177Y9005570D01*
X638403Y9013190D01*
X668070Y9022638D01*
X697077Y9033916D01*
X725373Y9046921D01*
X752805Y9061704D01*
X779272Y9078112D01*
X804672Y9096146D01*
X828954Y9115704D01*
X851916Y9136684D01*
X873607Y9159087D01*
X893826Y9182760D01*
X912571Y9207652D01*
X929741Y9233611D01*
X945286Y9260636D01*
X959103Y9288526D01*
X971194Y9317228D01*
X981506Y9346641D01*
X989990Y9376613D01*
X996594Y9407042D01*
X1001268Y9437827D01*
X1004112Y9468866D01*
X1004976Y9499955D01*
X1004112Y9531096D01*
X1001268Y9562134D01*
X996594Y9592919D01*
X989990Y9623348D01*
X981506Y9653320D01*
X971194Y9682734D01*
X959103Y9711436D01*
X945286Y9739325D01*
X929741Y9766350D01*
X912571Y9792309D01*
X893826Y9817201D01*
X873607Y9840874D01*
X851916Y9863277D01*
X828954Y9884257D01*
X804672Y9903815D01*
X779272Y9921849D01*
X752805Y9938258D01*
X725373Y9953040D01*
X721766Y9954666D01*
X718616Y9956952D01*
X716534Y9960305D01*
X715873Y9964115D01*
X716686Y9967976D01*
X718921Y9971176D01*
X722172Y9973310D01*
X726033Y9974072D01*
X6382461Y9974072D01*
X6386525Y9973208D01*
X6389878Y9970820D01*
X6392011Y9967264D01*
X6392570Y9963150D01*
X6391402Y9959187D01*
X6388760Y9955987D01*
X6385052Y9954107D01*
X6380734Y9952939D01*
X6371793Y9948773D01*
X6363766Y9943134D01*
X6362090Y9941509D01*
X6358788Y9939274D01*
X6354927Y9938512D01*
X4900930Y9938512D01*
X4892903Y9937750D01*
X4885690Y9935514D01*
X4879035Y9931958D01*
X4872786Y9926878D01*
X4522978Y9577578D01*
X4517847Y9571329D01*
X4514291Y9564674D01*
X4512106Y9557461D01*
X4511294Y9549434D01*
X4511294Y9401403D01*
X4510684Y9398000D01*
X4509008Y9395002D01*
X4506417Y9392716D01*
X4503064Y9390634D01*
X4493971Y9383115D01*
X4486097Y9374276D01*
X4479594Y9364472D01*
X4474565Y9353753D01*
X4471162Y9342475D01*
X4469434Y9330791D01*
X4469434Y9318955D01*
X4471162Y9307271D01*
X4474565Y9295993D01*
X4479594Y9285274D01*
X4486097Y9275419D01*
X4493971Y9266631D01*
X4503064Y9259112D01*
X4513122Y9252915D01*
X4523994Y9248343D01*
X4535424Y9245346D01*
X4547158Y9244025D01*
X4558944Y9244482D01*
X4570577Y9246616D01*
X4581753Y9250426D01*
X4592218Y9255810D01*
X4595317Y9257995D01*
X4599381Y9259722D01*
X4603800Y9259570D01*
X4607712Y9257588D01*
X4610404Y9254083D01*
X4611370Y9249765D01*
X4611370Y9201454D01*
X4610760Y9198051D01*
X4609084Y9195003D01*
X4606493Y9192768D01*
X4603038Y9190634D01*
X4593945Y9183116D01*
X4586071Y9174276D01*
X4579569Y9164472D01*
X4574540Y9153753D01*
X4571136Y9142476D01*
X4569460Y9130792D01*
X4569460Y9118955D01*
X4571136Y9107271D01*
X4574540Y9095994D01*
X4579569Y9085275D01*
X4586071Y9075420D01*
X4593945Y9066631D01*
X4603038Y9059113D01*
X4613148Y9052915D01*
X4623968Y9048343D01*
X4635398Y9045346D01*
X4647133Y9044025D01*
X4658969Y9044482D01*
X4670552Y9046616D01*
X4681728Y9050426D01*
X4692243Y9055811D01*
X4701844Y9062720D01*
X4710328Y9070898D01*
X4717542Y9080246D01*
X4723333Y9090558D01*
X4727549Y9101582D01*
X4730140Y9113113D01*
X4731004Y9124848D01*
X4730140Y9136634D01*
X4727549Y9148165D01*
X4723333Y9159189D01*
X4717542Y9169501D01*
X4710328Y9178848D01*
X4701844Y9187027D01*
X4692853Y9193479D01*
X4690567Y9195714D01*
X4689094Y9198559D01*
X4688586Y9201759D01*
X4688586Y9249816D01*
X4689500Y9253982D01*
X4692040Y9257436D01*
X4695748Y9259519D01*
X4700016Y9259874D01*
X4704029Y9258503D01*
X4713122Y9252915D01*
X4723993Y9248343D01*
X4735423Y9245346D01*
X4747158Y9244025D01*
X4758944Y9244482D01*
X4770577Y9246616D01*
X4781753Y9250426D01*
X4792218Y9255810D01*
X4801870Y9262719D01*
X4810353Y9270898D01*
X4817567Y9280245D01*
X4823358Y9290558D01*
X4827574Y9301581D01*
X4830114Y9313113D01*
X4830978Y9324848D01*
X4830114Y9336633D01*
X4828794Y9342577D01*
X4828641Y9345930D01*
X4829556Y9349181D01*
X4831537Y9351975D01*
X5087975Y9608413D01*
X5091277Y9610598D01*
X5095189Y9611360D01*
X6954977Y9611360D01*
X6958787Y9610648D01*
X6962038Y9608566D01*
X6964578Y9606076D01*
X6966864Y9602774D01*
X6967728Y9598863D01*
X6966966Y9594951D01*
X6964781Y9591598D01*
X6961479Y9589363D01*
X6957568Y9588601D01*
X5775299Y9588601D01*
X5767273Y9587788D01*
X5760008Y9585604D01*
X5753354Y9582048D01*
X5747105Y9576917D01*
X5576671Y9406483D01*
X5574030Y9404553D01*
X5570880Y9403588D01*
X5567629Y9403638D01*
X5558942Y9405264D01*
X5547156Y9405670D01*
X5535422Y9404400D01*
X5523992Y9401403D01*
X5513120Y9396780D01*
X5503062Y9390634D01*
X5493969Y9383115D01*
X5486095Y9374276D01*
X5479592Y9364472D01*
X5474563Y9353753D01*
X5471160Y9342475D01*
X5469432Y9330791D01*
X5469432Y9318955D01*
X5471160Y9307271D01*
X5474563Y9295993D01*
X5479592Y9285274D01*
X5486095Y9275419D01*
X5493969Y9266631D01*
X5503062Y9259112D01*
X5513120Y9252915D01*
X5523992Y9248343D01*
X5535422Y9245346D01*
X5547156Y9244025D01*
X5558942Y9244482D01*
X5570575Y9246616D01*
X5581751Y9250426D01*
X5592216Y9255810D01*
X5601868Y9262719D01*
X5610352Y9270898D01*
X5617565Y9280245D01*
X5623356Y9290558D01*
X5627573Y9301581D01*
X5630113Y9313113D01*
X5630976Y9324848D01*
X5630113Y9336633D01*
X5628792Y9342729D01*
X5628589Y9346082D01*
X5629554Y9349333D01*
X5631484Y9352127D01*
X5787796Y9508388D01*
X5791098Y9510572D01*
X5794959Y9511385D01*
X7704988Y9511385D01*
X7708849Y9510623D01*
X7712100Y9508490D01*
X7714538Y9506102D01*
X7716774Y9502851D01*
X7717586Y9498939D01*
X7716824Y9495028D01*
X7714640Y9491675D01*
X7711338Y9489440D01*
X7707426Y9488678D01*
X5875528Y9488678D01*
X5867501Y9487865D01*
X5860237Y9485680D01*
X5853582Y9482124D01*
X5847384Y9476994D01*
X5776772Y9406432D01*
X5774131Y9404553D01*
X5771032Y9403588D01*
X5767781Y9403638D01*
X5758942Y9405264D01*
X5747156Y9405670D01*
X5735421Y9404400D01*
X5723991Y9401403D01*
X5713120Y9396780D01*
X5703062Y9390634D01*
X5693968Y9383115D01*
X5686094Y9374276D01*
X5679592Y9364472D01*
X5674563Y9353753D01*
X5671159Y9342475D01*
X5669432Y9330791D01*
X5669432Y9318955D01*
X5671159Y9307271D01*
X5674563Y9295993D01*
X5679592Y9285274D01*
X5686094Y9275419D01*
X5693968Y9266631D01*
X5703062Y9259112D01*
X5713120Y9252915D01*
X5723991Y9248343D01*
X5735421Y9245346D01*
X5747156Y9244025D01*
X5758942Y9244482D01*
X5770575Y9246616D01*
X5781751Y9250426D01*
X5792216Y9255810D01*
X5801868Y9262719D01*
X5810351Y9270898D01*
X5817565Y9280245D01*
X5823356Y9290558D01*
X5827572Y9301581D01*
X5830112Y9313113D01*
X5830976Y9324848D01*
X5830112Y9336633D01*
X5828792Y9342577D01*
X5828639Y9345980D01*
X5829554Y9349232D01*
X5831535Y9351975D01*
X5888024Y9408464D01*
X5891326Y9410700D01*
X5895238Y9411462D01*
X5900978Y9411462D01*
X5905246Y9410547D01*
X5908751Y9407906D01*
X5910783Y9404045D01*
X5911037Y9399676D01*
X5909462Y9395663D01*
X5906312Y9392615D01*
X5903061Y9390634D01*
X5893968Y9383115D01*
X5886094Y9374276D01*
X5879592Y9364472D01*
X5876899Y9358731D01*
X5916269Y9358731D01*
X5916269Y9401302D01*
X5917031Y9405213D01*
X5919216Y9408464D01*
X5922518Y9410700D01*
X5926429Y9411462D01*
X5973775Y9411462D01*
X5977686Y9410700D01*
X5980988Y9408464D01*
X5983173Y9405213D01*
X5983935Y9401302D01*
X5983935Y9358731D01*
X6023508Y9358731D01*
X6017564Y9369501D01*
X6010351Y9378848D01*
X6001867Y9387027D01*
X5993434Y9393021D01*
X5990590Y9396171D01*
X5989269Y9400184D01*
X5989675Y9404400D01*
X5991809Y9408058D01*
X5995212Y9410598D01*
X5999378Y9411462D01*
X7954924Y9411462D01*
X7958785Y9410700D01*
X7962087Y9408464D01*
X7963763Y9406839D01*
X7971790Y9401200D01*
X7980730Y9397034D01*
X7990179Y9394494D01*
X7999984Y9393631D01*
X8009788Y9394494D01*
X8019237Y9397034D01*
X8028178Y9401200D01*
X8036204Y9406839D01*
X8043164Y9413748D01*
X8048802Y9421825D01*
X8052917Y9430715D01*
X8055457Y9440214D01*
X8056321Y9449968D01*
X8055457Y9459772D01*
X8052917Y9469272D01*
X8048802Y9478162D01*
X8043164Y9486188D01*
X8036204Y9493148D01*
X8028178Y9498787D01*
X8019237Y9502952D01*
X8009788Y9505492D01*
X7999984Y9506305D01*
X7990179Y9505492D01*
X7980730Y9502952D01*
X7971790Y9498787D01*
X7963763Y9493148D01*
X7962290Y9491675D01*
X7958988Y9489440D01*
X7955076Y9488678D01*
X7792567Y9488678D01*
X7788656Y9489440D01*
X7785353Y9491675D01*
X7783169Y9494977D01*
X7782407Y9498888D01*
X7783169Y9502749D01*
X7785404Y9506051D01*
X7793177Y9513773D01*
X7798816Y9521799D01*
X7802930Y9530689D01*
X7805470Y9540189D01*
X7806334Y9549942D01*
X7805470Y9559747D01*
X7802930Y9569246D01*
X7798816Y9578136D01*
X7793177Y9586214D01*
X7786217Y9593122D01*
X7778191Y9598761D01*
X7769250Y9602927D01*
X7759801Y9605467D01*
X7749997Y9606330D01*
X7740192Y9605467D01*
X7730744Y9602927D01*
X7721803Y9598761D01*
X7713776Y9593122D01*
X7712202Y9591548D01*
X7708900Y9589363D01*
X7705039Y9588601D01*
X7042403Y9588601D01*
X7038543Y9589363D01*
X7035241Y9591598D01*
X7033006Y9594900D01*
X7032244Y9598812D01*
X7033056Y9602673D01*
X7035292Y9605975D01*
X7043166Y9613747D01*
X7048804Y9621774D01*
X7052919Y9630714D01*
X7055459Y9640163D01*
X7056323Y9649968D01*
X7055459Y9659772D01*
X7052919Y9669221D01*
X7048804Y9678162D01*
X7043166Y9686188D01*
X7036206Y9693148D01*
X7028180Y9698786D01*
X7019239Y9702901D01*
X7009790Y9705441D01*
X6999986Y9706305D01*
X6990181Y9705441D01*
X6980732Y9702901D01*
X6971792Y9698786D01*
X6963765Y9693148D01*
X6962190Y9691573D01*
X6958888Y9689338D01*
X6955028Y9688576D01*
X6542430Y9688576D01*
X6538518Y9689338D01*
X6535216Y9691573D01*
X6533032Y9694875D01*
X6532270Y9698786D01*
X6533032Y9702698D01*
X6535267Y9705949D01*
X6543192Y9713772D01*
X6548780Y9721799D01*
X6552946Y9730689D01*
X6555486Y9740188D01*
X6556349Y9749942D01*
X6555486Y9759746D01*
X6552946Y9769246D01*
X6548780Y9778136D01*
X6543141Y9786213D01*
X6536232Y9793122D01*
X6528155Y9798761D01*
X6519265Y9802926D01*
X6509766Y9805466D01*
X6500012Y9806330D01*
X6490208Y9805466D01*
X6480708Y9802926D01*
X6471818Y9798761D01*
X6463741Y9793122D01*
X6462268Y9791649D01*
X6458966Y9789414D01*
X6455054Y9788652D01*
X4950460Y9788652D01*
X4942433Y9787839D01*
X4935220Y9785654D01*
X4928514Y9782098D01*
X4922316Y9776968D01*
X4623054Y9477705D01*
X4617923Y9471507D01*
X4614367Y9464802D01*
X4612182Y9457588D01*
X4611370Y9449562D01*
X4611370Y9399981D01*
X4610404Y9395663D01*
X4607712Y9392158D01*
X4603800Y9390176D01*
X4599381Y9389973D01*
X4595317Y9391700D01*
X4592777Y9393529D01*
X4590491Y9395764D01*
X4589018Y9398660D01*
X4588510Y9401810D01*
X4588510Y9529673D01*
X4589272Y9533585D01*
X4591507Y9536836D01*
X4913426Y9858349D01*
X4916728Y9860534D01*
X4920589Y9861296D01*
X6355080Y9861296D01*
X6358940Y9860534D01*
X6362242Y9858298D01*
X6363766Y9856825D01*
X6371793Y9851186D01*
X6380734Y9847021D01*
X6390182Y9844481D01*
X6399987Y9843617D01*
X6409791Y9844481D01*
X6419240Y9847021D01*
X6428181Y9851186D01*
X6436207Y9856825D01*
X6443167Y9863734D01*
X6448806Y9871811D01*
X6452920Y9880701D01*
X6455460Y9890201D01*
X6456324Y9899954D01*
X6455460Y9909759D01*
X6452920Y9919258D01*
X6448806Y9928148D01*
X6443167Y9936226D01*
X6436207Y9943134D01*
X6428181Y9948773D01*
X6419240Y9952939D01*
X6414922Y9954107D01*
X6411214Y9955987D01*
X6408572Y9959187D01*
X6407404Y9963150D01*
X6407962Y9967264D01*
X6410096Y9970820D01*
X6413449Y9973208D01*
X6417513Y9974072D01*
X9278975Y9974072D01*
X9282785Y9973310D01*
X9286036Y9971176D01*
X9288272Y9967976D01*
X9289084Y9964115D01*
X9288424Y9960305D01*
X9286392Y9956952D01*
X9283192Y9954666D01*
X9279585Y9953040D01*
X9252153Y9938258D01*
X9225686Y9921849D01*
X9200286Y9903815D01*
X9176054Y9884257D01*
X9153042Y9863277D01*
X9131401Y9840874D01*
X9111132Y9817201D01*
X9092387Y9792309D01*
X9075216Y9766350D01*
X9059722Y9739325D01*
X9045854Y9711436D01*
X9033764Y9682734D01*
X9023451Y9653320D01*
X9015018Y9623348D01*
X9008414Y9592919D01*
X9003690Y9562134D01*
X9000896Y9531096D01*
X8999982Y9500006D01*
X9000896Y9468866D01*
X9003690Y9437827D01*
X9008414Y9407042D01*
X9015018Y9376613D01*
X9023451Y9346641D01*
X9033764Y9317228D01*
X9045854Y9288526D01*
X9059722Y9260636D01*
X9075216Y9233611D01*
X9092387Y9207652D01*
X9111132Y9182760D01*
X9131401Y9159087D01*
X9153042Y9136684D01*
X9176054Y9115704D01*
X9200286Y9096146D01*
X9225686Y9078112D01*
X9252153Y9061704D01*
X9279585Y9046921D01*
X9307880Y9033916D01*
X9336938Y9022638D01*
X9366605Y9013190D01*
X9396780Y9005570D01*
X9427413Y8999829D01*
X9458299Y8996019D01*
X9489389Y8994089D01*
X9520529Y8994089D01*
X9551619Y8996019D01*
X9582556Y8999829D01*
X9613188Y9005570D01*
X9643364Y9013190D01*
X9673031Y9022638D01*
X9702088Y9033916D01*
X9730384Y9046921D01*
X9757816Y9061704D01*
X9784283Y9078112D01*
X9809683Y9096146D01*
X9833914Y9115704D01*
X9856927Y9136684D01*
X9878568Y9159087D01*
X9898837Y9182760D01*
X9917531Y9207652D01*
X9934702Y9233611D01*
X9950246Y9260636D01*
X9954818Y9269831D01*
X9957663Y9273286D01*
X9961727Y9275216D01*
X9966248Y9275165D01*
X9970262Y9273235D01*
X9973056Y9269679D01*
X9974072Y9265310D01*
X9974072Y734669D01*
X9973056Y730300D01*
X9970262Y726744D01*
X9966248Y724814D01*
X9961727Y724763D01*
X9957663Y726694D01*
X9954818Y730148D01*
X9950246Y739343D01*
X9934702Y766368D01*
X9917531Y792327D01*
X9898837Y817219D01*
X9878568Y840892D01*
X9856927Y863295D01*
X9833914Y884275D01*
X9809683Y903833D01*
X9784283Y921867D01*
X9757816Y938276D01*
X9730384Y953058D01*
X9702088Y966063D01*
X9673031Y977341D01*
X9643364Y986790D01*
X9613188Y994410D01*
X9582556Y1000150D01*
X9551619Y1003960D01*
X9520529Y1005890D01*
X9489389Y1005890D01*
X9458299Y1003960D01*
X9427413Y1000150D01*
X9396780Y994410D01*
X9366605Y986790D01*
X9336938Y977341D01*
X9307880Y966063D01*
X9279585Y953058D01*
X9252153Y938276D01*
X9225686Y921867D01*
X9200286Y903833D01*
X9176054Y884275D01*
X9153042Y863295D01*
X9131401Y840892D01*
X9111132Y817219D01*
X9092387Y792327D01*
X9075216Y766368D01*
X9059722Y739343D01*
X9045854Y711454D01*
X9033764Y682752D01*
X9023451Y653338D01*
X9015018Y623366D01*
X9008414Y592937D01*
X9003690Y562152D01*
X9000896Y531114D01*
X8999982Y500024D01*
X9000896Y468884D01*
X9003690Y437845D01*
X9008414Y407060D01*
X9015018Y376631D01*
X9023451Y346659D01*
X9033764Y317246D01*
X9045854Y288544D01*
X9059722Y260654D01*
X9075216Y233629D01*
X9092387Y207670D01*
X9111132Y182778D01*
X9131401Y159105D01*
X9153042Y136702D01*
X9176054Y115722D01*
X9200286Y96164D01*
X9225686Y78130D01*
X9252153Y61722D01*
X9279585Y46939D01*
X9283192Y45313D01*
X9286392Y43027D01*
X9288424Y39674D01*
X9289084Y35864D01*
X9288272Y32004D01*
X9286036Y28803D01*
X9282785Y26670D01*
X9278975Y25908D01*
G37*

%LPC*%
G36*
X5383936Y9358731D02*
G01*
X5423509Y9358731D01*
X5417566Y9369501D01*
X5410352Y9378848D01*
X5401868Y9387027D01*
X5392216Y9393885D01*
X5383936Y9398152D01*
G37*
G36*
X3500374Y461518D02*
G01*
X6899402Y461518D01*
X6907428Y462280D01*
X6914642Y464515D01*
X6921296Y468071D01*
X6927545Y473151D01*
X7299959Y845312D01*
X7305090Y851560D01*
X7308646Y858215D01*
X7310831Y865479D01*
X7311644Y873506D01*
X7311644Y1255064D01*
X7312406Y1258925D01*
X7314641Y1262227D01*
X7316165Y1263751D01*
X7321803Y1271828D01*
X7325918Y1280718D01*
X7328458Y1290218D01*
X7329322Y1299972D01*
X7328458Y1309776D01*
X7325918Y1319276D01*
X7321803Y1328166D01*
X7316165Y1336243D01*
X7309205Y1343152D01*
X7301179Y1348790D01*
X7292238Y1352956D01*
X7282789Y1355496D01*
X7272985Y1356360D01*
X7263180Y1355496D01*
X7253731Y1352956D01*
X7244791Y1348790D01*
X7236764Y1343152D01*
X7229805Y1336243D01*
X7224166Y1328166D01*
X7220051Y1319276D01*
X7217511Y1309776D01*
X7216648Y1299972D01*
X7217511Y1290218D01*
X7220051Y1280718D01*
X7224166Y1271828D01*
X7229805Y1263751D01*
X7231430Y1262126D01*
X7233666Y1258824D01*
X7234428Y1254963D01*
X7234428Y893216D01*
X7233666Y889304D01*
X7231430Y886002D01*
X6886905Y541731D01*
X6883603Y539496D01*
X6879742Y538734D01*
X3520084Y538734D01*
X3516172Y539496D01*
X3512870Y541731D01*
X3136595Y918006D01*
X3134360Y921308D01*
X3133598Y925220D01*
X3133598Y7446365D01*
X3134309Y7450023D01*
X3136290Y7453223D01*
X3139287Y7455458D01*
X3147212Y7459370D01*
X3158591Y7466990D01*
X3168853Y7475981D01*
X3177895Y7486294D01*
X3185464Y7497673D01*
X3191560Y7509967D01*
X3195929Y7522921D01*
X3198622Y7536332D01*
X3199485Y7549997D01*
X3198622Y7563662D01*
X3195929Y7577074D01*
X3191560Y7590028D01*
X3185464Y7602321D01*
X3177895Y7613700D01*
X3168853Y7623962D01*
X3158591Y7633004D01*
X3147212Y7640574D01*
X3134918Y7646670D01*
X3121964Y7651038D01*
X3108553Y7653731D01*
X3094888Y7654594D01*
X3081223Y7653731D01*
X3067812Y7651038D01*
X3054858Y7646670D01*
X3042564Y7640574D01*
X3031185Y7633004D01*
X3020923Y7623962D01*
X3011881Y7613700D01*
X3004261Y7602321D01*
X2998216Y7590028D01*
X2993796Y7577074D01*
X2991154Y7563662D01*
X2990240Y7549997D01*
X2991154Y7536332D01*
X2993796Y7522921D01*
X2998216Y7509967D01*
X3004261Y7497673D01*
X3011881Y7486294D01*
X3020923Y7475981D01*
X3031185Y7466990D01*
X3042564Y7459370D01*
X3050692Y7455357D01*
X3053689Y7453122D01*
X3055670Y7449921D01*
X3056382Y7446264D01*
X3056382Y905510D01*
X3057194Y897483D01*
X3059379Y890269D01*
X3062935Y883564D01*
X3068066Y877366D01*
X3472230Y473201D01*
X3478428Y468071D01*
X3485134Y464515D01*
X3492347Y462330D01*
G37*
G36*
X3800601Y661416D02*
G01*
X6799580Y661416D01*
X6807606Y662228D01*
X6814820Y664413D01*
X6821525Y667969D01*
X6827723Y673100D01*
X7045959Y891336D01*
X7051090Y897534D01*
X7054646Y904240D01*
X7056831Y911453D01*
X7057644Y919480D01*
X7057644Y1255064D01*
X7058406Y1258925D01*
X7060641Y1262227D01*
X7062165Y1263751D01*
X7067803Y1271828D01*
X7071918Y1280718D01*
X7074458Y1290218D01*
X7075322Y1299972D01*
X7074458Y1309776D01*
X7071918Y1319276D01*
X7067803Y1328166D01*
X7062165Y1336243D01*
X7055205Y1343152D01*
X7047179Y1348790D01*
X7038238Y1352956D01*
X7028789Y1355496D01*
X7018985Y1356360D01*
X7009180Y1355496D01*
X6999731Y1352956D01*
X6990791Y1348790D01*
X6982764Y1343152D01*
X6975805Y1336243D01*
X6970166Y1328166D01*
X6966051Y1319276D01*
X6963511Y1309776D01*
X6962648Y1299972D01*
X6963511Y1290218D01*
X6966051Y1280718D01*
X6970166Y1271828D01*
X6975805Y1263751D01*
X6977430Y1262126D01*
X6979666Y1258824D01*
X6980428Y1254963D01*
X6980428Y939190D01*
X6979666Y935278D01*
X6977430Y931976D01*
X6787083Y741629D01*
X6783781Y739394D01*
X6779869Y738632D01*
X3820261Y738632D01*
X3816400Y739394D01*
X3813098Y741629D01*
X3541471Y1013002D01*
X3539236Y1016304D01*
X3538474Y1020216D01*
X3538474Y3770376D01*
X3537661Y3778402D01*
X3535476Y3785615D01*
X3531920Y3792321D01*
X3527145Y3798163D01*
X3521303Y3802938D01*
X3518966Y3804158D01*
X3516122Y3806444D01*
X3514242Y3809542D01*
X3513632Y3813149D01*
X3513632Y7466990D01*
X3514344Y7470749D01*
X3516426Y7474000D01*
X3519576Y7476236D01*
X3523335Y7477150D01*
X3527145Y7476591D01*
X3530447Y7474610D01*
X3539185Y7466990D01*
X3550564Y7459370D01*
X3562858Y7453325D01*
X3575812Y7448905D01*
X3589223Y7446264D01*
X3602888Y7445349D01*
X3616553Y7446264D01*
X3629964Y7448905D01*
X3642918Y7453325D01*
X3655212Y7459370D01*
X3666591Y7466990D01*
X3676853Y7475981D01*
X3685895Y7486294D01*
X3693464Y7497673D01*
X3699560Y7509967D01*
X3703929Y7522921D01*
X3706622Y7536332D01*
X3707485Y7549997D01*
X3706622Y7563662D01*
X3703929Y7577074D01*
X3699560Y7590028D01*
X3693464Y7602321D01*
X3685895Y7613700D01*
X3676853Y7623962D01*
X3666591Y7633004D01*
X3655212Y7640574D01*
X3642918Y7646670D01*
X3629964Y7651038D01*
X3616553Y7653731D01*
X3602888Y7654594D01*
X3589223Y7653731D01*
X3575812Y7651038D01*
X3562858Y7646670D01*
X3550564Y7640574D01*
X3539185Y7633004D01*
X3530447Y7625334D01*
X3527145Y7623403D01*
X3523335Y7622844D01*
X3519576Y7623708D01*
X3516426Y7625943D01*
X3514344Y7629194D01*
X3513632Y7633004D01*
X3513632Y7755026D01*
X3514394Y7758887D01*
X3516579Y7762189D01*
X3518154Y7763764D01*
X3523792Y7771790D01*
X3527958Y7780731D01*
X3530498Y7790180D01*
X3531362Y7799984D01*
X3530498Y7809788D01*
X3527958Y7819237D01*
X3523792Y7828178D01*
X3518154Y7836204D01*
X3511194Y7843164D01*
X3503168Y7848803D01*
X3494278Y7852918D01*
X3484778Y7855458D01*
X3474974Y7856321D01*
X3465220Y7855458D01*
X3455720Y7852918D01*
X3446830Y7848803D01*
X3438753Y7843164D01*
X3431844Y7836204D01*
X3426206Y7828178D01*
X3422040Y7819237D01*
X3419500Y7809788D01*
X3418636Y7799984D01*
X3419500Y7790180D01*
X3422040Y7780731D01*
X3426206Y7771790D01*
X3431844Y7763764D01*
X3433419Y7762189D01*
X3435604Y7758887D01*
X3436416Y7754975D01*
X3436416Y7634528D01*
X3435654Y7630718D01*
X3433572Y7627518D01*
X3430422Y7625283D01*
X3426663Y7624368D01*
X3422853Y7624927D01*
X3419551Y7626908D01*
X3412591Y7633004D01*
X3401212Y7640574D01*
X3388918Y7646670D01*
X3375964Y7651038D01*
X3362553Y7653731D01*
X3348888Y7654594D01*
X3335223Y7653731D01*
X3321812Y7651038D01*
X3308858Y7646670D01*
X3296564Y7640574D01*
X3285185Y7633004D01*
X3274923Y7623962D01*
X3265881Y7613700D01*
X3258261Y7602321D01*
X3252215Y7590028D01*
X3247796Y7577074D01*
X3245154Y7563662D01*
X3244240Y7549997D01*
X3245154Y7536332D01*
X3247796Y7522921D01*
X3252215Y7509967D01*
X3258261Y7497673D01*
X3265881Y7486294D01*
X3274923Y7475981D01*
X3285185Y7466990D01*
X3296564Y7459370D01*
X3308858Y7453325D01*
X3321812Y7448905D01*
X3335223Y7446264D01*
X3348888Y7445349D01*
X3362553Y7446264D01*
X3375964Y7448905D01*
X3388918Y7453325D01*
X3401212Y7459370D01*
X3412591Y7466990D01*
X3419551Y7473086D01*
X3422853Y7475016D01*
X3426663Y7475575D01*
X3430422Y7474712D01*
X3433572Y7472476D01*
X3435654Y7469225D01*
X3436416Y7465466D01*
X3436416Y3500475D01*
X3437178Y3492500D01*
X3439363Y3485235D01*
X3442919Y3478580D01*
X3447745Y3472738D01*
X3453587Y3467912D01*
X3455873Y3466693D01*
X3458718Y3464458D01*
X3460597Y3461308D01*
X3461258Y3457752D01*
X3461258Y1000506D01*
X3462070Y992479D01*
X3464255Y985266D01*
X3467811Y978560D01*
X3472942Y972362D01*
X3772458Y673049D01*
X3778656Y667969D01*
X3785362Y664413D01*
X3792575Y662228D01*
G37*
G36*
X4800600Y861314D02*
G01*
X6199378Y861314D01*
X6207404Y862126D01*
X6214618Y864311D01*
X6221323Y867867D01*
X6227521Y872998D01*
X6537959Y1183436D01*
X6543090Y1189634D01*
X6546646Y1196340D01*
X6548831Y1203553D01*
X6549644Y1211580D01*
X6549644Y1255064D01*
X6550406Y1258925D01*
X6552641Y1262227D01*
X6554165Y1263751D01*
X6559803Y1271828D01*
X6563918Y1280718D01*
X6566458Y1290218D01*
X6567322Y1299972D01*
X6566458Y1309776D01*
X6563918Y1319276D01*
X6559803Y1328166D01*
X6554165Y1336243D01*
X6547205Y1343152D01*
X6539179Y1348790D01*
X6530238Y1352956D01*
X6520789Y1355496D01*
X6510985Y1356360D01*
X6501180Y1355496D01*
X6491732Y1352956D01*
X6482791Y1348790D01*
X6474764Y1343152D01*
X6467805Y1336243D01*
X6462166Y1328166D01*
X6458051Y1319276D01*
X6455511Y1309776D01*
X6454648Y1299972D01*
X6455511Y1290218D01*
X6458051Y1280718D01*
X6462166Y1271828D01*
X6467805Y1263751D01*
X6469430Y1262126D01*
X6471666Y1258824D01*
X6472428Y1254963D01*
X6472428Y1231290D01*
X6471666Y1227378D01*
X6469430Y1224076D01*
X6186881Y941527D01*
X6183579Y939292D01*
X6179667Y938530D01*
X4820310Y938530D01*
X4816398Y939292D01*
X4813096Y941527D01*
X4406595Y1348028D01*
X4404360Y1351330D01*
X4403598Y1355242D01*
X4403598Y7446365D01*
X4404309Y7450023D01*
X4406290Y7453223D01*
X4409287Y7455458D01*
X4417212Y7459370D01*
X4428591Y7466990D01*
X4438853Y7475981D01*
X4447895Y7486294D01*
X4455464Y7497673D01*
X4461560Y7509967D01*
X4465929Y7522921D01*
X4468622Y7536332D01*
X4469485Y7549997D01*
X4468622Y7563662D01*
X4465929Y7577074D01*
X4461560Y7590028D01*
X4455464Y7602321D01*
X4447895Y7613700D01*
X4438853Y7623962D01*
X4428591Y7633004D01*
X4417212Y7640574D01*
X4404918Y7646670D01*
X4391964Y7651038D01*
X4378553Y7653731D01*
X4364888Y7654594D01*
X4351223Y7653731D01*
X4337812Y7651038D01*
X4324858Y7646670D01*
X4312564Y7640574D01*
X4301185Y7633004D01*
X4290923Y7623962D01*
X4281881Y7613700D01*
X4274261Y7602321D01*
X4268216Y7590028D01*
X4263796Y7577074D01*
X4261154Y7563662D01*
X4260240Y7549997D01*
X4261154Y7536332D01*
X4263796Y7522921D01*
X4268216Y7509967D01*
X4274261Y7497673D01*
X4281881Y7486294D01*
X4290923Y7475981D01*
X4301185Y7466990D01*
X4312564Y7459370D01*
X4320692Y7455357D01*
X4323689Y7453122D01*
X4325670Y7449921D01*
X4326382Y7446264D01*
X4326382Y1335532D01*
X4327194Y1327505D01*
X4329379Y1320292D01*
X4332935Y1313586D01*
X4338066Y1307388D01*
X4772456Y872998D01*
X4778654Y867867D01*
X4785360Y864311D01*
X4792573Y862126D01*
G37*
G36*
X4900422Y1061466D02*
G01*
X6099556Y1061466D01*
X6107582Y1062278D01*
X6114796Y1064463D01*
X6121501Y1068019D01*
X6127699Y1073150D01*
X6283960Y1229410D01*
X6289090Y1235608D01*
X6292646Y1242314D01*
X6294831Y1249527D01*
X6295491Y1255826D01*
X6296406Y1259179D01*
X6298387Y1262024D01*
X6300165Y1263751D01*
X6305804Y1271828D01*
X6309918Y1280718D01*
X6312458Y1290218D01*
X6313322Y1299972D01*
X6312458Y1309776D01*
X6309918Y1319276D01*
X6305804Y1328166D01*
X6300165Y1336243D01*
X6293205Y1343152D01*
X6285179Y1348790D01*
X6276238Y1352956D01*
X6266789Y1355496D01*
X6256985Y1356360D01*
X6247180Y1355496D01*
X6237732Y1352956D01*
X6228791Y1348790D01*
X6220764Y1343152D01*
X6213805Y1336243D01*
X6208166Y1328166D01*
X6204051Y1319276D01*
X6201511Y1309776D01*
X6200648Y1299972D01*
X6201511Y1290218D01*
X6204051Y1280718D01*
X6208064Y1272133D01*
X6208979Y1268120D01*
X6208268Y1264056D01*
X6206032Y1260652D01*
X6087059Y1141679D01*
X6083757Y1139444D01*
X6079845Y1138682D01*
X4920132Y1138682D01*
X4916220Y1139444D01*
X4912918Y1141679D01*
X4660595Y1394002D01*
X4658360Y1397304D01*
X4657598Y1401216D01*
X4657598Y7446365D01*
X4658309Y7450023D01*
X4660290Y7453223D01*
X4663287Y7455458D01*
X4671212Y7459370D01*
X4682591Y7466990D01*
X4692853Y7475981D01*
X4701895Y7486294D01*
X4709464Y7497673D01*
X4715560Y7509967D01*
X4719929Y7522921D01*
X4722622Y7536332D01*
X4723485Y7549997D01*
X4722622Y7563662D01*
X4719929Y7577074D01*
X4715560Y7590028D01*
X4709464Y7602321D01*
X4701895Y7613700D01*
X4692853Y7623962D01*
X4682591Y7633004D01*
X4671212Y7640574D01*
X4658918Y7646670D01*
X4645964Y7651038D01*
X4632553Y7653731D01*
X4618888Y7654594D01*
X4605223Y7653731D01*
X4591812Y7651038D01*
X4578858Y7646670D01*
X4566564Y7640574D01*
X4555185Y7633004D01*
X4544923Y7623962D01*
X4535881Y7613700D01*
X4528261Y7602321D01*
X4522216Y7590028D01*
X4517796Y7577074D01*
X4515154Y7563662D01*
X4514240Y7549997D01*
X4515154Y7536332D01*
X4517796Y7522921D01*
X4522216Y7509967D01*
X4528261Y7497673D01*
X4535881Y7486294D01*
X4544923Y7475981D01*
X4555185Y7466990D01*
X4566564Y7459370D01*
X4574692Y7455357D01*
X4577689Y7453122D01*
X4579670Y7449921D01*
X4580382Y7446264D01*
X4580382Y1381506D01*
X4581194Y1373479D01*
X4583379Y1366266D01*
X4586935Y1359560D01*
X4592066Y1353362D01*
X4872278Y1073150D01*
X4878476Y1068019D01*
X4885182Y1064463D01*
X4892395Y1062278D01*
G37*
G36*
X9050985Y1243634D02*
G01*
X9060789Y1244498D01*
X9070238Y1247038D01*
X9079179Y1251204D01*
X9087205Y1256842D01*
X9094165Y1263751D01*
X9099804Y1271828D01*
X9103918Y1280718D01*
X9106458Y1290218D01*
X9107322Y1299972D01*
X9106458Y1309776D01*
X9103918Y1319276D01*
X9099804Y1328166D01*
X9094165Y1336243D01*
X9092336Y1338021D01*
X9090152Y1341272D01*
X9089390Y1345133D01*
X9056319Y8004860D01*
X9057081Y8008772D01*
X9059316Y8012074D01*
X9060637Y8013446D01*
X9066276Y8021472D01*
X9070441Y8030362D01*
X9072981Y8039862D01*
X9073845Y8049666D01*
X9072981Y8059420D01*
X9070441Y8068919D01*
X9066276Y8077809D01*
X9060637Y8085886D01*
X9053728Y8092846D01*
X9045651Y8098434D01*
X9036761Y8102600D01*
X9027261Y8105140D01*
X9017508Y8106003D01*
X9007703Y8105140D01*
X8998204Y8102600D01*
X8989314Y8098434D01*
X8981287Y8092846D01*
X8974328Y8085886D01*
X8968689Y8077809D01*
X8964523Y8068919D01*
X8961983Y8059420D01*
X8961170Y8049666D01*
X8961983Y8039862D01*
X8964523Y8030362D01*
X8968689Y8021472D01*
X8974328Y8013446D01*
X8976156Y8011617D01*
X8978341Y8008366D01*
X8979103Y8004505D01*
X9012174Y1344828D01*
X9011412Y1340916D01*
X9009176Y1337564D01*
X9007805Y1336243D01*
X9002166Y1328166D01*
X8998051Y1319276D01*
X8995511Y1309776D01*
X8994648Y1299972D01*
X8995511Y1290218D01*
X8998051Y1280718D01*
X9002166Y1271828D01*
X9007805Y1263751D01*
X9014764Y1256842D01*
X9022791Y1251204D01*
X9031732Y1247038D01*
X9041180Y1244498D01*
G37*
G36*
X6002985Y1243634D02*
G01*
X6012789Y1244498D01*
X6022238Y1247038D01*
X6031179Y1251204D01*
X6039205Y1256842D01*
X6046165Y1263751D01*
X6051804Y1271828D01*
X6055918Y1280718D01*
X6058458Y1290218D01*
X6059322Y1299972D01*
X6058458Y1309776D01*
X6055918Y1319276D01*
X6051804Y1328166D01*
X6046165Y1336243D01*
X6039205Y1343152D01*
X6031179Y1348790D01*
X6022238Y1352956D01*
X6012789Y1355496D01*
X6002985Y1356360D01*
X5993180Y1355496D01*
X5983732Y1352956D01*
X5974791Y1348790D01*
X5966764Y1343152D01*
X5965190Y1341577D01*
X5961888Y1339392D01*
X5957976Y1338580D01*
X5120182Y1338580D01*
X5116322Y1339392D01*
X5113020Y1341577D01*
X4914595Y1540002D01*
X4912360Y1543304D01*
X4911598Y1547215D01*
X4911598Y7446365D01*
X4912309Y7450023D01*
X4914290Y7453223D01*
X4917287Y7455458D01*
X4925212Y7459370D01*
X4936591Y7466990D01*
X4946853Y7475981D01*
X4955895Y7486294D01*
X4963464Y7497673D01*
X4969560Y7509967D01*
X4973929Y7522921D01*
X4976622Y7536332D01*
X4977485Y7549997D01*
X4976622Y7563662D01*
X4973929Y7577074D01*
X4969560Y7590028D01*
X4963464Y7602321D01*
X4955895Y7613700D01*
X4946853Y7623962D01*
X4936591Y7633004D01*
X4925212Y7640574D01*
X4912918Y7646670D01*
X4899964Y7651038D01*
X4886553Y7653731D01*
X4872888Y7654594D01*
X4859223Y7653731D01*
X4845812Y7651038D01*
X4832858Y7646670D01*
X4820564Y7640574D01*
X4809185Y7633004D01*
X4798923Y7623962D01*
X4789881Y7613700D01*
X4782261Y7602321D01*
X4776216Y7590028D01*
X4771796Y7577074D01*
X4769154Y7563662D01*
X4768240Y7549997D01*
X4769154Y7536332D01*
X4771796Y7522921D01*
X4776216Y7509967D01*
X4782261Y7497673D01*
X4789881Y7486294D01*
X4798923Y7475981D01*
X4809185Y7466990D01*
X4820564Y7459370D01*
X4828692Y7455357D01*
X4831689Y7453122D01*
X4833670Y7449921D01*
X4834382Y7446264D01*
X4834382Y1527505D01*
X4835194Y1519478D01*
X4837379Y1512265D01*
X4840935Y1505559D01*
X4846066Y1499362D01*
X5072329Y1273048D01*
X5078577Y1267917D01*
X5085232Y1264361D01*
X5092446Y1262176D01*
X5100472Y1261364D01*
X5957976Y1261364D01*
X5961888Y1260602D01*
X5965190Y1258417D01*
X5966764Y1256842D01*
X5974791Y1251204D01*
X5983732Y1247038D01*
X5993180Y1244498D01*
G37*
G36*
X8542985Y1243634D02*
G01*
X8552789Y1244498D01*
X8562238Y1247038D01*
X8571179Y1251204D01*
X8579205Y1256842D01*
X8586165Y1263751D01*
X8591804Y1271828D01*
X8595918Y1280718D01*
X8598458Y1290218D01*
X8599322Y1299972D01*
X8598458Y1309776D01*
X8595918Y1319276D01*
X8591804Y1328166D01*
X8586165Y1336243D01*
X8584641Y1337767D01*
X8582406Y1341069D01*
X8581644Y1344930D01*
X8581644Y2006346D01*
X8580831Y2014372D01*
X8578646Y2021586D01*
X8575090Y2028291D01*
X8569960Y2034489D01*
X8377631Y2226818D01*
X8371433Y2231948D01*
X8364728Y2235504D01*
X8357514Y2237689D01*
X8349488Y2238502D01*
X5920130Y2238502D01*
X5916218Y2239264D01*
X5912916Y2241499D01*
X5741568Y2413050D01*
X5739384Y2416352D01*
X5738622Y2420213D01*
X5738622Y6780022D01*
X5739384Y6783882D01*
X5741568Y6787184D01*
X5743143Y6788759D01*
X5748782Y6796786D01*
X5752947Y6805726D01*
X5755487Y6815175D01*
X5756351Y6824980D01*
X5755487Y6834784D01*
X5752947Y6844233D01*
X5748782Y6853174D01*
X5743143Y6861200D01*
X5736234Y6868159D01*
X5728157Y6873798D01*
X5719267Y6877913D01*
X5709767Y6880453D01*
X5700014Y6881317D01*
X5690209Y6880453D01*
X5680710Y6877913D01*
X5671820Y6873798D01*
X5663742Y6868159D01*
X5656834Y6861200D01*
X5651195Y6853174D01*
X5647029Y6844233D01*
X5644489Y6834784D01*
X5643626Y6824980D01*
X5644489Y6815175D01*
X5647029Y6805726D01*
X5651195Y6796786D01*
X5656834Y6788759D01*
X5658408Y6787184D01*
X5660593Y6783882D01*
X5661406Y6780022D01*
X5661406Y2400554D01*
X5662168Y2392527D01*
X5664403Y2385314D01*
X5667959Y2378659D01*
X5673039Y2372410D01*
X5872226Y2172970D01*
X5878474Y2167839D01*
X5885129Y2164283D01*
X5892342Y2162098D01*
X5900369Y2161286D01*
X8329777Y2161286D01*
X8333689Y2160524D01*
X8336991Y2158288D01*
X8501430Y1993849D01*
X8503666Y1990547D01*
X8504428Y1986635D01*
X8504428Y1345031D01*
X8503666Y1341170D01*
X8501430Y1337868D01*
X8499805Y1336243D01*
X8494166Y1328166D01*
X8490051Y1319276D01*
X8487511Y1309776D01*
X8486648Y1299972D01*
X8487511Y1290218D01*
X8490051Y1280718D01*
X8494166Y1271828D01*
X8499805Y1263751D01*
X8506764Y1256842D01*
X8514791Y1251204D01*
X8523732Y1247038D01*
X8533180Y1244498D01*
G37*
G36*
X8288985Y1243634D02*
G01*
X8298789Y1244498D01*
X8308238Y1247038D01*
X8317179Y1251204D01*
X8325205Y1256842D01*
X8332165Y1263751D01*
X8337803Y1271828D01*
X8341918Y1280718D01*
X8344458Y1290218D01*
X8345322Y1299972D01*
X8344458Y1309776D01*
X8341918Y1319276D01*
X8337803Y1328166D01*
X8332165Y1336243D01*
X8330641Y1337767D01*
X8328406Y1341069D01*
X8327644Y1344930D01*
X8327644Y1810512D01*
X8326831Y1818538D01*
X8324646Y1825752D01*
X8321090Y1832457D01*
X8315959Y1838655D01*
X8127695Y2026920D01*
X8121497Y2032050D01*
X8114792Y2035606D01*
X8107578Y2037791D01*
X8099552Y2038604D01*
X5720232Y2038604D01*
X5716320Y2039366D01*
X5713018Y2041601D01*
X5441645Y2312974D01*
X5439410Y2316276D01*
X5438648Y2320188D01*
X5438597Y6780022D01*
X5439359Y6783882D01*
X5441594Y6787184D01*
X5443169Y6788759D01*
X5448808Y6796786D01*
X5452922Y6805726D01*
X5455462Y6815175D01*
X5456326Y6824980D01*
X5455462Y6834784D01*
X5452922Y6844233D01*
X5448808Y6853174D01*
X5443169Y6861200D01*
X5436209Y6868159D01*
X5428183Y6873798D01*
X5419242Y6877913D01*
X5409793Y6880453D01*
X5399989Y6881317D01*
X5390184Y6880453D01*
X5380736Y6877913D01*
X5371795Y6873798D01*
X5363768Y6868159D01*
X5356809Y6861200D01*
X5351170Y6853174D01*
X5347055Y6844233D01*
X5344515Y6834784D01*
X5343652Y6824980D01*
X5344515Y6815175D01*
X5347055Y6805726D01*
X5351170Y6796786D01*
X5356809Y6788759D01*
X5358384Y6787184D01*
X5360619Y6783882D01*
X5361381Y6780022D01*
X5361432Y2300478D01*
X5362244Y2292451D01*
X5364429Y2285238D01*
X5367985Y2278532D01*
X5373116Y2272334D01*
X5672378Y1973072D01*
X5678576Y1967941D01*
X5685282Y1964385D01*
X5692495Y1962200D01*
X5700522Y1961388D01*
X8079841Y1961388D01*
X8083753Y1960625D01*
X8087055Y1958390D01*
X8247430Y1798015D01*
X8249666Y1794713D01*
X8250428Y1790801D01*
X8250428Y1345031D01*
X8249666Y1341170D01*
X8247430Y1337868D01*
X8245805Y1336243D01*
X8240166Y1328166D01*
X8236051Y1319276D01*
X8233511Y1309776D01*
X8232648Y1299972D01*
X8233511Y1290218D01*
X8236051Y1280718D01*
X8240166Y1271828D01*
X8245805Y1263751D01*
X8252764Y1256842D01*
X8260791Y1251204D01*
X8269731Y1247038D01*
X8279180Y1244498D01*
G37*
G36*
X8796985Y1243634D02*
G01*
X8806789Y1244498D01*
X8816238Y1247038D01*
X8825179Y1251204D01*
X8833205Y1256842D01*
X8840165Y1263751D01*
X8845804Y1271828D01*
X8849918Y1280718D01*
X8852458Y1290218D01*
X8853322Y1299972D01*
X8852458Y1309776D01*
X8849918Y1319276D01*
X8845804Y1328166D01*
X8840520Y1335684D01*
X8839149Y1338427D01*
X8838692Y1341526D01*
X8838692Y2149348D01*
X8837879Y2157374D01*
X8835694Y2164588D01*
X8832138Y2171293D01*
X8827008Y2177491D01*
X8577529Y2426970D01*
X8571331Y2432100D01*
X8564626Y2435656D01*
X8557412Y2437841D01*
X8549386Y2438654D01*
X6020206Y2438654D01*
X6016294Y2439416D01*
X6012992Y2441651D01*
X5841695Y2612948D01*
X5839460Y2616250D01*
X5838698Y2620162D01*
X5838596Y5854801D01*
X5839358Y5858662D01*
X5841593Y5861964D01*
X6026912Y6047333D01*
X6032042Y6053582D01*
X6035598Y6060236D01*
X6037783Y6067450D01*
X6038596Y6075476D01*
X6038596Y6780022D01*
X6039358Y6783882D01*
X6041593Y6787184D01*
X6043168Y6788759D01*
X6048806Y6796786D01*
X6052921Y6805726D01*
X6055461Y6815175D01*
X6056325Y6824980D01*
X6055461Y6834784D01*
X6052921Y6844233D01*
X6048806Y6853174D01*
X6043168Y6861200D01*
X6036208Y6868159D01*
X6028182Y6873798D01*
X6019241Y6877913D01*
X6009792Y6880453D01*
X5999988Y6881317D01*
X5990183Y6880453D01*
X5980734Y6877913D01*
X5971794Y6873798D01*
X5963767Y6868159D01*
X5956808Y6861200D01*
X5951169Y6853174D01*
X5947054Y6844233D01*
X5944514Y6834784D01*
X5943650Y6824980D01*
X5944514Y6815175D01*
X5947054Y6805726D01*
X5951169Y6796786D01*
X5956808Y6788759D01*
X5958382Y6787184D01*
X5960618Y6783882D01*
X5961380Y6780022D01*
X5961380Y6095187D01*
X5960618Y6091275D01*
X5958382Y6088024D01*
X5773064Y5902655D01*
X5767933Y5896406D01*
X5764377Y5889752D01*
X5762193Y5882487D01*
X5761380Y5874512D01*
X5761482Y2600452D01*
X5762294Y2592425D01*
X5764479Y2585212D01*
X5768035Y2578506D01*
X5773166Y2572308D01*
X5972352Y2373122D01*
X5978550Y2367991D01*
X5985256Y2364435D01*
X5992469Y2362250D01*
X6000496Y2361438D01*
X8529675Y2361438D01*
X8533587Y2360676D01*
X8536889Y2358440D01*
X8758478Y2136851D01*
X8760714Y2133549D01*
X8761476Y2129637D01*
X8761476Y1348079D01*
X8760714Y1344218D01*
X8758478Y1340916D01*
X8753805Y1336243D01*
X8748166Y1328166D01*
X8744051Y1319276D01*
X8741511Y1309776D01*
X8740648Y1299972D01*
X8741511Y1290218D01*
X8744051Y1280718D01*
X8748166Y1271828D01*
X8753805Y1263751D01*
X8760764Y1256842D01*
X8768791Y1251204D01*
X8777732Y1247038D01*
X8787180Y1244498D01*
G37*
G36*
X5748985Y1743659D02*
G01*
X5758789Y1744522D01*
X5768238Y1747062D01*
X5777179Y1751177D01*
X5785205Y1756816D01*
X5792165Y1763775D01*
X5797804Y1771802D01*
X5801918Y1780743D01*
X5804458Y1790192D01*
X5805322Y1799996D01*
X5804458Y1809800D01*
X5801918Y1819249D01*
X5797804Y1828190D01*
X5792165Y1836216D01*
X5785205Y1843176D01*
X5777179Y1848815D01*
X5768238Y1852930D01*
X5758789Y1855470D01*
X5748985Y1856333D01*
X5739180Y1855470D01*
X5729732Y1852930D01*
X5720791Y1848815D01*
X5712764Y1843176D01*
X5711190Y1841601D01*
X5707888Y1839366D01*
X5703976Y1838604D01*
X5370169Y1838604D01*
X5366308Y1839366D01*
X5363006Y1841601D01*
X5168595Y2036013D01*
X5166360Y2039315D01*
X5165598Y2043175D01*
X5165598Y7446365D01*
X5166309Y7450023D01*
X5168290Y7453223D01*
X5171287Y7455458D01*
X5179212Y7459370D01*
X5190591Y7466990D01*
X5200853Y7475981D01*
X5209895Y7486294D01*
X5217464Y7497673D01*
X5223560Y7509967D01*
X5227929Y7522921D01*
X5230622Y7536332D01*
X5231485Y7549997D01*
X5230622Y7563662D01*
X5227929Y7577074D01*
X5223560Y7590028D01*
X5217464Y7602321D01*
X5209895Y7613700D01*
X5200853Y7623962D01*
X5190591Y7633004D01*
X5179212Y7640574D01*
X5166918Y7646670D01*
X5153964Y7651038D01*
X5140553Y7653731D01*
X5126888Y7654594D01*
X5113223Y7653731D01*
X5099812Y7651038D01*
X5086858Y7646670D01*
X5074564Y7640574D01*
X5063185Y7633004D01*
X5052923Y7623962D01*
X5043881Y7613700D01*
X5036261Y7602321D01*
X5030216Y7590028D01*
X5025796Y7577074D01*
X5023154Y7563662D01*
X5022240Y7549997D01*
X5023154Y7536332D01*
X5025796Y7522921D01*
X5030216Y7509967D01*
X5036261Y7497673D01*
X5043881Y7486294D01*
X5052923Y7475981D01*
X5063185Y7466990D01*
X5074564Y7459370D01*
X5082692Y7455357D01*
X5085689Y7453122D01*
X5087670Y7449921D01*
X5088382Y7446264D01*
X5088382Y2023516D01*
X5089194Y2015489D01*
X5091379Y2008225D01*
X5094935Y2001570D01*
X5100066Y1995322D01*
X5322316Y1773072D01*
X5328564Y1767941D01*
X5335219Y1764385D01*
X5342483Y1762201D01*
X5350510Y1761388D01*
X5703976Y1761388D01*
X5707888Y1760626D01*
X5711190Y1758391D01*
X5712764Y1756816D01*
X5720791Y1751177D01*
X5729732Y1747062D01*
X5739180Y1744522D01*
G37*
G36*
X5999988Y3943654D02*
G01*
X6009792Y3944518D01*
X6019241Y3947058D01*
X6028182Y3951173D01*
X6036208Y3956812D01*
X6043168Y3963771D01*
X6048806Y3971798D01*
X6052921Y3980738D01*
X6055461Y3990187D01*
X6056325Y3999992D01*
X6055461Y4009796D01*
X6052921Y4019245D01*
X6048806Y4028186D01*
X6043168Y4036212D01*
X6041593Y4037787D01*
X6039358Y4041089D01*
X6038596Y4045000D01*
X6038596Y5354980D01*
X6039358Y5358892D01*
X6041593Y5362194D01*
X6043168Y5363768D01*
X6048806Y5371795D01*
X6052921Y5380736D01*
X6055461Y5390184D01*
X6056325Y5399989D01*
X6055461Y5409793D01*
X6052921Y5419242D01*
X6048806Y5428183D01*
X6043168Y5436209D01*
X6036208Y5443169D01*
X6028182Y5448808D01*
X6019241Y5452922D01*
X6009792Y5455462D01*
X5999988Y5456326D01*
X5990183Y5455462D01*
X5980734Y5452922D01*
X5971794Y5448808D01*
X5963767Y5443169D01*
X5956808Y5436209D01*
X5951169Y5428183D01*
X5947054Y5419242D01*
X5944514Y5409793D01*
X5943650Y5399989D01*
X5944514Y5390184D01*
X5947054Y5380736D01*
X5951169Y5371795D01*
X5956808Y5363768D01*
X5958382Y5362194D01*
X5960618Y5358892D01*
X5961380Y5354980D01*
X5961380Y4045000D01*
X5960618Y4041089D01*
X5958382Y4037787D01*
X5956808Y4036212D01*
X5951169Y4028186D01*
X5947054Y4019245D01*
X5944514Y4009796D01*
X5943650Y3999992D01*
X5944514Y3990187D01*
X5947054Y3980738D01*
X5951169Y3971798D01*
X5956808Y3963771D01*
X5963767Y3956812D01*
X5971794Y3951173D01*
X5980734Y3947058D01*
X5990183Y3944518D01*
G37*
G36*
X7500010Y3943654D02*
G01*
X7509764Y3944518D01*
X7519263Y3947058D01*
X7528153Y3951173D01*
X7536230Y3956812D01*
X7543139Y3963771D01*
X7548778Y3971798D01*
X7552944Y3980738D01*
X7555484Y3990187D01*
X7556347Y3999992D01*
X7555484Y4009796D01*
X7552944Y4019245D01*
X7548778Y4028186D01*
X7543139Y4036212D01*
X7541564Y4037787D01*
X7539380Y4041089D01*
X7538618Y4045000D01*
X7538618Y5354980D01*
X7539380Y5358892D01*
X7541564Y5362194D01*
X7543139Y5363768D01*
X7548778Y5371795D01*
X7552944Y5380736D01*
X7555484Y5390184D01*
X7556347Y5399989D01*
X7555484Y5409793D01*
X7552944Y5419242D01*
X7548778Y5428183D01*
X7543139Y5436209D01*
X7541717Y5437682D01*
X7539481Y5440984D01*
X7538720Y5444845D01*
X7538618Y8654999D01*
X7539380Y8658860D01*
X7541564Y8662162D01*
X7543139Y8663736D01*
X7548778Y8671814D01*
X7552944Y8680704D01*
X7555484Y8690203D01*
X7556347Y8699957D01*
X7555484Y8709761D01*
X7552944Y8719261D01*
X7548778Y8728151D01*
X7543139Y8736228D01*
X7536230Y8743137D01*
X7528153Y8748776D01*
X7519263Y8752941D01*
X7509764Y8755481D01*
X7500010Y8756345D01*
X7490206Y8755481D01*
X7480706Y8752941D01*
X7471816Y8748776D01*
X7463739Y8743137D01*
X7456830Y8736228D01*
X7451191Y8728151D01*
X7447025Y8719261D01*
X7444486Y8709761D01*
X7443622Y8699957D01*
X7444486Y8690203D01*
X7447025Y8680704D01*
X7451191Y8671814D01*
X7456830Y8663736D01*
X7458405Y8662162D01*
X7460589Y8658860D01*
X7461402Y8654999D01*
X7461503Y5445099D01*
X7460742Y5441238D01*
X7458506Y5437936D01*
X7456830Y5436209D01*
X7451191Y5428183D01*
X7447025Y5419242D01*
X7444486Y5409793D01*
X7443622Y5399989D01*
X7444486Y5390184D01*
X7447025Y5380736D01*
X7451191Y5371795D01*
X7456830Y5363768D01*
X7458405Y5362194D01*
X7460589Y5358892D01*
X7461402Y5354980D01*
X7461402Y4045000D01*
X7460589Y4041089D01*
X7458405Y4037787D01*
X7456830Y4036212D01*
X7451191Y4028186D01*
X7447025Y4019245D01*
X7444486Y4009796D01*
X7443622Y3999992D01*
X7444486Y3990187D01*
X7447025Y3980738D01*
X7451191Y3971798D01*
X7456830Y3963771D01*
X7463739Y3956812D01*
X7471816Y3951173D01*
X7480706Y3947058D01*
X7490206Y3944518D01*
G37*
G36*
X6999986Y3943654D02*
G01*
X7009790Y3944518D01*
X7019239Y3947058D01*
X7028180Y3951173D01*
X7036206Y3956812D01*
X7043166Y3963771D01*
X7048804Y3971798D01*
X7052919Y3980738D01*
X7055459Y3990187D01*
X7056323Y3999992D01*
X7055459Y4009796D01*
X7052919Y4019245D01*
X7048804Y4028186D01*
X7043166Y4036212D01*
X7041591Y4037787D01*
X7039356Y4041089D01*
X7038594Y4045000D01*
X7038594Y5354980D01*
X7039356Y5358892D01*
X7041591Y5362194D01*
X7043166Y5363768D01*
X7048804Y5371795D01*
X7052919Y5380736D01*
X7055459Y5390184D01*
X7056323Y5399989D01*
X7055459Y5409793D01*
X7052919Y5419242D01*
X7048804Y5428183D01*
X7042708Y5436819D01*
X7041388Y5439562D01*
X7040880Y5442661D01*
X7040880Y8957310D01*
X7041388Y8960408D01*
X7042708Y8963152D01*
X7048804Y8971788D01*
X7052919Y8980728D01*
X7055459Y8990177D01*
X7056323Y8999982D01*
X7055459Y9009786D01*
X7052919Y9019235D01*
X7048804Y9028176D01*
X7043166Y9036202D01*
X7036206Y9043162D01*
X7028180Y9048800D01*
X7019239Y9052915D01*
X7009790Y9055455D01*
X6999986Y9056319D01*
X6990181Y9055455D01*
X6980732Y9052915D01*
X6971792Y9048800D01*
X6963765Y9043162D01*
X6956806Y9036202D01*
X6951167Y9028176D01*
X6947052Y9019235D01*
X6944512Y9009786D01*
X6943648Y8999982D01*
X6944512Y8990177D01*
X6947052Y8980728D01*
X6951167Y8971788D01*
X6957263Y8963152D01*
X6958584Y8960408D01*
X6959092Y8957310D01*
X6959092Y5442661D01*
X6958584Y5439562D01*
X6957263Y5436819D01*
X6951167Y5428183D01*
X6947052Y5419242D01*
X6944512Y5409793D01*
X6943648Y5399989D01*
X6944512Y5390184D01*
X6947052Y5380736D01*
X6951167Y5371795D01*
X6956806Y5363768D01*
X6958380Y5362194D01*
X6960616Y5358892D01*
X6961378Y5354980D01*
X6961378Y4045000D01*
X6960616Y4041089D01*
X6958380Y4037787D01*
X6956806Y4036212D01*
X6951167Y4028186D01*
X6947052Y4019245D01*
X6944512Y4009796D01*
X6943648Y3999992D01*
X6944512Y3990187D01*
X6947052Y3980738D01*
X6951167Y3971798D01*
X6956806Y3963771D01*
X6963765Y3956812D01*
X6971792Y3951173D01*
X6980732Y3947058D01*
X6990181Y3944518D01*
G37*
G36*
X7999984Y3943654D02*
G01*
X8009788Y3944518D01*
X8019237Y3947058D01*
X8028178Y3951173D01*
X8036204Y3956812D01*
X8043164Y3963771D01*
X8048802Y3971798D01*
X8052917Y3980738D01*
X8055457Y3990187D01*
X8056321Y3999992D01*
X8055457Y4009796D01*
X8052917Y4019245D01*
X8048802Y4028186D01*
X8043164Y4036212D01*
X8041589Y4037787D01*
X8039353Y4041089D01*
X8038592Y4045000D01*
X8038592Y5354980D01*
X8039353Y5358892D01*
X8041589Y5362194D01*
X8043164Y5363768D01*
X8048802Y5371795D01*
X8052917Y5380736D01*
X8055457Y5390184D01*
X8056321Y5399989D01*
X8055457Y5409793D01*
X8052917Y5419242D01*
X8048802Y5428183D01*
X8043164Y5436209D01*
X8041589Y5437784D01*
X8039353Y5441086D01*
X8038592Y5444998D01*
X8038592Y8954973D01*
X8039353Y8958884D01*
X8041589Y8962186D01*
X8043164Y8963761D01*
X8048802Y8971788D01*
X8052917Y8980728D01*
X8055457Y8990177D01*
X8056321Y8999982D01*
X8055457Y9009786D01*
X8052917Y9019235D01*
X8048802Y9028176D01*
X8043164Y9036202D01*
X8036204Y9043162D01*
X8028178Y9048800D01*
X8019237Y9052915D01*
X8009788Y9055455D01*
X7999984Y9056319D01*
X7990179Y9055455D01*
X7980730Y9052915D01*
X7971790Y9048800D01*
X7963763Y9043162D01*
X7956803Y9036202D01*
X7951165Y9028176D01*
X7947050Y9019235D01*
X7944510Y9009786D01*
X7943646Y8999982D01*
X7944510Y8990177D01*
X7947050Y8980728D01*
X7951165Y8971788D01*
X7956803Y8963761D01*
X7958378Y8962186D01*
X7960614Y8958884D01*
X7961375Y8954973D01*
X7961375Y5444998D01*
X7960614Y5441086D01*
X7958378Y5437784D01*
X7956803Y5436209D01*
X7951165Y5428183D01*
X7947050Y5419242D01*
X7944510Y5409793D01*
X7943646Y5399989D01*
X7944510Y5390184D01*
X7947050Y5380736D01*
X7951165Y5371795D01*
X7956803Y5363768D01*
X7958378Y5362194D01*
X7960614Y5358892D01*
X7961375Y5354980D01*
X7961375Y4045000D01*
X7960614Y4041089D01*
X7958378Y4037787D01*
X7956803Y4036212D01*
X7951165Y4028186D01*
X7947050Y4019245D01*
X7944510Y4009796D01*
X7943646Y3999992D01*
X7944510Y3990187D01*
X7947050Y3980738D01*
X7951165Y3971798D01*
X7956803Y3963771D01*
X7963763Y3956812D01*
X7971790Y3951173D01*
X7980730Y3947058D01*
X7990179Y3944518D01*
G37*
G36*
X7749997Y3943654D02*
G01*
X7759750Y3944518D01*
X7769250Y3947058D01*
X7778140Y3951173D01*
X7786217Y3956812D01*
X7793126Y3963771D01*
X7798765Y3971798D01*
X7802930Y3980738D01*
X7805470Y3990187D01*
X7806334Y3999992D01*
X7805470Y4009796D01*
X7802930Y4019245D01*
X7798765Y4028186D01*
X7793126Y4036212D01*
X7791602Y4037787D01*
X7789367Y4041089D01*
X7788605Y4044950D01*
X7788605Y5354980D01*
X7789367Y5358892D01*
X7791602Y5362194D01*
X7793177Y5363768D01*
X7798816Y5371795D01*
X7802930Y5380736D01*
X7805470Y5390184D01*
X7806334Y5399989D01*
X7805470Y5409793D01*
X7802930Y5419242D01*
X7798816Y5428183D01*
X7793177Y5436209D01*
X7791653Y5437733D01*
X7789418Y5441035D01*
X7788656Y5444947D01*
X7788656Y8955024D01*
X7789418Y8958935D01*
X7791653Y8962237D01*
X7793177Y8963761D01*
X7798816Y8971788D01*
X7802930Y8980728D01*
X7805470Y8990177D01*
X7806334Y8999982D01*
X7805470Y9009786D01*
X7802930Y9019235D01*
X7798816Y9028176D01*
X7793177Y9036202D01*
X7786217Y9043162D01*
X7778191Y9048800D01*
X7769250Y9052915D01*
X7759801Y9055455D01*
X7749997Y9056319D01*
X7740192Y9055455D01*
X7730744Y9052915D01*
X7721803Y9048800D01*
X7713776Y9043162D01*
X7706817Y9036202D01*
X7701178Y9028176D01*
X7697063Y9019235D01*
X7694523Y9009786D01*
X7693659Y8999982D01*
X7694523Y8990177D01*
X7697063Y8980728D01*
X7701178Y8971788D01*
X7706817Y8963761D01*
X7708442Y8962136D01*
X7710678Y8958834D01*
X7711440Y8954922D01*
X7711440Y5445048D01*
X7710678Y5441137D01*
X7708442Y5437835D01*
X7706817Y5436209D01*
X7701178Y5428183D01*
X7697063Y5419242D01*
X7694523Y5409793D01*
X7693659Y5399989D01*
X7694523Y5390184D01*
X7697063Y5380736D01*
X7701178Y5371795D01*
X7706817Y5363768D01*
X7708392Y5362194D01*
X7710627Y5358892D01*
X7711389Y5354980D01*
X7711389Y4045000D01*
X7710627Y4041089D01*
X7708392Y4037787D01*
X7706817Y4036212D01*
X7701178Y4028186D01*
X7697012Y4019245D01*
X7694472Y4009796D01*
X7693659Y3999992D01*
X7694472Y3990187D01*
X7697012Y3980738D01*
X7701178Y3971798D01*
X7706817Y3963771D01*
X7713776Y3956812D01*
X7721803Y3951173D01*
X7730693Y3947058D01*
X7740192Y3944518D01*
G37*
G36*
X6249974Y3943654D02*
G01*
X6259779Y3944518D01*
X6269278Y3947058D01*
X6278168Y3951173D01*
X6286195Y3956812D01*
X6293154Y3963771D01*
X6298793Y3971798D01*
X6302959Y3980738D01*
X6305499Y3990187D01*
X6306312Y3999992D01*
X6305499Y4009796D01*
X6302959Y4019245D01*
X6298793Y4028186D01*
X6293154Y4036212D01*
X6291580Y4037787D01*
X6289395Y4041089D01*
X6288633Y4044950D01*
X6288633Y5354980D01*
X6289395Y5358892D01*
X6291580Y5362194D01*
X6293154Y5363768D01*
X6298793Y5371795D01*
X6302959Y5380736D01*
X6305499Y5390184D01*
X6305905Y5394807D01*
X6306820Y5398211D01*
X6308852Y5401106D01*
X6328511Y5420817D01*
X6333947Y5427370D01*
X6337706Y5434431D01*
X6340043Y5442102D01*
X6340856Y5450586D01*
X6340856Y8578799D01*
X6341668Y8582660D01*
X6343853Y8585962D01*
X6428587Y8670747D01*
X6434023Y8677300D01*
X6437782Y8684361D01*
X6439204Y8689035D01*
X6441186Y8692642D01*
X6444386Y8695182D01*
X6448348Y8696248D01*
X6452412Y8695639D01*
X6455918Y8693505D01*
X6458254Y8690102D01*
X6459067Y8686088D01*
X6459220Y5442813D01*
X6458712Y5439765D01*
X6457340Y5436971D01*
X6451193Y5428183D01*
X6447028Y5419242D01*
X6444488Y5409793D01*
X6443624Y5399989D01*
X6444488Y5390184D01*
X6447028Y5380736D01*
X6451193Y5371795D01*
X6456832Y5363768D01*
X6458407Y5362194D01*
X6460591Y5358892D01*
X6461404Y5354980D01*
X6461404Y4045000D01*
X6460591Y4041089D01*
X6458407Y4037787D01*
X6456832Y4036212D01*
X6451193Y4028186D01*
X6447028Y4019245D01*
X6444488Y4009796D01*
X6443624Y3999992D01*
X6444488Y3990187D01*
X6447028Y3980738D01*
X6451193Y3971798D01*
X6456832Y3963771D01*
X6463741Y3956812D01*
X6471818Y3951173D01*
X6480708Y3947058D01*
X6490208Y3944518D01*
X6500012Y3943654D01*
X6509766Y3944518D01*
X6519265Y3947058D01*
X6528155Y3951173D01*
X6536232Y3956812D01*
X6543141Y3963771D01*
X6548780Y3971798D01*
X6552946Y3980738D01*
X6555486Y3990187D01*
X6556349Y3999992D01*
X6555486Y4009796D01*
X6552946Y4019245D01*
X6548780Y4028186D01*
X6543141Y4036212D01*
X6541566Y4037787D01*
X6539382Y4041089D01*
X6538620Y4045000D01*
X6538620Y5354980D01*
X6539382Y5358892D01*
X6541566Y5362194D01*
X6543141Y5363768D01*
X6548780Y5371795D01*
X6552946Y5380736D01*
X6555486Y5390184D01*
X6556349Y5399989D01*
X6555486Y5409793D01*
X6552946Y5419242D01*
X6548780Y5428183D01*
X6542836Y5436616D01*
X6541516Y5439410D01*
X6541007Y5442458D01*
X6540906Y8957310D01*
X6541363Y8960408D01*
X6542735Y8963152D01*
X6548780Y8971788D01*
X6552946Y8980728D01*
X6555486Y8990177D01*
X6556349Y8999982D01*
X6555486Y9009786D01*
X6552946Y9019235D01*
X6548780Y9028176D01*
X6543141Y9036202D01*
X6536232Y9043162D01*
X6528155Y9048800D01*
X6519265Y9052915D01*
X6509766Y9055455D01*
X6500012Y9056319D01*
X6490208Y9055455D01*
X6480708Y9052915D01*
X6471818Y9048800D01*
X6463741Y9043162D01*
X6458305Y9037675D01*
X6455003Y9035491D01*
X6451092Y9034678D01*
X6447231Y9035491D01*
X6443929Y9037675D01*
X6441744Y9040977D01*
X6440932Y9044838D01*
X6440932Y9057386D01*
X6441440Y9060484D01*
X6442760Y9063228D01*
X6448806Y9071813D01*
X6452920Y9080703D01*
X6455460Y9090202D01*
X6456324Y9099956D01*
X6455460Y9109760D01*
X6452920Y9119260D01*
X6448806Y9128150D01*
X6443167Y9136227D01*
X6436207Y9143136D01*
X6428181Y9148775D01*
X6419240Y9152940D01*
X6409791Y9155480D01*
X6399987Y9156344D01*
X6390182Y9155480D01*
X6380734Y9152940D01*
X6371793Y9148775D01*
X6363766Y9143136D01*
X6356807Y9136227D01*
X6351168Y9128150D01*
X6347053Y9119260D01*
X6344513Y9109760D01*
X6343650Y9099956D01*
X6344513Y9090202D01*
X6347053Y9080703D01*
X6351168Y9071813D01*
X6357315Y9063075D01*
X6358636Y9060332D01*
X6359144Y9057284D01*
X6359144Y8721140D01*
X6358382Y8717280D01*
X6356146Y8713978D01*
X6271412Y8629192D01*
X6265976Y8622639D01*
X6262217Y8615578D01*
X6259880Y8607907D01*
X6259068Y8599424D01*
X6259068Y7594041D01*
X6258052Y7589621D01*
X6255258Y7586116D01*
X6251194Y7584135D01*
X6246672Y7584135D01*
X6242608Y7586014D01*
X6239764Y7589520D01*
X6233464Y7602321D01*
X6225895Y7613700D01*
X6216853Y7623962D01*
X6206591Y7633004D01*
X6195212Y7640574D01*
X6182918Y7646670D01*
X6169964Y7651038D01*
X6156553Y7653731D01*
X6142888Y7654594D01*
X6129223Y7653731D01*
X6115812Y7651038D01*
X6102858Y7646670D01*
X6090564Y7640574D01*
X6079185Y7633004D01*
X6068923Y7623962D01*
X6059881Y7613700D01*
X6052261Y7602321D01*
X6046216Y7590028D01*
X6041796Y7577074D01*
X6039154Y7563662D01*
X6038240Y7549997D01*
X6039154Y7536332D01*
X6041796Y7522921D01*
X6046216Y7509967D01*
X6052261Y7497673D01*
X6059881Y7486294D01*
X6068923Y7475981D01*
X6079185Y7466990D01*
X6090564Y7459370D01*
X6102858Y7453325D01*
X6115812Y7448905D01*
X6129223Y7446264D01*
X6142888Y7445349D01*
X6156553Y7446264D01*
X6169964Y7448905D01*
X6182918Y7453325D01*
X6195212Y7459370D01*
X6206591Y7466990D01*
X6216853Y7475981D01*
X6225895Y7486294D01*
X6233464Y7497673D01*
X6239764Y7510424D01*
X6242608Y7513929D01*
X6246672Y7515859D01*
X6251194Y7515809D01*
X6255258Y7513878D01*
X6258052Y7510322D01*
X6259068Y7505953D01*
X6259068Y5471210D01*
X6258306Y5467350D01*
X6256070Y5464048D01*
X6250838Y5458815D01*
X6247942Y5456783D01*
X6244539Y5455869D01*
X6240221Y5455462D01*
X6230721Y5452922D01*
X6221831Y5448808D01*
X6213754Y5443169D01*
X6206845Y5436209D01*
X6201206Y5428183D01*
X6197041Y5419242D01*
X6194501Y5409793D01*
X6193637Y5399989D01*
X6194501Y5390184D01*
X6197041Y5380736D01*
X6201206Y5371795D01*
X6206845Y5363768D01*
X6208420Y5362194D01*
X6210604Y5358892D01*
X6211417Y5354980D01*
X6211417Y4045000D01*
X6210604Y4041089D01*
X6208420Y4037787D01*
X6206845Y4036212D01*
X6201206Y4028186D01*
X6197041Y4019245D01*
X6194501Y4009796D01*
X6193637Y3999992D01*
X6194501Y3990187D01*
X6197041Y3980738D01*
X6201206Y3971798D01*
X6206845Y3963771D01*
X6213754Y3956812D01*
X6221831Y3951173D01*
X6230721Y3947058D01*
X6240221Y3944518D01*
G37*
G36*
X8300008Y3943654D02*
G01*
X8309762Y3944518D01*
X8319262Y3947058D01*
X8328152Y3951173D01*
X8336229Y3956812D01*
X8343138Y3963771D01*
X8348776Y3971798D01*
X8352942Y3980738D01*
X8355482Y3990187D01*
X8356346Y3999992D01*
X8355482Y4009796D01*
X8352942Y4019245D01*
X8348776Y4028186D01*
X8343138Y4036212D01*
X8341563Y4037787D01*
X8339378Y4041089D01*
X8338616Y4045000D01*
X8338616Y5354980D01*
X8339378Y5358892D01*
X8341563Y5362194D01*
X8343138Y5363768D01*
X8348776Y5371795D01*
X8352942Y5380736D01*
X8355482Y5390184D01*
X8356346Y5399989D01*
X8355482Y5409793D01*
X8352942Y5419242D01*
X8348776Y5428183D01*
X8343138Y5436209D01*
X8341563Y5437835D01*
X8339328Y5441137D01*
X8338566Y5444998D01*
X8338566Y8899398D01*
X8337753Y8907424D01*
X8335568Y8914638D01*
X8332012Y8921343D01*
X8326881Y8927541D01*
X7927543Y9326880D01*
X7921345Y9332010D01*
X7914640Y9335566D01*
X7907426Y9337751D01*
X7899400Y9338564D01*
X6150610Y9338564D01*
X6142583Y9337751D01*
X6135370Y9335566D01*
X6128664Y9332010D01*
X6122466Y9326880D01*
X6037021Y9241485D01*
X6033719Y9239250D01*
X6029807Y9238488D01*
X5999683Y9238488D01*
X5995517Y9239351D01*
X5992114Y9241891D01*
X5989980Y9245549D01*
X5989574Y9249765D01*
X5990894Y9253778D01*
X5993739Y9256928D01*
X6001867Y9262719D01*
X6010351Y9270898D01*
X6017564Y9280245D01*
X6023508Y9291015D01*
X5983935Y9291015D01*
X5983935Y9248648D01*
X5983173Y9244736D01*
X5980988Y9241485D01*
X5977686Y9239250D01*
X5973775Y9238488D01*
X5926429Y9238488D01*
X5922518Y9239250D01*
X5919216Y9241485D01*
X5917031Y9244736D01*
X5916269Y9248648D01*
X5916269Y9291015D01*
X5876899Y9291015D01*
X5879592Y9285274D01*
X5886094Y9275419D01*
X5893968Y9266631D01*
X5903061Y9259062D01*
X5911850Y9253575D01*
X5914898Y9250629D01*
X5916472Y9246717D01*
X5916320Y9242501D01*
X5914491Y9238691D01*
X5911240Y9235998D01*
X5903671Y9231985D01*
X5897473Y9226854D01*
X5876899Y9206382D01*
X5874258Y9204502D01*
X5871159Y9203537D01*
X5867908Y9203588D01*
X5858967Y9205264D01*
X5847130Y9205671D01*
X5835396Y9204401D01*
X5823966Y9201404D01*
X5813145Y9196781D01*
X5803036Y9190634D01*
X5793943Y9183116D01*
X5786069Y9174276D01*
X5779566Y9164472D01*
X5774537Y9153753D01*
X5771184Y9142476D01*
X5769457Y9130792D01*
X5769457Y9118955D01*
X5771184Y9107271D01*
X5774537Y9095994D01*
X5779566Y9085275D01*
X5786069Y9075420D01*
X5793943Y9066631D01*
X5803036Y9059113D01*
X5813145Y9052915D01*
X5823966Y9048343D01*
X5835396Y9045346D01*
X5847130Y9044025D01*
X5858967Y9044482D01*
X5870549Y9046616D01*
X5881725Y9050426D01*
X5892241Y9055811D01*
X5901842Y9062720D01*
X5910326Y9070898D01*
X5917539Y9080246D01*
X5923330Y9090558D01*
X5927547Y9101582D01*
X5930138Y9113113D01*
X5931001Y9124848D01*
X5930138Y9136634D01*
X5928817Y9142476D01*
X5928664Y9145828D01*
X5929579Y9149080D01*
X5931560Y9151874D01*
X5938062Y9158325D01*
X5941314Y9160510D01*
X5945225Y9161272D01*
X6049518Y9161272D01*
X6057544Y9162084D01*
X6064758Y9164269D01*
X6071463Y9167825D01*
X6077661Y9172956D01*
X6163106Y9258350D01*
X6166408Y9260586D01*
X6170320Y9261348D01*
X7879689Y9261348D01*
X7883601Y9260586D01*
X7886903Y9258350D01*
X8258352Y8886901D01*
X8260588Y8883599D01*
X8261350Y8879687D01*
X8261350Y5444947D01*
X8260588Y5441086D01*
X8258352Y5437784D01*
X8256828Y5436209D01*
X8251190Y5428183D01*
X8247024Y5419242D01*
X8244484Y5409793D01*
X8243620Y5399989D01*
X8244484Y5390184D01*
X8247024Y5380736D01*
X8251190Y5371795D01*
X8256828Y5363768D01*
X8258403Y5362194D01*
X8260588Y5358892D01*
X8261400Y5354980D01*
X8261400Y4045000D01*
X8260588Y4041089D01*
X8258403Y4037787D01*
X8256828Y4036212D01*
X8251190Y4028186D01*
X8247024Y4019245D01*
X8244484Y4009796D01*
X8243620Y3999992D01*
X8244484Y3990187D01*
X8247024Y3980738D01*
X8251190Y3971798D01*
X8256828Y3963771D01*
X8263737Y3956812D01*
X8271814Y3951173D01*
X8280704Y3947058D01*
X8290204Y3944518D01*
G37*
G36*
X8766200Y4289298D02*
G01*
X8783574Y4289298D01*
X8800896Y4291228D01*
X8817914Y4294936D01*
X8834424Y4300524D01*
X8850274Y4307840D01*
X8865158Y4316831D01*
X8879027Y4327347D01*
X8891676Y4339336D01*
X8902954Y4352594D01*
X8912758Y4367022D01*
X8920886Y4382414D01*
X8927338Y4398619D01*
X8932011Y4415383D01*
X8934856Y4432604D01*
X8935770Y4449978D01*
X8934856Y4467352D01*
X8932011Y4484573D01*
X8927338Y4501337D01*
X8920886Y4517542D01*
X8912758Y4532934D01*
X8902954Y4547362D01*
X8891676Y4560620D01*
X8879027Y4572609D01*
X8865158Y4583125D01*
X8850274Y4592116D01*
X8834424Y4599432D01*
X8817914Y4605020D01*
X8800896Y4608728D01*
X8783574Y4610658D01*
X8766200Y4610658D01*
X8748877Y4608728D01*
X8731859Y4605020D01*
X8715349Y4599432D01*
X8699500Y4592116D01*
X8684615Y4583125D01*
X8670747Y4572609D01*
X8658098Y4560620D01*
X8646820Y4547362D01*
X8637016Y4532934D01*
X8628888Y4517542D01*
X8622436Y4501337D01*
X8617762Y4484573D01*
X8614918Y4467352D01*
X8614003Y4449978D01*
X8614918Y4432604D01*
X8617762Y4415383D01*
X8622436Y4398619D01*
X8628888Y4382414D01*
X8637016Y4367022D01*
X8646820Y4352594D01*
X8658098Y4339336D01*
X8670747Y4327347D01*
X8684615Y4316831D01*
X8699500Y4307840D01*
X8715349Y4300524D01*
X8731859Y4294936D01*
X8748877Y4291228D01*
G37*
G36*
X1266190Y4289298D02*
G01*
X1283614Y4289298D01*
X1300937Y4291228D01*
X1317955Y4294936D01*
X1334465Y4300524D01*
X1350264Y4307840D01*
X1365199Y4316831D01*
X1379067Y4327347D01*
X1391716Y4339336D01*
X1402994Y4352594D01*
X1412748Y4367022D01*
X1420926Y4382414D01*
X1427378Y4398619D01*
X1432052Y4415383D01*
X1434846Y4432604D01*
X1435811Y4449978D01*
X1434846Y4467352D01*
X1432052Y4484573D01*
X1427378Y4501337D01*
X1420926Y4517542D01*
X1412748Y4532934D01*
X1402994Y4547362D01*
X1391716Y4560620D01*
X1379067Y4572609D01*
X1365199Y4583125D01*
X1350264Y4592116D01*
X1334465Y4599432D01*
X1317955Y4605020D01*
X1300937Y4608728D01*
X1283614Y4610658D01*
X1266190Y4610658D01*
X1248867Y4608728D01*
X1231849Y4605020D01*
X1215339Y4599432D01*
X1199540Y4592116D01*
X1184605Y4583125D01*
X1170736Y4572609D01*
X1158087Y4560620D01*
X1146810Y4547362D01*
X1137056Y4532934D01*
X1128877Y4517542D01*
X1122426Y4501337D01*
X1117752Y4484573D01*
X1114958Y4467352D01*
X1113993Y4449978D01*
X1114958Y4432604D01*
X1117752Y4415383D01*
X1122426Y4398619D01*
X1128877Y4382414D01*
X1137056Y4367022D01*
X1146810Y4352594D01*
X1158087Y4339336D01*
X1170736Y4327347D01*
X1184605Y4316831D01*
X1199540Y4307840D01*
X1215339Y4300524D01*
X1231849Y4294936D01*
X1248867Y4291228D01*
G37*
G36*
X6750050Y5193588D02*
G01*
X6759854Y5194452D01*
X6769303Y5196992D01*
X6778244Y5201107D01*
X6786270Y5206746D01*
X6793230Y5213705D01*
X6798868Y5221732D01*
X6802983Y5230672D01*
X6805523Y5240121D01*
X6806387Y5249926D01*
X6805523Y5259730D01*
X6802983Y5269179D01*
X6798868Y5278120D01*
X6792772Y5286756D01*
X6791452Y5289499D01*
X6790944Y5292598D01*
X6790893Y8207298D01*
X6791350Y8210346D01*
X6792722Y8213140D01*
X6798818Y8221776D01*
X6802932Y8230717D01*
X6805472Y8240166D01*
X6806336Y8249970D01*
X6805472Y8259775D01*
X6802932Y8269224D01*
X6798818Y8278164D01*
X6793179Y8286191D01*
X6786219Y8293150D01*
X6778193Y8298789D01*
X6769252Y8302904D01*
X6759803Y8305444D01*
X6749999Y8306308D01*
X6740194Y8305444D01*
X6730746Y8302904D01*
X6721805Y8298789D01*
X6713778Y8293150D01*
X6706819Y8286191D01*
X6701180Y8278164D01*
X6697065Y8269224D01*
X6694525Y8259775D01*
X6693662Y8249970D01*
X6694525Y8240166D01*
X6697065Y8230717D01*
X6701180Y8221776D01*
X6707225Y8213191D01*
X6708597Y8210397D01*
X6709054Y8207349D01*
X6709156Y5292598D01*
X6708648Y5289499D01*
X6707327Y5286756D01*
X6701231Y5278120D01*
X6697116Y5269179D01*
X6694576Y5259730D01*
X6693712Y5249926D01*
X6694576Y5240121D01*
X6697116Y5230672D01*
X6701231Y5221732D01*
X6706870Y5213705D01*
X6713829Y5206746D01*
X6721856Y5201107D01*
X6730796Y5196992D01*
X6740245Y5194452D01*
G37*
G36*
X8766200Y7389317D02*
G01*
X8783574Y7389317D01*
X8800896Y7391196D01*
X8817914Y7394956D01*
X8834424Y7400493D01*
X8850274Y7407808D01*
X8865158Y7416800D01*
X8879027Y7427366D01*
X8891676Y7439304D01*
X8902954Y7452614D01*
X8912758Y7467041D01*
X8920886Y7482433D01*
X8927338Y7498588D01*
X8932011Y7515402D01*
X8934856Y7532573D01*
X8935770Y7549946D01*
X8934856Y7567371D01*
X8932011Y7584541D01*
X8927338Y7601356D01*
X8920886Y7617510D01*
X8912758Y7632903D01*
X8902954Y7647330D01*
X8891676Y7660640D01*
X8879027Y7672578D01*
X8865158Y7683144D01*
X8850274Y7692136D01*
X8834424Y7699451D01*
X8817914Y7704988D01*
X8800896Y7708747D01*
X8783574Y7710627D01*
X8766200Y7710627D01*
X8748877Y7708747D01*
X8731859Y7704988D01*
X8715349Y7699451D01*
X8699500Y7692136D01*
X8684615Y7683144D01*
X8670747Y7672578D01*
X8658098Y7660640D01*
X8646820Y7647330D01*
X8637016Y7632903D01*
X8628888Y7617510D01*
X8622436Y7601356D01*
X8617762Y7584541D01*
X8614918Y7567371D01*
X8614003Y7549946D01*
X8614918Y7532573D01*
X8617762Y7515402D01*
X8622436Y7498588D01*
X8628888Y7482433D01*
X8637016Y7467041D01*
X8646820Y7452614D01*
X8658098Y7439304D01*
X8670747Y7427366D01*
X8684615Y7416800D01*
X8699500Y7407808D01*
X8715349Y7400493D01*
X8731859Y7394956D01*
X8748877Y7391196D01*
G37*
G36*
X1266190Y7389317D02*
G01*
X1283614Y7389317D01*
X1300937Y7391196D01*
X1317955Y7394956D01*
X1334465Y7400493D01*
X1350264Y7407808D01*
X1365199Y7416800D01*
X1379067Y7427366D01*
X1391716Y7439304D01*
X1402994Y7452614D01*
X1412748Y7467041D01*
X1420926Y7482433D01*
X1427378Y7498588D01*
X1432052Y7515402D01*
X1434846Y7532573D01*
X1435811Y7549946D01*
X1434846Y7567371D01*
X1432052Y7584541D01*
X1427378Y7601356D01*
X1420926Y7617510D01*
X1412748Y7632903D01*
X1402994Y7647330D01*
X1391716Y7660640D01*
X1379067Y7672578D01*
X1365199Y7683144D01*
X1350264Y7692136D01*
X1334465Y7699451D01*
X1317955Y7704988D01*
X1300937Y7708747D01*
X1283614Y7710627D01*
X1266190Y7710627D01*
X1248867Y7708747D01*
X1231849Y7704988D01*
X1215339Y7699451D01*
X1199540Y7692136D01*
X1184605Y7683144D01*
X1170736Y7672578D01*
X1158087Y7660640D01*
X1146810Y7647330D01*
X1137056Y7632903D01*
X1128877Y7617510D01*
X1122426Y7601356D01*
X1117752Y7584541D01*
X1114958Y7567371D01*
X1113993Y7549946D01*
X1114958Y7532573D01*
X1117752Y7515402D01*
X1122426Y7498588D01*
X1128877Y7482433D01*
X1137056Y7467041D01*
X1146810Y7452614D01*
X1158087Y7439304D01*
X1170736Y7427366D01*
X1184605Y7416800D01*
X1199540Y7407808D01*
X1215339Y7400493D01*
X1231849Y7394956D01*
X1248867Y7391196D01*
G37*
G36*
X1746707Y7445349D02*
G01*
X1779168Y7445349D01*
X1779168Y7504277D01*
X1720240Y7504277D01*
X1720240Y7471816D01*
X1720951Y7465517D01*
X1722831Y7460030D01*
X1725930Y7455153D01*
X1730044Y7451039D01*
X1734921Y7447940D01*
X1740407Y7446060D01*
G37*
G36*
X1870608Y7445349D02*
G01*
X1903069Y7445349D01*
X1909368Y7446060D01*
X1914855Y7447940D01*
X1919732Y7451039D01*
X1923846Y7455153D01*
X1926894Y7460030D01*
X1928825Y7465517D01*
X1929536Y7471816D01*
X1929536Y7504277D01*
X1870608Y7504277D01*
G37*
G36*
X5888888Y7445349D02*
G01*
X5902553Y7446264D01*
X5915964Y7448905D01*
X5928918Y7453325D01*
X5941212Y7459370D01*
X5952591Y7466990D01*
X5962853Y7475981D01*
X5971895Y7486294D01*
X5979464Y7497673D01*
X5985560Y7509967D01*
X5989929Y7522921D01*
X5992622Y7536332D01*
X5993485Y7549997D01*
X5992622Y7563662D01*
X5989929Y7577074D01*
X5985560Y7590028D01*
X5979464Y7602321D01*
X5971895Y7613700D01*
X5962853Y7623962D01*
X5952591Y7633004D01*
X5941212Y7640574D01*
X5928918Y7646670D01*
X5915964Y7651038D01*
X5902553Y7653731D01*
X5888888Y7654594D01*
X5875223Y7653731D01*
X5861812Y7651038D01*
X5848858Y7646670D01*
X5836564Y7640574D01*
X5825185Y7633004D01*
X5814923Y7623962D01*
X5805881Y7613700D01*
X5798261Y7602321D01*
X5792216Y7590028D01*
X5787796Y7577074D01*
X5785154Y7563662D01*
X5784240Y7549997D01*
X5785154Y7536332D01*
X5787796Y7522921D01*
X5792216Y7509967D01*
X5798261Y7497673D01*
X5805881Y7486294D01*
X5814923Y7475981D01*
X5825185Y7466990D01*
X5836564Y7459370D01*
X5848858Y7453325D01*
X5861812Y7448905D01*
X5875223Y7446264D01*
G37*
G36*
X5634888Y7445349D02*
G01*
X5648553Y7446264D01*
X5661964Y7448905D01*
X5674918Y7453325D01*
X5687212Y7459370D01*
X5698591Y7466990D01*
X5708853Y7475981D01*
X5717895Y7486294D01*
X5725464Y7497673D01*
X5731560Y7509967D01*
X5735929Y7522921D01*
X5738622Y7536332D01*
X5739485Y7549997D01*
X5738622Y7563662D01*
X5735929Y7577074D01*
X5731560Y7590028D01*
X5725464Y7602321D01*
X5717895Y7613700D01*
X5708853Y7623962D01*
X5698591Y7633004D01*
X5687212Y7640574D01*
X5674918Y7646670D01*
X5661964Y7651038D01*
X5648553Y7653731D01*
X5634888Y7654594D01*
X5621223Y7653731D01*
X5607812Y7651038D01*
X5594858Y7646670D01*
X5582564Y7640574D01*
X5571185Y7633004D01*
X5560923Y7623962D01*
X5551881Y7613700D01*
X5544261Y7602321D01*
X5538216Y7590028D01*
X5533796Y7577074D01*
X5531154Y7563662D01*
X5530240Y7549997D01*
X5531154Y7536332D01*
X5533796Y7522921D01*
X5538216Y7509967D01*
X5544261Y7497673D01*
X5551881Y7486294D01*
X5560923Y7475981D01*
X5571185Y7466990D01*
X5582564Y7459370D01*
X5594858Y7453325D01*
X5607812Y7448905D01*
X5621223Y7446264D01*
G37*
G36*
X3856888Y7445349D02*
G01*
X3870553Y7446264D01*
X3883964Y7448905D01*
X3896918Y7453325D01*
X3909212Y7459370D01*
X3920591Y7466990D01*
X3930853Y7475981D01*
X3939895Y7486294D01*
X3947464Y7497673D01*
X3953560Y7509967D01*
X3957929Y7522921D01*
X3960622Y7536332D01*
X3961485Y7549997D01*
X3960622Y7563662D01*
X3957929Y7577074D01*
X3953560Y7590028D01*
X3947464Y7602321D01*
X3939895Y7613700D01*
X3930853Y7623962D01*
X3920591Y7633004D01*
X3909212Y7640574D01*
X3896918Y7646670D01*
X3883964Y7651038D01*
X3870553Y7653731D01*
X3856888Y7654594D01*
X3843223Y7653731D01*
X3829812Y7651038D01*
X3816858Y7646670D01*
X3804564Y7640574D01*
X3793185Y7633004D01*
X3782923Y7623962D01*
X3773881Y7613700D01*
X3766261Y7602321D01*
X3760215Y7590028D01*
X3755796Y7577074D01*
X3753154Y7563662D01*
X3752240Y7549997D01*
X3753154Y7536332D01*
X3755796Y7522921D01*
X3760215Y7509967D01*
X3766261Y7497673D01*
X3773881Y7486294D01*
X3782923Y7475981D01*
X3793185Y7466990D01*
X3804564Y7459370D01*
X3816858Y7453325D01*
X3829812Y7448905D01*
X3843223Y7446264D01*
G37*
G36*
X4110888Y7445349D02*
G01*
X4124553Y7446264D01*
X4137964Y7448905D01*
X4150918Y7453325D01*
X4163212Y7459370D01*
X4174591Y7466990D01*
X4184853Y7475981D01*
X4193895Y7486294D01*
X4201464Y7497673D01*
X4207560Y7509967D01*
X4211929Y7522921D01*
X4214622Y7536332D01*
X4215485Y7549997D01*
X4214622Y7563662D01*
X4211929Y7577074D01*
X4207560Y7590028D01*
X4201464Y7602321D01*
X4193895Y7613700D01*
X4184853Y7623962D01*
X4174591Y7633004D01*
X4163212Y7640574D01*
X4150918Y7646670D01*
X4137964Y7651038D01*
X4124553Y7653731D01*
X4110888Y7654594D01*
X4097223Y7653731D01*
X4083812Y7651038D01*
X4070858Y7646670D01*
X4058564Y7640574D01*
X4047185Y7633004D01*
X4036923Y7623962D01*
X4027881Y7613700D01*
X4020261Y7602321D01*
X4014215Y7590028D01*
X4009796Y7577074D01*
X4007154Y7563662D01*
X4006240Y7549997D01*
X4007154Y7536332D01*
X4009796Y7522921D01*
X4014215Y7509967D01*
X4020261Y7497673D01*
X4027881Y7486294D01*
X4036923Y7475981D01*
X4047185Y7466990D01*
X4058564Y7459370D01*
X4070858Y7453325D01*
X4083812Y7448905D01*
X4097223Y7446264D01*
G37*
G36*
X2332888Y7445349D02*
G01*
X2346553Y7446264D01*
X2359964Y7448905D01*
X2372918Y7453325D01*
X2385212Y7459370D01*
X2396591Y7466990D01*
X2406853Y7475981D01*
X2415895Y7486294D01*
X2423464Y7497673D01*
X2429560Y7509967D01*
X2433929Y7522921D01*
X2436622Y7536332D01*
X2437485Y7549997D01*
X2436622Y7563662D01*
X2433929Y7577074D01*
X2429560Y7590028D01*
X2423464Y7602321D01*
X2415895Y7613700D01*
X2406853Y7623962D01*
X2396591Y7633004D01*
X2385212Y7640574D01*
X2372918Y7646670D01*
X2359964Y7651038D01*
X2346553Y7653731D01*
X2332888Y7654594D01*
X2319223Y7653731D01*
X2305812Y7651038D01*
X2292858Y7646670D01*
X2280564Y7640574D01*
X2269185Y7633004D01*
X2258923Y7623962D01*
X2249881Y7613700D01*
X2242261Y7602321D01*
X2236216Y7590028D01*
X2231796Y7577074D01*
X2229154Y7563662D01*
X2228240Y7549997D01*
X2229154Y7536332D01*
X2231796Y7522921D01*
X2236216Y7509967D01*
X2242261Y7497673D01*
X2249881Y7486294D01*
X2258923Y7475981D01*
X2269185Y7466990D01*
X2280564Y7459370D01*
X2292858Y7453325D01*
X2305812Y7448905D01*
X2319223Y7446264D01*
G37*
G36*
X2078888Y7445349D02*
G01*
X2092553Y7446264D01*
X2105964Y7448905D01*
X2118918Y7453325D01*
X2131212Y7459370D01*
X2142591Y7466990D01*
X2152853Y7475981D01*
X2161895Y7486294D01*
X2169464Y7497673D01*
X2175560Y7509967D01*
X2179929Y7522921D01*
X2182622Y7536332D01*
X2183485Y7549997D01*
X2182622Y7563662D01*
X2179929Y7577074D01*
X2175560Y7590028D01*
X2169464Y7602321D01*
X2161895Y7613700D01*
X2157425Y7618780D01*
X2155545Y7621879D01*
X2154885Y7625486D01*
X2154885Y7693304D01*
X2155647Y7697216D01*
X2157882Y7700518D01*
X2378456Y7921091D01*
X2381758Y7923326D01*
X2385669Y7924088D01*
X4402683Y7924139D01*
X4411522Y7924952D01*
X4413961Y7925358D01*
X4422597Y7927492D01*
X4424934Y7928254D01*
X4433163Y7931658D01*
X4435348Y7932775D01*
X4442968Y7937398D01*
X4451807Y7944459D01*
X4805578Y8298230D01*
X4812639Y8307070D01*
X4817262Y8314690D01*
X4818380Y8316874D01*
X4821783Y8325103D01*
X4822545Y8327440D01*
X4824679Y8336076D01*
X4825085Y8338515D01*
X4825898Y8347354D01*
X4825949Y8645499D01*
X4826609Y8649157D01*
X4827574Y8651544D01*
X4830114Y8663076D01*
X4830978Y8674862D01*
X4830114Y8686647D01*
X4827574Y8698179D01*
X4823358Y8709202D01*
X4817567Y8719515D01*
X4810353Y8728862D01*
X4801870Y8737041D01*
X4792218Y8743899D01*
X4781753Y8749284D01*
X4770577Y8753094D01*
X4758944Y8755278D01*
X4747158Y8755684D01*
X4735423Y8754414D01*
X4723993Y8751417D01*
X4713122Y8746794D01*
X4703064Y8740648D01*
X4693970Y8733078D01*
X4686096Y8724290D01*
X4679594Y8714435D01*
X4674565Y8703767D01*
X4671161Y8692438D01*
X4669434Y8680754D01*
X4669434Y8668969D01*
X4671161Y8657285D01*
X4673701Y8648801D01*
X4674158Y8645855D01*
X4674158Y8385657D01*
X4673396Y8381746D01*
X4671161Y8378444D01*
X4371594Y8078876D01*
X4368292Y8076641D01*
X4364380Y8075879D01*
X3492550Y8075879D01*
X3488486Y8076742D01*
X3485083Y8079130D01*
X3482949Y8082686D01*
X3482390Y8086801D01*
X3483559Y8090814D01*
X3486200Y8094014D01*
X3489909Y8095843D01*
X3494278Y8097012D01*
X3503168Y8101177D01*
X3511194Y8106816D01*
X3518154Y8113775D01*
X3523792Y8121802D01*
X3527958Y8130692D01*
X3530498Y8140192D01*
X3531362Y8149996D01*
X3530498Y8159750D01*
X3527958Y8169249D01*
X3523792Y8178139D01*
X3518154Y8186216D01*
X3516579Y8187791D01*
X3514394Y8191093D01*
X3513632Y8194954D01*
X3513632Y8954770D01*
X3514394Y8958681D01*
X3516579Y8961983D01*
X3637991Y9083395D01*
X3641293Y9085580D01*
X3645204Y9086342D01*
X3973372Y9086342D01*
X3976674Y9085834D01*
X3979621Y9084259D01*
X3981856Y9081820D01*
X3986072Y9075420D01*
X3993946Y9066631D01*
X4003040Y9059113D01*
X4013149Y9052915D01*
X4023969Y9048343D01*
X4035399Y9045346D01*
X4047134Y9044025D01*
X4058970Y9044482D01*
X4070553Y9046616D01*
X4081729Y9050426D01*
X4092244Y9055811D01*
X4101846Y9062720D01*
X4110329Y9070898D01*
X4117543Y9080246D01*
X4123334Y9090558D01*
X4127550Y9101582D01*
X4130141Y9113113D01*
X4131005Y9124848D01*
X4130141Y9136634D01*
X4127550Y9148165D01*
X4123334Y9159189D01*
X4117543Y9169501D01*
X4110329Y9178848D01*
X4101846Y9187027D01*
X4092244Y9193885D01*
X4081729Y9199321D01*
X4070553Y9203131D01*
X4058970Y9205264D01*
X4047134Y9205671D01*
X4035399Y9204401D01*
X4023969Y9201404D01*
X4013149Y9196781D01*
X4003040Y9190634D01*
X3993946Y9183116D01*
X3986072Y9174276D01*
X3982008Y9168130D01*
X3979722Y9165691D01*
X3976827Y9164116D01*
X3973525Y9163558D01*
X3625494Y9163558D01*
X3617468Y9162796D01*
X3610203Y9160611D01*
X3603548Y9157055D01*
X3597351Y9151924D01*
X3448050Y9002623D01*
X3442919Y8996426D01*
X3439363Y8989771D01*
X3437178Y8982506D01*
X3436416Y8974480D01*
X3436416Y8194954D01*
X3435604Y8191093D01*
X3433419Y8187791D01*
X3431844Y8186216D01*
X3426206Y8178139D01*
X3422040Y8169249D01*
X3419500Y8159750D01*
X3418636Y8149996D01*
X3419500Y8140192D01*
X3422040Y8130692D01*
X3426206Y8121802D01*
X3431844Y8113775D01*
X3438753Y8106816D01*
X3446830Y8101177D01*
X3455720Y8097012D01*
X3460089Y8095843D01*
X3463798Y8094014D01*
X3466439Y8090814D01*
X3467557Y8086801D01*
X3467049Y8082686D01*
X3464915Y8079130D01*
X3461512Y8076742D01*
X3457448Y8075879D01*
X2347366Y8075828D01*
X2338527Y8075015D01*
X2336088Y8074609D01*
X2327452Y8072475D01*
X2325116Y8071713D01*
X2316886Y8068309D01*
X2314702Y8067192D01*
X2307082Y8062569D01*
X2298242Y8055508D01*
X2023465Y7780731D01*
X2016404Y7771892D01*
X2011781Y7764272D01*
X2010664Y7762087D01*
X2007260Y7753858D01*
X2006498Y7751521D01*
X2004364Y7742885D01*
X2003958Y7740446D01*
X2003145Y7731607D01*
X2003094Y7701025D01*
X2002332Y7697165D01*
X2000097Y7693863D01*
X1996795Y7691678D01*
X1992934Y7690866D01*
X1989023Y7691678D01*
X1985721Y7693863D01*
X1473657Y8205927D01*
X1471574Y8208924D01*
X1470710Y8212480D01*
X1471168Y8216138D01*
X1474317Y8226298D01*
X1476603Y8239759D01*
X1477060Y8253374D01*
X1475689Y8266938D01*
X1472488Y8280247D01*
X1467612Y8292947D01*
X1461058Y8304936D01*
X1452981Y8315909D01*
X1443482Y8325713D01*
X1432763Y8334146D01*
X1421028Y8341106D01*
X1408480Y8346440D01*
X1395323Y8350046D01*
X1381810Y8351824D01*
X1368196Y8351824D01*
X1354683Y8350046D01*
X1341526Y8346440D01*
X1328978Y8341106D01*
X1317244Y8334146D01*
X1306525Y8325713D01*
X1297076Y8315909D01*
X1288948Y8304936D01*
X1282395Y8292947D01*
X1277518Y8280247D01*
X1274368Y8266938D01*
X1272997Y8253374D01*
X1273454Y8239759D01*
X1275689Y8226298D01*
X1279753Y8213293D01*
X1285494Y8200898D01*
X1292809Y8189417D01*
X1301648Y8179003D01*
X1311757Y8169859D01*
X1322984Y8162137D01*
X1335176Y8155990D01*
X1348028Y8151520D01*
X1361389Y8148828D01*
X1375003Y8147913D01*
X1388618Y8148828D01*
X1401978Y8151520D01*
X1408480Y8153806D01*
X1412240Y8154365D01*
X1415897Y8153501D01*
X1418996Y8151368D01*
X1898396Y7671968D01*
X1900631Y7668666D01*
X1901393Y7664805D01*
X1900631Y7660894D01*
X1898396Y7657592D01*
X1895144Y7655407D01*
X1891233Y7654645D01*
X1870608Y7654645D01*
X1870608Y7595717D01*
X1929536Y7595717D01*
X1929536Y7616342D01*
X1930298Y7620203D01*
X1932482Y7623505D01*
X1935784Y7625740D01*
X1939696Y7626502D01*
X1943557Y7625740D01*
X1946859Y7623505D01*
X1977288Y7593126D01*
X1979422Y7590028D01*
X1980234Y7586370D01*
X1979726Y7582662D01*
X1977796Y7577074D01*
X1975154Y7563662D01*
X1974240Y7549997D01*
X1975154Y7536332D01*
X1977796Y7522921D01*
X1982216Y7509967D01*
X1988261Y7497673D01*
X1995881Y7486294D01*
X2004923Y7475981D01*
X2015185Y7466990D01*
X2026564Y7459370D01*
X2038857Y7453325D01*
X2051812Y7448905D01*
X2065223Y7446264D01*
G37*
G36*
X5426608Y7456119D02*
G01*
X5433212Y7459370D01*
X5444591Y7466990D01*
X5454853Y7475981D01*
X5463895Y7486294D01*
X5471464Y7497673D01*
X5474716Y7504277D01*
X5426608Y7504277D01*
G37*
G36*
X5335168Y7456119D02*
G01*
X5335168Y7504277D01*
X5287010Y7504277D01*
X5290261Y7497673D01*
X5297881Y7486294D01*
X5306923Y7475981D01*
X5317185Y7466990D01*
X5328564Y7459370D01*
G37*
G36*
X5426608Y7595717D02*
G01*
X5474716Y7595717D01*
X5471464Y7602321D01*
X5463895Y7613700D01*
X5454853Y7623962D01*
X5444591Y7633004D01*
X5433212Y7640574D01*
X5426608Y7643825D01*
G37*
G36*
X5287010Y7595717D02*
G01*
X5335168Y7595717D01*
X5335168Y7643825D01*
X5328564Y7640574D01*
X5317185Y7633004D01*
X5306923Y7623962D01*
X5297881Y7613700D01*
X5290261Y7602321D01*
G37*
G36*
X1720240Y7595717D02*
G01*
X1779168Y7595717D01*
X1779168Y7654645D01*
X1746707Y7654645D01*
X1740407Y7653934D01*
X1734921Y7652003D01*
X1730044Y7648905D01*
X1725930Y7644841D01*
X1722831Y7639913D01*
X1720951Y7634478D01*
X1720240Y7628178D01*
G37*
G36*
X5849975Y7993329D02*
G01*
X5859780Y7994142D01*
X5869279Y7996681D01*
X5878169Y8000847D01*
X5886196Y8006486D01*
X5893155Y8013446D01*
X5898794Y8021472D01*
X5902960Y8030362D01*
X5905500Y8039862D01*
X5906312Y8049666D01*
X5905500Y8059420D01*
X5902960Y8068919D01*
X5898794Y8077809D01*
X5892749Y8086496D01*
X5891377Y8089239D01*
X5890920Y8092287D01*
X5890869Y8598408D01*
X5891784Y8602573D01*
X5894324Y8606028D01*
X5898032Y8608110D01*
X5902299Y8608466D01*
X5906363Y8607094D01*
X5913120Y8602929D01*
X5916269Y8601608D01*
X5916269Y8641029D01*
X5901029Y8641029D01*
X5897168Y8641791D01*
X5893866Y8643975D01*
X5891682Y8647277D01*
X5890869Y8651189D01*
X5890869Y8698534D01*
X5891682Y8702446D01*
X5893866Y8705748D01*
X5897168Y8707932D01*
X5901029Y8708694D01*
X5916269Y8708694D01*
X5916269Y8748115D01*
X5913120Y8746794D01*
X5906363Y8742680D01*
X5902299Y8741257D01*
X5898032Y8741613D01*
X5894324Y8743696D01*
X5891784Y8747150D01*
X5890869Y8751316D01*
X5890869Y8799626D01*
X5891377Y8802776D01*
X5892850Y8805672D01*
X5895136Y8807907D01*
X5901842Y8812682D01*
X5910326Y8820912D01*
X5917539Y8830259D01*
X5923330Y8840520D01*
X5927547Y8851544D01*
X5930138Y8863076D01*
X5931001Y8874861D01*
X5930138Y8886647D01*
X5927547Y8898178D01*
X5923330Y8909202D01*
X5917539Y8919514D01*
X5910326Y8928862D01*
X5901842Y8937040D01*
X5892241Y8943898D01*
X5881725Y8949283D01*
X5870549Y8953093D01*
X5858967Y8955278D01*
X5847130Y8955684D01*
X5835396Y8954414D01*
X5823966Y8951417D01*
X5813145Y8946794D01*
X5803036Y8940647D01*
X5793943Y8933078D01*
X5786069Y8924290D01*
X5779566Y8914434D01*
X5774537Y8903766D01*
X5771134Y8892438D01*
X5769457Y8880754D01*
X5769457Y8868968D01*
X5771134Y8857284D01*
X5774537Y8845956D01*
X5779566Y8835288D01*
X5786069Y8825433D01*
X5793943Y8816644D01*
X5806795Y8806129D01*
X5808472Y8803081D01*
X5809081Y8799728D01*
X5809081Y8751620D01*
X5808116Y8747302D01*
X5805424Y8743797D01*
X5801461Y8741816D01*
X5797042Y8741613D01*
X5783935Y8748166D01*
X5783935Y8708694D01*
X5798921Y8708694D01*
X5802782Y8707932D01*
X5806084Y8705748D01*
X5808319Y8702446D01*
X5809081Y8698534D01*
X5809081Y8651189D01*
X5808319Y8647277D01*
X5806084Y8643975D01*
X5802782Y8641791D01*
X5798921Y8641029D01*
X5783935Y8641029D01*
X5783935Y8601557D01*
X5792978Y8606383D01*
X5797042Y8608110D01*
X5801461Y8607958D01*
X5805424Y8605926D01*
X5808116Y8602421D01*
X5809081Y8598103D01*
X5809081Y8092287D01*
X5808624Y8089239D01*
X5807252Y8086496D01*
X5801207Y8077809D01*
X5797042Y8068919D01*
X5794502Y8059420D01*
X5793638Y8049666D01*
X5794502Y8039862D01*
X5797042Y8030362D01*
X5801207Y8021472D01*
X5806846Y8013446D01*
X5813755Y8006486D01*
X5821832Y8000847D01*
X5830722Y7996681D01*
X5840222Y7994142D01*
G37*
G36*
X1624990Y8397900D02*
G01*
X1638604Y8398814D01*
X1651965Y8401507D01*
X1664868Y8405977D01*
X1677060Y8412124D01*
X1688287Y8419846D01*
X1698396Y8428990D01*
X1707184Y8439404D01*
X1714550Y8450884D01*
X1720291Y8463280D01*
X1724304Y8476284D01*
X1726590Y8489746D01*
X1727047Y8503361D01*
X1725675Y8516924D01*
X1722526Y8530234D01*
X1717598Y8542934D01*
X1711045Y8554923D01*
X1702968Y8565896D01*
X1693468Y8575700D01*
X1682800Y8584133D01*
X1671066Y8591092D01*
X1658518Y8596426D01*
X1645361Y8600033D01*
X1631848Y8601811D01*
X1618183Y8601811D01*
X1604670Y8600033D01*
X1591513Y8596426D01*
X1578965Y8591092D01*
X1567230Y8584133D01*
X1556512Y8575700D01*
X1547063Y8565896D01*
X1538986Y8554923D01*
X1532432Y8542934D01*
X1527505Y8530234D01*
X1524355Y8516924D01*
X1522984Y8503361D01*
X1523441Y8489746D01*
X1525727Y8476284D01*
X1529740Y8463280D01*
X1535480Y8450884D01*
X1542846Y8439404D01*
X1551635Y8428990D01*
X1561744Y8419846D01*
X1572971Y8412124D01*
X1585163Y8405977D01*
X1598015Y8401507D01*
X1611426Y8398814D01*
G37*
G36*
X4147159Y8594039D02*
G01*
X4158945Y8594496D01*
X4170578Y8596630D01*
X4181754Y8600440D01*
X4192219Y8605824D01*
X4201820Y8612682D01*
X4210354Y8620912D01*
X4217568Y8630259D01*
X4223359Y8640521D01*
X4227576Y8651544D01*
X4230116Y8663076D01*
X4230979Y8674862D01*
X4230116Y8686647D01*
X4227576Y8698179D01*
X4223359Y8709202D01*
X4217568Y8719515D01*
X4210354Y8728862D01*
X4201820Y8737041D01*
X4192219Y8743899D01*
X4181754Y8749284D01*
X4170578Y8753094D01*
X4158945Y8755278D01*
X4147159Y8755684D01*
X4135424Y8754414D01*
X4123994Y8751417D01*
X4113123Y8746794D01*
X4103065Y8740648D01*
X4093972Y8733078D01*
X4086098Y8724290D01*
X4079595Y8714435D01*
X4074566Y8703767D01*
X4071162Y8692438D01*
X4069435Y8680754D01*
X4069435Y8668969D01*
X4071162Y8657285D01*
X4074566Y8645956D01*
X4079595Y8635288D01*
X4086098Y8625433D01*
X4093972Y8616645D01*
X4103065Y8609076D01*
X4113123Y8602929D01*
X4123994Y8598306D01*
X4135424Y8595309D01*
G37*
G36*
X5547156Y8594039D02*
G01*
X5558942Y8594496D01*
X5570575Y8596630D01*
X5581751Y8600440D01*
X5592216Y8605824D01*
X5601868Y8612682D01*
X5610352Y8620912D01*
X5617565Y8630259D01*
X5623356Y8640521D01*
X5627573Y8651544D01*
X5630113Y8663076D01*
X5630976Y8674862D01*
X5630113Y8686647D01*
X5627573Y8698179D01*
X5623356Y8709202D01*
X5617565Y8719515D01*
X5610352Y8728862D01*
X5601868Y8737041D01*
X5592216Y8743899D01*
X5581751Y8749284D01*
X5570575Y8753094D01*
X5558942Y8755278D01*
X5547156Y8755684D01*
X5535422Y8754414D01*
X5523992Y8751417D01*
X5513120Y8746794D01*
X5503062Y8740648D01*
X5493969Y8733078D01*
X5486095Y8724290D01*
X5479592Y8714435D01*
X5474563Y8703767D01*
X5471160Y8692438D01*
X5469432Y8680754D01*
X5469432Y8668969D01*
X5471160Y8657285D01*
X5474563Y8645956D01*
X5479592Y8635288D01*
X5486095Y8625433D01*
X5493969Y8616645D01*
X5503062Y8609076D01*
X5513120Y8602929D01*
X5523992Y8598306D01*
X5535422Y8595309D01*
G37*
G36*
X5347157Y8594039D02*
G01*
X5358942Y8594496D01*
X5370576Y8596630D01*
X5381752Y8600440D01*
X5392216Y8605824D01*
X5401868Y8612682D01*
X5410352Y8620912D01*
X5417566Y8630259D01*
X5423357Y8640521D01*
X5427573Y8651544D01*
X5430113Y8663076D01*
X5430977Y8674862D01*
X5430113Y8686647D01*
X5427573Y8698179D01*
X5423357Y8709202D01*
X5417566Y8719515D01*
X5410352Y8728862D01*
X5401868Y8737041D01*
X5392216Y8743899D01*
X5381752Y8749284D01*
X5370576Y8753094D01*
X5358942Y8755278D01*
X5347157Y8755684D01*
X5335422Y8754414D01*
X5323992Y8751417D01*
X5313121Y8746794D01*
X5303062Y8740648D01*
X5293969Y8733078D01*
X5286095Y8724290D01*
X5279593Y8714435D01*
X5274564Y8703767D01*
X5271160Y8692438D01*
X5269433Y8680754D01*
X5269433Y8668969D01*
X5271160Y8657285D01*
X5274564Y8645956D01*
X5279593Y8635288D01*
X5286095Y8625433D01*
X5293969Y8616645D01*
X5303062Y8609076D01*
X5313121Y8602929D01*
X5323992Y8598306D01*
X5335422Y8595309D01*
G37*
G36*
X4947158Y8594039D02*
G01*
X4958943Y8594496D01*
X4970576Y8596630D01*
X4981752Y8600440D01*
X4992217Y8605824D01*
X5001869Y8612682D01*
X5010353Y8620912D01*
X5017566Y8630259D01*
X5023358Y8640521D01*
X5027574Y8651544D01*
X5030114Y8663076D01*
X5030978Y8674862D01*
X5030114Y8686647D01*
X5027574Y8698179D01*
X5023358Y8709202D01*
X5017566Y8719515D01*
X5010353Y8728862D01*
X5001869Y8737041D01*
X4992217Y8743899D01*
X4981752Y8749284D01*
X4970576Y8753094D01*
X4958943Y8755278D01*
X4947158Y8755684D01*
X4935423Y8754414D01*
X4923993Y8751417D01*
X4913122Y8746794D01*
X4903063Y8740648D01*
X4893970Y8733078D01*
X4886096Y8724290D01*
X4879594Y8714435D01*
X4874564Y8703767D01*
X4871161Y8692438D01*
X4869434Y8680754D01*
X4869434Y8668969D01*
X4871161Y8657285D01*
X4874564Y8645956D01*
X4879594Y8635288D01*
X4886096Y8625433D01*
X4893970Y8616645D01*
X4903063Y8609076D01*
X4913122Y8602929D01*
X4923993Y8598306D01*
X4935423Y8595309D01*
G37*
G36*
X4547158Y8594039D02*
G01*
X4558944Y8594496D01*
X4570577Y8596630D01*
X4581753Y8600440D01*
X4592218Y8605824D01*
X4601819Y8612682D01*
X4610354Y8620912D01*
X4617567Y8630259D01*
X4623358Y8640521D01*
X4627575Y8651544D01*
X4630115Y8663076D01*
X4630978Y8674862D01*
X4630115Y8686647D01*
X4627575Y8698179D01*
X4623358Y8709202D01*
X4617567Y8719515D01*
X4610354Y8728862D01*
X4601819Y8737041D01*
X4592218Y8743899D01*
X4581753Y8749284D01*
X4570577Y8753094D01*
X4558944Y8755278D01*
X4547158Y8755684D01*
X4535424Y8754414D01*
X4523994Y8751417D01*
X4513122Y8746794D01*
X4503064Y8740648D01*
X4493971Y8733078D01*
X4486097Y8724290D01*
X4479594Y8714435D01*
X4474565Y8703767D01*
X4471162Y8692438D01*
X4469434Y8680754D01*
X4469434Y8668969D01*
X4471162Y8657285D01*
X4474565Y8645956D01*
X4479594Y8635288D01*
X4486097Y8625433D01*
X4493971Y8616645D01*
X4503064Y8609076D01*
X4513122Y8602929D01*
X4523994Y8598306D01*
X4535424Y8595309D01*
G37*
G36*
X3500374Y261366D02*
G01*
X6999478Y261366D01*
X7007504Y262178D01*
X7014718Y264363D01*
X7021423Y267919D01*
X7027621Y273050D01*
X7553959Y799388D01*
X7559090Y805586D01*
X7562646Y812292D01*
X7564831Y819505D01*
X7565644Y827532D01*
X7565644Y1255064D01*
X7566406Y1258925D01*
X7568641Y1262227D01*
X7570165Y1263751D01*
X7575803Y1271828D01*
X7579918Y1280718D01*
X7582458Y1290218D01*
X7583322Y1299972D01*
X7582458Y1309776D01*
X7579918Y1319276D01*
X7575803Y1328166D01*
X7570165Y1336243D01*
X7563205Y1343152D01*
X7555179Y1348790D01*
X7546238Y1352956D01*
X7536789Y1355496D01*
X7526985Y1356360D01*
X7517180Y1355496D01*
X7507731Y1352956D01*
X7498791Y1348790D01*
X7490764Y1343152D01*
X7483805Y1336243D01*
X7478166Y1328166D01*
X7474051Y1319276D01*
X7471511Y1309776D01*
X7470648Y1299972D01*
X7471511Y1290218D01*
X7474051Y1280718D01*
X7478166Y1271828D01*
X7483805Y1263751D01*
X7485430Y1262126D01*
X7487666Y1258824D01*
X7488428Y1254963D01*
X7488428Y847242D01*
X7487666Y843330D01*
X7485430Y840028D01*
X6986981Y341579D01*
X6983679Y339344D01*
X6979767Y338582D01*
X3519525Y338582D01*
X3515715Y339293D01*
X3512464Y341426D01*
X2882696Y947369D01*
X2880410Y950721D01*
X2879598Y954735D01*
X2879598Y7446365D01*
X2880309Y7450023D01*
X2882290Y7453223D01*
X2885287Y7455458D01*
X2893212Y7459370D01*
X2904591Y7466990D01*
X2914853Y7475981D01*
X2923895Y7486294D01*
X2931464Y7497673D01*
X2937560Y7509967D01*
X2941929Y7522921D01*
X2944622Y7536332D01*
X2945485Y7549997D01*
X2944622Y7563662D01*
X2941929Y7577074D01*
X2937560Y7590028D01*
X2931464Y7602321D01*
X2923895Y7613700D01*
X2914853Y7623962D01*
X2904591Y7633004D01*
X2893212Y7640574D01*
X2880918Y7646670D01*
X2867964Y7651038D01*
X2854553Y7653731D01*
X2840888Y7654594D01*
X2827223Y7653731D01*
X2813812Y7651038D01*
X2800858Y7646670D01*
X2788564Y7640574D01*
X2777185Y7633004D01*
X2766923Y7623962D01*
X2757881Y7613700D01*
X2750261Y7602321D01*
X2744216Y7590028D01*
X2739796Y7577074D01*
X2737154Y7563662D01*
X2736240Y7549997D01*
X2737154Y7536332D01*
X2739796Y7522921D01*
X2744216Y7509967D01*
X2750261Y7497673D01*
X2757881Y7486294D01*
X2766923Y7475981D01*
X2777185Y7466990D01*
X2788564Y7459370D01*
X2796692Y7455357D01*
X2799689Y7453122D01*
X2801670Y7449921D01*
X2802382Y7446264D01*
X2802382Y934466D01*
X2803194Y926439D01*
X2805379Y919226D01*
X2808884Y912571D01*
X2814624Y905764D01*
X3472789Y272440D01*
X3478377Y267919D01*
X3485134Y264363D01*
X3492347Y262178D01*
G37*
G36*
X4383938Y8601557D02*
G01*
X4392218Y8605824D01*
X4401820Y8612682D01*
X4410354Y8620912D01*
X4417568Y8630259D01*
X4423511Y8641029D01*
X4383938Y8641029D01*
G37*
G36*
X5716270Y8601608D02*
G01*
X5716270Y8641029D01*
X5676900Y8641029D01*
X5679592Y8635288D01*
X5686094Y8625433D01*
X5693968Y8616645D01*
X5703062Y8609076D01*
X5713120Y8602929D01*
G37*
G36*
X4316272Y8601608D02*
G01*
X4316272Y8641029D01*
X4276902Y8641029D01*
X4279595Y8635288D01*
X4286097Y8625433D01*
X4293971Y8616645D01*
X4303064Y8609076D01*
X4313123Y8602929D01*
G37*
G36*
X3300120Y61467D02*
G01*
X7099553Y61467D01*
X7107580Y62280D01*
X7114794Y64465D01*
X7121499Y68021D01*
X7127697Y73152D01*
X7807959Y753414D01*
X7813090Y759612D01*
X7816646Y766318D01*
X7818831Y773531D01*
X7819644Y781558D01*
X7819644Y1255064D01*
X7820406Y1258925D01*
X7822641Y1262227D01*
X7824165Y1263751D01*
X7829803Y1271828D01*
X7833918Y1280718D01*
X7836458Y1290218D01*
X7837322Y1299972D01*
X7836458Y1309776D01*
X7833918Y1319276D01*
X7829803Y1328166D01*
X7824165Y1336243D01*
X7817205Y1343152D01*
X7809179Y1348790D01*
X7800238Y1352956D01*
X7790789Y1355496D01*
X7780985Y1356360D01*
X7771180Y1355496D01*
X7761731Y1352956D01*
X7752791Y1348790D01*
X7744764Y1343152D01*
X7737805Y1336243D01*
X7732166Y1328166D01*
X7728051Y1319276D01*
X7725511Y1309776D01*
X7724648Y1299972D01*
X7725511Y1290218D01*
X7728051Y1280718D01*
X7732166Y1271828D01*
X7737805Y1263751D01*
X7739430Y1262126D01*
X7741666Y1258824D01*
X7742428Y1254963D01*
X7742428Y801268D01*
X7741666Y797356D01*
X7739430Y794054D01*
X7087057Y141681D01*
X7083755Y139446D01*
X7079843Y138684D01*
X3322065Y138684D01*
X3317849Y139598D01*
X3314446Y142138D01*
X2628138Y924763D01*
X2626258Y927912D01*
X2625598Y931468D01*
X2625598Y7446365D01*
X2626309Y7450023D01*
X2628290Y7453223D01*
X2631287Y7455458D01*
X2639212Y7459370D01*
X2650591Y7466990D01*
X2660853Y7475981D01*
X2669895Y7486294D01*
X2677464Y7497673D01*
X2683560Y7509967D01*
X2687929Y7522921D01*
X2690622Y7536332D01*
X2691485Y7549997D01*
X2690622Y7563662D01*
X2687929Y7577074D01*
X2683560Y7590028D01*
X2677464Y7602321D01*
X2669895Y7613700D01*
X2660853Y7623962D01*
X2650591Y7633004D01*
X2639212Y7640574D01*
X2626918Y7646670D01*
X2613964Y7651038D01*
X2600553Y7653731D01*
X2586888Y7654594D01*
X2573223Y7653731D01*
X2559812Y7651038D01*
X2546858Y7646670D01*
X2534564Y7640574D01*
X2523185Y7633004D01*
X2512923Y7623962D01*
X2503881Y7613700D01*
X2496261Y7602321D01*
X2490216Y7590028D01*
X2485796Y7577074D01*
X2483154Y7563662D01*
X2482240Y7549997D01*
X2483154Y7536332D01*
X2485796Y7522921D01*
X2490216Y7509967D01*
X2496261Y7497673D01*
X2503881Y7486294D01*
X2512923Y7475981D01*
X2523185Y7466990D01*
X2534564Y7459370D01*
X2542692Y7455357D01*
X2545689Y7453122D01*
X2547670Y7449921D01*
X2548382Y7446264D01*
X2548382Y913485D01*
X2549093Y905764D01*
X2551277Y898499D01*
X2554782Y891844D01*
X2558186Y887425D01*
X3272536Y72898D01*
X3278378Y68072D01*
X3285032Y64465D01*
X3292297Y62230D01*
X3297631Y61569D01*
G37*
G36*
X1330553Y8658301D02*
G01*
X1330553Y8705545D01*
X1283360Y8705545D01*
X1285494Y8700922D01*
X1292809Y8689441D01*
X1301648Y8679027D01*
X1311757Y8669883D01*
X1322984Y8662162D01*
G37*
G36*
X1419453Y8658301D02*
G01*
X1427022Y8662162D01*
X1438300Y8669883D01*
X1448409Y8679027D01*
X1457198Y8689441D01*
X1464513Y8700922D01*
X1466646Y8705545D01*
X1419453Y8705545D01*
G37*
G36*
X4276902Y8708694D02*
G01*
X4316272Y8708694D01*
X4316272Y8748115D01*
X4313123Y8746794D01*
X4303064Y8740648D01*
X4293971Y8733078D01*
X4286097Y8724290D01*
X4279595Y8714435D01*
G37*
G36*
X5676900Y8708694D02*
G01*
X5716270Y8708694D01*
X5716270Y8748115D01*
X5713120Y8746794D01*
X5703062Y8740648D01*
X5693968Y8733078D01*
X5686094Y8724290D01*
X5679592Y8714435D01*
G37*
G36*
X4383938Y8708694D02*
G01*
X4423511Y8708694D01*
X4417568Y8719515D01*
X4410354Y8728862D01*
X4401820Y8737041D01*
X4392218Y8743899D01*
X4383938Y8748166D01*
G37*
G36*
X5983935Y8708694D02*
G01*
X6023508Y8708694D01*
X6017564Y8719515D01*
X6010351Y8728862D01*
X6001867Y8737041D01*
X5992266Y8743899D01*
X5983935Y8748166D01*
G37*
G36*
X5647131Y8794038D02*
G01*
X5658967Y8794496D01*
X5670550Y8796629D01*
X5681726Y8800439D01*
X5692241Y8805824D01*
X5701842Y8812682D01*
X5710326Y8820912D01*
X5717540Y8830259D01*
X5723331Y8840520D01*
X5727547Y8851544D01*
X5730138Y8863076D01*
X5731002Y8874861D01*
X5730138Y8886647D01*
X5727547Y8898178D01*
X5723331Y8909202D01*
X5717540Y8919514D01*
X5710326Y8928862D01*
X5701842Y8937040D01*
X5692241Y8943898D01*
X5681726Y8949283D01*
X5670550Y8953093D01*
X5658967Y8955278D01*
X5647131Y8955684D01*
X5635396Y8954414D01*
X5623966Y8951417D01*
X5613146Y8946794D01*
X5603036Y8940647D01*
X5593943Y8933078D01*
X5586069Y8924290D01*
X5579567Y8914434D01*
X5574538Y8903766D01*
X5571134Y8892438D01*
X5569458Y8880754D01*
X5569458Y8868968D01*
X5571134Y8857284D01*
X5574538Y8845956D01*
X5579567Y8835288D01*
X5586069Y8825433D01*
X5593943Y8816644D01*
X5603036Y8809075D01*
X5613146Y8802928D01*
X5623966Y8798306D01*
X5635396Y8795308D01*
G37*
G36*
X4047134Y8794038D02*
G01*
X4058970Y8794496D01*
X4070553Y8796629D01*
X4081729Y8800439D01*
X4092244Y8805824D01*
X4101846Y8812682D01*
X4110329Y8820912D01*
X4117543Y8830259D01*
X4123334Y8840520D01*
X4127550Y8851544D01*
X4130141Y8863076D01*
X4131005Y8874861D01*
X4130141Y8886647D01*
X4127550Y8898178D01*
X4123334Y8909202D01*
X4117543Y8919514D01*
X4110329Y8928862D01*
X4101846Y8937040D01*
X4092244Y8943898D01*
X4081729Y8949283D01*
X4070553Y8953093D01*
X4058970Y8955278D01*
X4047134Y8955684D01*
X4035399Y8954414D01*
X4023969Y8951417D01*
X4013098Y8946794D01*
X4003040Y8940647D01*
X3993946Y8933078D01*
X3986072Y8924290D01*
X3979570Y8914434D01*
X3974541Y8903766D01*
X3971137Y8892438D01*
X3969461Y8880754D01*
X3969461Y8868968D01*
X3971137Y8857284D01*
X3974541Y8845956D01*
X3979570Y8835288D01*
X3986072Y8825433D01*
X3993946Y8816644D01*
X4003040Y8809075D01*
X4013098Y8802928D01*
X4023969Y8798306D01*
X4035399Y8795308D01*
G37*
G36*
X4447133Y8794038D02*
G01*
X4458970Y8794496D01*
X4470552Y8796629D01*
X4481728Y8800439D01*
X4492244Y8805824D01*
X4501845Y8812682D01*
X4510328Y8820912D01*
X4517542Y8830259D01*
X4523333Y8840520D01*
X4527550Y8851544D01*
X4530140Y8863076D01*
X4531004Y8874861D01*
X4530140Y8886647D01*
X4527550Y8898178D01*
X4523333Y8909202D01*
X4517542Y8919514D01*
X4510328Y8928862D01*
X4501845Y8937040D01*
X4492244Y8943898D01*
X4481728Y8949283D01*
X4470552Y8953093D01*
X4458970Y8955278D01*
X4447133Y8955684D01*
X4435398Y8954414D01*
X4423968Y8951417D01*
X4413097Y8946794D01*
X4403039Y8940647D01*
X4393946Y8933078D01*
X4386072Y8924290D01*
X4379569Y8914434D01*
X4374540Y8903766D01*
X4371136Y8892438D01*
X4369460Y8880754D01*
X4369460Y8868968D01*
X4371136Y8857284D01*
X4374540Y8845956D01*
X4379569Y8835288D01*
X4386072Y8825433D01*
X4393946Y8816644D01*
X4403039Y8809075D01*
X4413097Y8802928D01*
X4423968Y8798306D01*
X4435398Y8795308D01*
G37*
G36*
X4847132Y8794038D02*
G01*
X4858969Y8794496D01*
X4870551Y8796629D01*
X4881727Y8800439D01*
X4892243Y8805824D01*
X4901844Y8812682D01*
X4910328Y8820912D01*
X4917541Y8830259D01*
X4923332Y8840520D01*
X4927549Y8851544D01*
X4930140Y8863076D01*
X4931003Y8874861D01*
X4930140Y8886647D01*
X4927549Y8898178D01*
X4923332Y8909202D01*
X4917541Y8919514D01*
X4910328Y8928862D01*
X4901844Y8937040D01*
X4892243Y8943898D01*
X4881727Y8949283D01*
X4870551Y8953093D01*
X4858969Y8955278D01*
X4847132Y8955684D01*
X4835398Y8954414D01*
X4823968Y8951417D01*
X4813147Y8946794D01*
X4803038Y8940647D01*
X4793945Y8933078D01*
X4786071Y8924290D01*
X4779568Y8914434D01*
X4774539Y8903766D01*
X4771136Y8892438D01*
X4769459Y8880754D01*
X4769459Y8868968D01*
X4771136Y8857284D01*
X4774539Y8845956D01*
X4779568Y8835288D01*
X4786071Y8825433D01*
X4793945Y8816644D01*
X4803038Y8809075D01*
X4813147Y8802928D01*
X4823968Y8798306D01*
X4835398Y8795308D01*
G37*
G36*
X4247134Y8794038D02*
G01*
X4258970Y8794496D01*
X4270552Y8796629D01*
X4281728Y8800439D01*
X4292244Y8805824D01*
X4301845Y8812682D01*
X4310329Y8820912D01*
X4317542Y8830259D01*
X4323334Y8840520D01*
X4327550Y8851544D01*
X4330141Y8863076D01*
X4331004Y8874861D01*
X4330141Y8886647D01*
X4327550Y8898178D01*
X4323334Y8909202D01*
X4317542Y8919514D01*
X4310329Y8928862D01*
X4301845Y8937040D01*
X4292244Y8943898D01*
X4281728Y8949283D01*
X4270552Y8953093D01*
X4258970Y8955278D01*
X4247134Y8955684D01*
X4235399Y8954414D01*
X4223969Y8951417D01*
X4213098Y8946794D01*
X4203039Y8940647D01*
X4193946Y8933078D01*
X4186072Y8924290D01*
X4179570Y8914434D01*
X4174540Y8903766D01*
X4171137Y8892438D01*
X4169460Y8880754D01*
X4169460Y8868968D01*
X4171137Y8857284D01*
X4174540Y8845956D01*
X4179570Y8835288D01*
X4186072Y8825433D01*
X4193946Y8816644D01*
X4203039Y8809075D01*
X4213098Y8802928D01*
X4223969Y8798306D01*
X4235399Y8795308D01*
G37*
G36*
X5047132Y8794038D02*
G01*
X5058968Y8794496D01*
X5070551Y8796629D01*
X5081727Y8800439D01*
X5092242Y8805824D01*
X5101844Y8812682D01*
X5110327Y8820912D01*
X5117541Y8830259D01*
X5123332Y8840520D01*
X5127548Y8851544D01*
X5129479Y8860180D01*
X5130952Y8863634D01*
X5133594Y8866276D01*
X5136997Y8867851D01*
X5140756Y8868003D01*
X5144312Y8866835D01*
X5149646Y8863888D01*
X5165242Y8857437D01*
X5181549Y8852763D01*
X5198211Y8849918D01*
X5215128Y8848953D01*
X5231993Y8849918D01*
X5248656Y8852763D01*
X5264962Y8857437D01*
X5280558Y8863888D01*
X5295392Y8872067D01*
X5309158Y8881872D01*
X5321808Y8893149D01*
X5333085Y8905798D01*
X5342890Y8919565D01*
X5351068Y8934399D01*
X5357520Y8949994D01*
X5362194Y8966301D01*
X5365038Y8982964D01*
X5366004Y8999829D01*
X5365038Y9016746D01*
X5362194Y9033408D01*
X5357520Y9049715D01*
X5351068Y9065310D01*
X5342890Y9080144D01*
X5333085Y9093911D01*
X5321808Y9106560D01*
X5309158Y9117838D01*
X5295392Y9127642D01*
X5280558Y9135821D01*
X5264962Y9142272D01*
X5248656Y9146946D01*
X5231993Y9149791D01*
X5215128Y9150756D01*
X5198211Y9149791D01*
X5181549Y9146946D01*
X5165242Y9142272D01*
X5149646Y9135821D01*
X5144312Y9132874D01*
X5140756Y9131706D01*
X5136997Y9131858D01*
X5133594Y9133433D01*
X5130952Y9136075D01*
X5129479Y9139529D01*
X5127548Y9148165D01*
X5123332Y9159189D01*
X5117541Y9169501D01*
X5110327Y9178848D01*
X5101844Y9187027D01*
X5092242Y9193885D01*
X5081727Y9199321D01*
X5070551Y9203131D01*
X5058968Y9205264D01*
X5047132Y9205671D01*
X5035397Y9204401D01*
X5023967Y9201404D01*
X5013147Y9196781D01*
X5003038Y9190634D01*
X4996332Y9185046D01*
X4992370Y9183014D01*
X4987950Y9182862D01*
X4983835Y9184640D01*
X4980940Y9187992D01*
X4979670Y9192260D01*
X4980381Y9196628D01*
X5009184Y9268764D01*
X5010607Y9271203D01*
X5017566Y9280245D01*
X5023358Y9290558D01*
X5027574Y9301581D01*
X5030114Y9313113D01*
X5030978Y9324848D01*
X5030114Y9336633D01*
X5027574Y9348165D01*
X5023358Y9359188D01*
X5017566Y9369501D01*
X5010353Y9378848D01*
X5001869Y9387027D01*
X4992217Y9393885D01*
X4981752Y9399320D01*
X4970576Y9403130D01*
X4958943Y9405264D01*
X4947158Y9405670D01*
X4935423Y9404400D01*
X4923993Y9401403D01*
X4913122Y9396780D01*
X4903063Y9390634D01*
X4893970Y9383115D01*
X4886096Y9374276D01*
X4879594Y9364472D01*
X4874564Y9353753D01*
X4871161Y9342475D01*
X4869434Y9330131D01*
X4868722Y9326372D01*
X4832858Y9236506D01*
X4831842Y9234627D01*
X4802581Y9190786D01*
X4800650Y9188653D01*
X4793945Y9183116D01*
X4786071Y9174276D01*
X4779568Y9164472D01*
X4774539Y9153753D01*
X4771186Y9142476D01*
X4769459Y9130792D01*
X4769459Y9118955D01*
X4771186Y9107271D01*
X4774539Y9095994D01*
X4779568Y9085275D01*
X4786071Y9075420D01*
X4793945Y9066631D01*
X4803038Y9059113D01*
X4813147Y9052915D01*
X4823968Y9048343D01*
X4835398Y9045346D01*
X4847132Y9044025D01*
X4858969Y9044482D01*
X4870551Y9046616D01*
X4881727Y9050426D01*
X4892243Y9055811D01*
X4901844Y9062720D01*
X4910328Y9070898D01*
X4917541Y9080246D01*
X4923332Y9090558D01*
X4927549Y9101582D01*
X4928158Y9104223D01*
X4929632Y9107678D01*
X4951272Y9140088D01*
X4954016Y9142831D01*
X4957572Y9144355D01*
X4961483Y9144457D01*
X4965090Y9143034D01*
X4967935Y9140393D01*
X4969560Y9136837D01*
X4969764Y9132976D01*
X4969459Y9130792D01*
X4969459Y9118955D01*
X4971186Y9107271D01*
X4974539Y9095994D01*
X4979568Y9085275D01*
X4986070Y9075420D01*
X4993944Y9066631D01*
X5003038Y9059113D01*
X5013147Y9052915D01*
X5023967Y9048343D01*
X5035397Y9045346D01*
X5047132Y9044025D01*
X5057444Y9044432D01*
X5061864Y9043568D01*
X5065471Y9040977D01*
X5067604Y9037015D01*
X5067858Y9032544D01*
X5065166Y9016746D01*
X5064201Y8999829D01*
X5065166Y8982964D01*
X5067858Y8967165D01*
X5067604Y8962694D01*
X5065471Y8958783D01*
X5061864Y8956141D01*
X5057444Y8955328D01*
X5047132Y8955684D01*
X5035397Y8954414D01*
X5023967Y8951417D01*
X5013147Y8946794D01*
X5003038Y8940647D01*
X4993944Y8933078D01*
X4986070Y8924290D01*
X4979568Y8914434D01*
X4974539Y8903766D01*
X4971135Y8892438D01*
X4969459Y8880754D01*
X4969459Y8868968D01*
X4971135Y8857284D01*
X4974539Y8845956D01*
X4979568Y8835288D01*
X4986070Y8825433D01*
X4993944Y8816644D01*
X5003038Y8809075D01*
X5013147Y8802928D01*
X5023967Y8798306D01*
X5035397Y8795308D01*
G37*
G36*
X1419453Y8794445D02*
G01*
X1466799Y8794445D01*
X1461058Y8804910D01*
X1452981Y8815882D01*
X1443482Y8825687D01*
X1432763Y8834170D01*
X1421028Y8841079D01*
X1419453Y8841790D01*
G37*
G36*
X1283208Y8794445D02*
G01*
X1330553Y8794445D01*
X1330553Y8841790D01*
X1328978Y8841079D01*
X1317244Y8834170D01*
X1306525Y8825687D01*
X1297076Y8815882D01*
X1288948Y8804910D01*
G37*
G36*
X5483961Y8801557D02*
G01*
X5492242Y8805824D01*
X5501843Y8812682D01*
X5510326Y8820912D01*
X5517540Y8830259D01*
X5523534Y8841028D01*
X5483961Y8841028D01*
G37*
G36*
X4683963Y8801557D02*
G01*
X4692243Y8805824D01*
X4701844Y8812682D01*
X4710328Y8820912D01*
X4717542Y8830259D01*
X4723536Y8841028D01*
X4683963Y8841028D01*
G37*
G36*
X4616246Y8801608D02*
G01*
X4616246Y8841028D01*
X4576876Y8841028D01*
X4579569Y8835288D01*
X4586071Y8825433D01*
X4593945Y8816644D01*
X4603038Y8809075D01*
X4613097Y8802928D01*
G37*
G36*
X5416245Y8801608D02*
G01*
X5416245Y8841028D01*
X5376875Y8841028D01*
X5379567Y8835288D01*
X5386070Y8825433D01*
X5393944Y8816644D01*
X5403037Y8809075D01*
X5413146Y8802928D01*
G37*
G36*
X6130137Y8848953D02*
G01*
X6147003Y8849918D01*
X6163665Y8852763D01*
X6179972Y8857437D01*
X6195568Y8863888D01*
X6210401Y8872067D01*
X6224168Y8881872D01*
X6236817Y8893149D01*
X6248095Y8905798D01*
X6257899Y8919565D01*
X6266078Y8934399D01*
X6272530Y8949994D01*
X6277203Y8966301D01*
X6280048Y8982964D01*
X6281013Y8999829D01*
X6280048Y9016746D01*
X6277203Y9033408D01*
X6272530Y9049715D01*
X6266078Y9065310D01*
X6257899Y9080144D01*
X6248095Y9093911D01*
X6236817Y9106560D01*
X6224168Y9117838D01*
X6210401Y9127642D01*
X6195568Y9135821D01*
X6179972Y9142272D01*
X6163665Y9146946D01*
X6147003Y9149791D01*
X6130137Y9150756D01*
X6113221Y9149791D01*
X6096558Y9146946D01*
X6080252Y9142272D01*
X6064656Y9135821D01*
X6049822Y9127642D01*
X6036056Y9117838D01*
X6023406Y9106560D01*
X6012129Y9093911D01*
X6002324Y9080144D01*
X5994146Y9065310D01*
X5987694Y9049715D01*
X5983020Y9033408D01*
X5980176Y9016746D01*
X5979210Y8999829D01*
X5980176Y8982964D01*
X5983020Y8966301D01*
X5987694Y8949994D01*
X5994146Y8934399D01*
X6002324Y8919565D01*
X6012129Y8905798D01*
X6023406Y8893149D01*
X6036056Y8881872D01*
X6049822Y8872067D01*
X6064656Y8863888D01*
X6080252Y8857437D01*
X6096558Y8852763D01*
X6113221Y8849918D01*
G37*
G36*
X5376875Y8908694D02*
G01*
X5416245Y8908694D01*
X5416245Y8948115D01*
X5413146Y8946794D01*
X5403037Y8940647D01*
X5393944Y8933078D01*
X5386070Y8924290D01*
X5379567Y8914434D01*
G37*
G36*
X4576876Y8908694D02*
G01*
X4616246Y8908694D01*
X4616246Y8948115D01*
X4613097Y8946794D01*
X4603038Y8940647D01*
X4593945Y8933078D01*
X4586071Y8924290D01*
X4579569Y8914434D01*
G37*
G36*
X4683963Y8908694D02*
G01*
X4723536Y8908694D01*
X4717542Y8919514D01*
X4710328Y8928862D01*
X4701844Y8937040D01*
X4692243Y8943898D01*
X4683963Y8948166D01*
G37*
G36*
X5483961Y8908694D02*
G01*
X5523534Y8908694D01*
X5517540Y8919514D01*
X5510326Y8928862D01*
X5501843Y8937040D01*
X5492242Y8943898D01*
X5483961Y8948166D01*
G37*
G36*
X4447133Y9044025D02*
G01*
X4458970Y9044482D01*
X4470552Y9046616D01*
X4481728Y9050426D01*
X4492244Y9055811D01*
X4501845Y9062720D01*
X4510328Y9070898D01*
X4517542Y9080246D01*
X4523333Y9090558D01*
X4527550Y9101582D01*
X4530140Y9113113D01*
X4531004Y9124848D01*
X4530140Y9136634D01*
X4527550Y9148165D01*
X4523333Y9159189D01*
X4517542Y9169501D01*
X4510328Y9178848D01*
X4501845Y9187027D01*
X4492244Y9193885D01*
X4481728Y9199321D01*
X4470552Y9203131D01*
X4458970Y9205264D01*
X4447133Y9205671D01*
X4435398Y9204401D01*
X4423968Y9201404D01*
X4413148Y9196781D01*
X4403039Y9190634D01*
X4393946Y9183116D01*
X4386072Y9174276D01*
X4379569Y9164472D01*
X4374540Y9153753D01*
X4371136Y9142476D01*
X4369460Y9130792D01*
X4369460Y9118955D01*
X4371136Y9107271D01*
X4374540Y9095994D01*
X4379569Y9085275D01*
X4386072Y9075420D01*
X4393946Y9066631D01*
X4403039Y9059113D01*
X4413148Y9052915D01*
X4423968Y9048343D01*
X4435398Y9045346D01*
G37*
G36*
X5447131Y9044025D02*
G01*
X5458968Y9044482D01*
X5470550Y9046616D01*
X5481726Y9050426D01*
X5492242Y9055811D01*
X5501843Y9062720D01*
X5510326Y9070898D01*
X5517540Y9080246D01*
X5523331Y9090558D01*
X5527548Y9101582D01*
X5530138Y9113113D01*
X5531002Y9124848D01*
X5530138Y9136634D01*
X5527548Y9148165D01*
X5523331Y9159189D01*
X5517540Y9169501D01*
X5510326Y9178848D01*
X5501843Y9187027D01*
X5492242Y9193885D01*
X5481726Y9199321D01*
X5470550Y9203131D01*
X5458968Y9205264D01*
X5447131Y9205671D01*
X5435396Y9204401D01*
X5423966Y9201404D01*
X5413146Y9196781D01*
X5403037Y9190634D01*
X5393944Y9183116D01*
X5386070Y9174276D01*
X5379567Y9164472D01*
X5374538Y9153753D01*
X5371185Y9142476D01*
X5369458Y9130792D01*
X5369458Y9118955D01*
X5371185Y9107271D01*
X5374538Y9095994D01*
X5379567Y9085275D01*
X5386070Y9075420D01*
X5393944Y9066631D01*
X5403037Y9059113D01*
X5413146Y9052915D01*
X5423966Y9048343D01*
X5435396Y9045346D01*
G37*
G36*
X4247134Y9044025D02*
G01*
X4258970Y9044482D01*
X4270552Y9046616D01*
X4281728Y9050426D01*
X4292244Y9055811D01*
X4301845Y9062720D01*
X4310329Y9070898D01*
X4317542Y9080246D01*
X4323334Y9090558D01*
X4327550Y9101582D01*
X4330141Y9113113D01*
X4331004Y9124848D01*
X4330141Y9136634D01*
X4327550Y9148165D01*
X4323334Y9159189D01*
X4317542Y9169501D01*
X4310329Y9178848D01*
X4301845Y9187027D01*
X4292244Y9193885D01*
X4281728Y9199321D01*
X4270552Y9203131D01*
X4258970Y9205264D01*
X4247134Y9205671D01*
X4235399Y9204401D01*
X4223969Y9201404D01*
X4213148Y9196781D01*
X4203039Y9190634D01*
X4193946Y9183116D01*
X4186072Y9174276D01*
X4179570Y9164472D01*
X4174540Y9153753D01*
X4171137Y9142476D01*
X4169460Y9130792D01*
X4169460Y9118955D01*
X4171137Y9107271D01*
X4174540Y9095994D01*
X4179570Y9085275D01*
X4186072Y9075420D01*
X4193946Y9066631D01*
X4203039Y9059113D01*
X4213148Y9052915D01*
X4223969Y9048343D01*
X4235399Y9045346D01*
G37*
G36*
X5616244Y9051594D02*
G01*
X5616244Y9091015D01*
X5576874Y9091015D01*
X5579567Y9085275D01*
X5586069Y9075420D01*
X5593943Y9066631D01*
X5603036Y9059113D01*
X5613146Y9052915D01*
G37*
G36*
X5683961Y9051594D02*
G01*
X5692241Y9055811D01*
X5701842Y9062720D01*
X5710326Y9070898D01*
X5717540Y9080246D01*
X5723534Y9091015D01*
X5683961Y9091015D01*
G37*
G36*
X5576874Y9158732D02*
G01*
X5616244Y9158732D01*
X5616244Y9198152D01*
X5613146Y9196781D01*
X5603036Y9190634D01*
X5593943Y9183116D01*
X5586069Y9174276D01*
X5579567Y9164472D01*
G37*
G36*
X5683961Y9158732D02*
G01*
X5723534Y9158732D01*
X5717540Y9169501D01*
X5710326Y9178848D01*
X5701842Y9187027D01*
X5692241Y9193885D01*
X5683961Y9198152D01*
G37*
G36*
X4147159Y9244025D02*
G01*
X4158945Y9244482D01*
X4170578Y9246616D01*
X4181754Y9250426D01*
X4192219Y9255810D01*
X4201820Y9262719D01*
X4210354Y9270898D01*
X4217568Y9280245D01*
X4223359Y9290558D01*
X4227576Y9301581D01*
X4230116Y9313113D01*
X4230979Y9324848D01*
X4230116Y9336633D01*
X4227576Y9348165D01*
X4223359Y9359188D01*
X4217568Y9369501D01*
X4210354Y9378848D01*
X4201820Y9387027D01*
X4192219Y9393885D01*
X4181754Y9399320D01*
X4170578Y9403130D01*
X4158945Y9405264D01*
X4147159Y9405670D01*
X4135424Y9404400D01*
X4123994Y9401403D01*
X4113123Y9396780D01*
X4103065Y9390634D01*
X4093972Y9383115D01*
X4086098Y9374276D01*
X4079595Y9364472D01*
X4074566Y9353753D01*
X4071162Y9342475D01*
X4069435Y9330791D01*
X4069435Y9318955D01*
X4071162Y9307271D01*
X4074566Y9295993D01*
X4079595Y9285274D01*
X4086098Y9275419D01*
X4093972Y9266631D01*
X4103065Y9259112D01*
X4113123Y9252915D01*
X4123994Y9248343D01*
X4135424Y9245346D01*
G37*
G36*
X5316270Y9251594D02*
G01*
X5316270Y9291015D01*
X5276900Y9291015D01*
X5279593Y9285274D01*
X5286095Y9275419D01*
X5293969Y9266631D01*
X5303062Y9259112D01*
X5313121Y9252915D01*
G37*
G36*
X4316272Y9251594D02*
G01*
X4316272Y9291015D01*
X4276902Y9291015D01*
X4279595Y9285274D01*
X4286097Y9275419D01*
X4293971Y9266631D01*
X4303064Y9259112D01*
X4313123Y9252915D01*
G37*
G36*
X5383936Y9251594D02*
G01*
X5392216Y9255810D01*
X5401868Y9262719D01*
X5410352Y9270898D01*
X5417566Y9280245D01*
X5423509Y9291015D01*
X5383936Y9291015D01*
G37*
G36*
X4383938Y9251594D02*
G01*
X4392218Y9255810D01*
X4401820Y9262719D01*
X4410354Y9270898D01*
X4417568Y9280245D01*
X4423511Y9291015D01*
X4383938Y9291015D01*
G37*
G36*
X5276900Y9358731D02*
G01*
X5316270Y9358731D01*
X5316270Y9398152D01*
X5313121Y9396780D01*
X5303062Y9390634D01*
X5293969Y9383115D01*
X5286095Y9374276D01*
X5279593Y9364472D01*
G37*
G36*
X4276902Y9358731D02*
G01*
X4316272Y9358731D01*
X4316272Y9398152D01*
X4313123Y9396780D01*
X4303064Y9390634D01*
X4293971Y9383115D01*
X4286097Y9374276D01*
X4279595Y9364472D01*
G37*
G36*
X4383938Y9358731D02*
G01*
X4423511Y9358731D01*
X4417568Y9369501D01*
X4410354Y9378848D01*
X4401820Y9387027D01*
X4392218Y9393885D01*
X4383938Y9398152D01*
G37*
G36*
X5983935Y8601557D02*
G01*
X5992266Y8605824D01*
X6001867Y8612682D01*
X6010351Y8620912D01*
X6017564Y8630259D01*
X6023508Y8641029D01*
X5983935Y8641029D01*
G37*

%LPD*%
D10*
X7999984Y9449968D02*
G01*
X7999984Y9450070D01*
X5875014Y9450070D01*
X5750049Y9325099D01*
X6249926Y5400042D02*
G01*
X6250000Y5399968D01*
X6250000Y3999992D01*
X6999980Y5399986D02*
G01*
X6999986Y5399981D01*
X6999986Y3999992D01*
X7500106Y5399986D02*
G01*
X7499984Y5399864D01*
X7499984Y3999992D01*
X7750050Y5399986D02*
G01*
X7749997Y5399933D01*
X7749997Y3999992D01*
X7999984Y5399986D02*
G01*
X7999984Y5399986D01*
X7999984Y3999992D01*
X8299983Y5399986D02*
G01*
X8299983Y5399986D01*
X8299983Y3999992D01*
X5999988Y5400039D02*
G01*
X5999988Y3999992D01*
X5999988Y3999992D01*
X6499981Y5399986D02*
G01*
X6499986Y5399981D01*
X6499986Y3999992D01*
X4364990Y7549972D02*
G01*
X4364990Y3549992D01*
X2078990Y7549972D02*
G01*
X2075022Y7549972D01*
X1375011Y8249983D01*
X4618990Y7549972D02*
G01*
X4618990Y3999992D01*
D11*
X2078990Y7549895D02*
G01*
X2078990Y7728965D01*
X2350008Y7999984D01*
X4400041Y7999984D01*
X4750054Y8349995D01*
X4750054Y8674862D01*
D12*
X6749986Y8249983D02*
G01*
X6750050Y5249926D01*
D10*
X7500111Y5399989D02*
G01*
X7499984Y8699982D01*
X6400038Y9899904D02*
G01*
X4900422Y9899904D01*
X4549902Y9549892D01*
X4549902Y9325102D01*
X4049984Y9124975D02*
G01*
X3624981Y9124975D01*
X3474999Y8974993D01*
X3474999Y8149970D01*
X8299958Y5400039D02*
G01*
X8299958Y6179565D01*
X8299958Y8899905D01*
X7899908Y9299955D01*
X6150102Y9299955D01*
X6050025Y9199879D01*
X5925058Y9199879D01*
X5849874Y9124950D01*
X6999986Y9649968D02*
G01*
X6999986Y9649978D01*
X5074965Y9649978D01*
X4749972Y9324987D01*
D11*
X4849875Y9124950D02*
G01*
X4899990Y9199981D01*
X4949952Y9325102D01*
D12*
X6249924Y5400039D02*
G01*
X6299961Y5450078D01*
X6299961Y8599931D01*
X6400038Y8700008D01*
X6400038Y9100058D01*
D10*
X5999988Y6824985D02*
G01*
X5999988Y6074986D01*
X5799988Y5874986D01*
X5799988Y3999992D01*
X2586990Y7549972D02*
G01*
X2586990Y3549992D01*
X2840990Y7549972D02*
G01*
X2840990Y3549992D01*
X3094990Y7549972D02*
G01*
X3094990Y3549992D01*
X4872990Y7549972D02*
G01*
X4872990Y3999992D01*
X5126990Y7549972D02*
G01*
X5126990Y3999992D01*
X5399989Y6824985D02*
G01*
X5399989Y3999992D01*
X4872990Y4117367D02*
G01*
X4872990Y1526997D01*
X5099989Y1299997D01*
X5999988Y1299997D01*
X5126990Y4312813D02*
G01*
X5126990Y2022995D01*
X5349989Y1799996D01*
X5748985Y1799996D01*
X2586990Y3607815D02*
G01*
X2586990Y913129D01*
X3299968Y100076D01*
X7100061Y100076D01*
X7781036Y781050D01*
X7781036Y1299971D01*
X3499865Y3770884D02*
G01*
X3499865Y999997D01*
X3800093Y700023D01*
X6800088Y700023D01*
X7019036Y918971D01*
X7019036Y1299971D01*
X4618990Y4175252D02*
G01*
X4618990Y1380997D01*
X4899913Y1100073D01*
X6100063Y1100073D01*
X6257036Y1257045D01*
X6257036Y1299971D01*
X4364990Y3733292D02*
G01*
X4364990Y1335023D01*
X4800091Y899921D01*
X6199886Y899921D01*
X6511036Y1211071D01*
X6511036Y1299971D01*
X3094990Y3808476D02*
G01*
X3094990Y905002D01*
X3499865Y500126D01*
X6899909Y500126D01*
X7273036Y872997D01*
X7273036Y1299971D01*
X2840990Y3673602D02*
G01*
X2840990Y933957D01*
X3499865Y299973D01*
X6999986Y299973D01*
X7527036Y827023D01*
X7527036Y1299971D01*
X5699988Y6824985D02*
G01*
X5699988Y3999992D01*
D12*
X5849975Y8874963D02*
G01*
X5849988Y8049656D01*
D10*
X9017495Y8049656D02*
G01*
X9050985Y1299997D01*
X5800090Y4104639D02*
G01*
X5800090Y2599944D01*
X5999988Y2400045D01*
X8549893Y2400045D01*
X8800084Y2149855D01*
X8800084Y1303020D01*
X8797036Y1299971D01*
X5700013Y4100068D02*
G01*
X5700013Y2400045D01*
X5899911Y2199894D01*
X8349995Y2199894D01*
X8543036Y2006854D01*
X8543036Y1299971D01*
X5400040Y4109212D02*
G01*
X5400040Y2299970D01*
X5700013Y1999995D01*
X8100059Y1999995D01*
X8289036Y1811020D01*
X8289036Y1299971D01*
X3474999Y7799984D02*
G01*
X3474999Y3499998D01*
X3474999Y3499998D01*
X7749997Y9549968D02*
G01*
X7749997Y9549978D01*
X5774778Y9549978D01*
X5549900Y9325099D01*
X6499859Y9750044D02*
G01*
X4949952Y9750044D01*
X4649977Y9450070D01*
X4649977Y9124975D01*
D12*
X6500113Y5399989D02*
G01*
X6499986Y8999981D01*
X6999986Y5400039D02*
G01*
X6999986Y7810245D01*
X6999986Y8999981D01*
D10*
X7750047Y5399989D02*
G01*
X7750047Y8999981D01*
X7999984Y5399989D02*
G01*
X7999984Y8999981D01*
D13*
G01*
X4150106Y8674862D03*
G01*
X4350105Y8674862D03*
G01*
X4550105Y8674862D03*
G01*
X4750130Y8674862D03*
G01*
X4950129Y8674862D03*
G01*
X5350129Y8674862D03*
G01*
X5550128Y8674862D03*
G01*
X5750128Y8674862D03*
G01*
X5950127Y8674862D03*
G01*
X4050106Y8874861D03*
G01*
X4250105Y8874861D03*
G01*
X4450105Y8874861D03*
G01*
X4650104Y8874861D03*
G01*
X4850104Y8874861D03*
G01*
X5050104Y8874861D03*
G01*
X5450103Y8874861D03*
G01*
X5650102Y8874861D03*
G01*
X5850102Y8874861D03*
G01*
X5950102Y9324873D03*
G01*
X5850102Y9124873D03*
G01*
X5750102Y9324873D03*
G01*
X5650102Y9124873D03*
G01*
X5550103Y9324873D03*
G01*
X5350103Y9324873D03*
G01*
X5450103Y9124873D03*
G01*
X5050104Y9124873D03*
G01*
X4950104Y9324873D03*
G01*
X4850104Y9124873D03*
G01*
X4750104Y9324873D03*
G01*
X4650104Y9124873D03*
G01*
X4550105Y9324873D03*
G01*
X4450105Y9124873D03*
G01*
X4350105Y9324873D03*
G01*
X4250105Y9124873D03*
G01*
X4150106Y9324873D03*
G01*
X4050106Y9124873D03*
D14*
G01*
X1824888Y7549972D03*
D15*
G01*
X2078888Y7549972D03*
G01*
X2332888Y7549972D03*
G01*
X2586888Y7549972D03*
G01*
X2840888Y7549972D03*
G01*
X3094888Y7549972D03*
G01*
X3348888Y7549972D03*
G01*
X3602888Y7549972D03*
G01*
X3856888Y7549972D03*
G01*
X4110888Y7549972D03*
G01*
X4364888Y7549972D03*
G01*
X4618888Y7549972D03*
G01*
X4872888Y7549972D03*
G01*
X5126888Y7549972D03*
G01*
X5380888Y7549972D03*
G01*
X5634888Y7549972D03*
G01*
X5888888Y7549972D03*
G01*
X6142888Y7549972D03*
D16*
G01*
X1624990Y8499957D03*
G01*
X1375003Y8249970D03*
G01*
X1375003Y8749969D03*
D17*
G01*
X8299983Y5399989D03*
G01*
X7999984Y5399989D03*
G01*
X7749997Y5399989D03*
G01*
X7499984Y5399989D03*
G01*
X6999986Y5399989D03*
G01*
X6499986Y5399989D03*
G01*
X6250000Y5399989D03*
G01*
X5999988Y5399989D03*
G01*
X7999984Y8999981D03*
G01*
X7999984Y9449968D03*
G01*
X7749997Y8999981D03*
G01*
X7749997Y9549968D03*
G01*
X6999986Y8999981D03*
G01*
X6999986Y9649968D03*
G01*
X6499986Y8999981D03*
G01*
X6499986Y9749967D03*
G01*
X6399987Y9099981D03*
G01*
X6399987Y9899980D03*
G01*
X7499984Y8699982D03*
G01*
X6749999Y8249970D03*
G01*
X5999988Y3999992D03*
G01*
X6250000Y3999992D03*
G01*
X6999986Y3999992D03*
G01*
X7499984Y3999992D03*
G01*
X7749997Y3999992D03*
G01*
X8299983Y3999992D03*
G01*
X7999984Y3999992D03*
G01*
X6499986Y3999992D03*
G01*
X3474999Y8149970D03*
G01*
X3474999Y7799984D03*
G01*
X6750050Y5249926D03*
G01*
X5699988Y6824979D03*
G01*
X5399989Y6824979D03*
G01*
X5999988Y6824979D03*
G01*
X5748985Y1799996D03*
G01*
X6002985Y1299997D03*
G01*
X6256985Y1299997D03*
G01*
X7018985Y1299997D03*
G01*
X7272985Y1299997D03*
G01*
X7526985Y1299997D03*
G01*
X7780985Y1299997D03*
G01*
X8288985Y1299997D03*
G01*
X8542985Y1299997D03*
G01*
X8796985Y1299997D03*
G01*
X9050985Y1299997D03*
G01*
X6510985Y1299997D03*
G01*
X5850000Y8049666D03*
G01*
X9017508Y8049666D03*
G01*
X8034985Y1299997D03*
G01*
X9304985Y1299997D03*
G01*
X6764985Y1299997D03*
G01*
X9299981Y3724986D03*
G01*
X6774992Y3724986D03*
D18*
G01*
X107213Y8892768D03*
G01*
X107213Y8392769D03*
G01*
X107213Y7892770D03*
G01*
X107213Y7392771D03*
G01*
X107213Y6892772D03*
G01*
X107213Y6392773D03*
G01*
X107213Y5892774D03*
G01*
X107213Y5392775D03*
G01*
X107213Y4892776D03*
G01*
X107213Y4392777D03*
G01*
X107213Y3892778D03*
G01*
X107213Y3392779D03*
G01*
X107213Y2892780D03*
G01*
X107213Y2392781D03*
G01*
X107213Y1892782D03*
G01*
X107213Y1392783D03*
G01*
X607212Y8892768D03*
G01*
X607212Y8392769D03*
G01*
X607212Y7892770D03*
G01*
X607212Y7392771D03*
G01*
X607212Y6892772D03*
G01*
X607212Y6392773D03*
G01*
X607212Y5892774D03*
G01*
X607212Y5392775D03*
G01*
X607212Y4892776D03*
G01*
X607212Y4392777D03*
G01*
X607212Y3892778D03*
G01*
X607212Y3392779D03*
G01*
X607212Y2892780D03*
G01*
X607212Y2392781D03*
G01*
X607212Y1892782D03*
G01*
X607212Y1392783D03*
G01*
X1107211Y9892766D03*
G01*
X1107211Y9392767D03*
G01*
X1107211Y8892768D03*
G01*
X1107211Y8392769D03*
G01*
X1107211Y7892770D03*
G01*
X1107211Y7392771D03*
G01*
X1107211Y6892772D03*
G01*
X1107211Y6392773D03*
G01*
X1107211Y5892774D03*
G01*
X1107211Y5392775D03*
G01*
X1107211Y4892776D03*
G01*
X1107211Y3892778D03*
G01*
X1107211Y3392779D03*
G01*
X1107211Y2892780D03*
G01*
X1107211Y2392781D03*
G01*
X1107211Y1892782D03*
G01*
X1107211Y1392783D03*
G01*
X1107211Y892784D03*
G01*
X1107211Y392785D03*
G01*
X1607210Y9892766D03*
G01*
X1607210Y9392767D03*
G01*
X1607210Y8892768D03*
G01*
X1607210Y7892770D03*
G01*
X1607210Y7392771D03*
G01*
X1607210Y6892772D03*
G01*
X1607210Y6392773D03*
G01*
X1607210Y5892774D03*
G01*
X1607210Y5392775D03*
G01*
X1607210Y4892776D03*
G01*
X1607210Y4392777D03*
G01*
X1607210Y3892778D03*
G01*
X1607210Y3392779D03*
G01*
X1607210Y2892780D03*
G01*
X1607210Y2392781D03*
G01*
X1607210Y1892782D03*
G01*
X1607210Y1392783D03*
G01*
X1607210Y892784D03*
G01*
X1607210Y392785D03*
G01*
X2107209Y9892766D03*
G01*
X2107209Y9392767D03*
G01*
X2107209Y8892768D03*
G01*
X2107209Y8392769D03*
G01*
X2107209Y5392775D03*
G01*
X2107209Y4892776D03*
G01*
X2107209Y4392777D03*
G01*
X2107209Y3892778D03*
G01*
X2107209Y3392779D03*
G01*
X2107209Y2892780D03*
G01*
X2107209Y2392781D03*
G01*
X2107209Y1892782D03*
G01*
X2107209Y1392783D03*
G01*
X2107209Y892784D03*
G01*
X2107209Y392785D03*
G01*
X2607208Y9892766D03*
G01*
X2607208Y9392767D03*
G01*
X2607208Y8892768D03*
G01*
X2607208Y8392769D03*
G01*
X2607208Y7892770D03*
G01*
X2607208Y392785D03*
G01*
X3107207Y9892766D03*
G01*
X3107207Y9392767D03*
G01*
X3107207Y8892768D03*
G01*
X3107207Y8392769D03*
G01*
X3107207Y7892770D03*
G01*
X3607206Y9892766D03*
G01*
X3607206Y9392767D03*
G01*
X3607206Y7892770D03*
G01*
X3607206Y6892772D03*
G01*
X3607206Y6392773D03*
G01*
X3607206Y5892774D03*
G01*
X3607206Y5392775D03*
G01*
X3607206Y4892776D03*
G01*
X3607206Y4392777D03*
G01*
X3607206Y3892778D03*
G01*
X3607206Y3392779D03*
G01*
X3607206Y2892780D03*
G01*
X3607206Y2392781D03*
G01*
X3607206Y1892782D03*
G01*
X3607206Y1392783D03*
G01*
X3607206Y392785D03*
G01*
X4107205Y9892766D03*
G01*
X4107205Y8392769D03*
G01*
X4107205Y7892770D03*
G01*
X4107205Y6892772D03*
G01*
X4107205Y6392773D03*
G01*
X4107205Y5892774D03*
G01*
X4107205Y5392775D03*
G01*
X4107205Y4892776D03*
G01*
X4107205Y4392777D03*
G01*
X4107205Y3892778D03*
G01*
X4107205Y3392779D03*
G01*
X4107205Y2892780D03*
G01*
X4107205Y2392781D03*
G01*
X4107205Y1892782D03*
G01*
X4107205Y1392783D03*
G01*
X4107205Y892784D03*
G01*
X4107205Y392785D03*
G01*
X4607204Y9892766D03*
G01*
X4607204Y8392769D03*
G01*
X4607204Y7892770D03*
G01*
X4607204Y892784D03*
G01*
X4607204Y392785D03*
G01*
X5107203Y9392767D03*
G01*
X5107203Y8392769D03*
G01*
X5107203Y7892770D03*
G01*
X5107203Y392785D03*
G01*
X5607202Y8392769D03*
G01*
X5607202Y7892770D03*
G01*
X5607202Y5892774D03*
G01*
X5607202Y5392775D03*
G01*
X5607202Y4892776D03*
G01*
X5607202Y4392777D03*
G01*
X5607202Y3892778D03*
G01*
X5607202Y392785D03*
G01*
X6107201Y8392769D03*
G01*
X6107201Y7892770D03*
G01*
X6107201Y5892774D03*
G01*
X6107201Y4892776D03*
G01*
X6107201Y4392777D03*
G01*
X6107201Y392785D03*
G01*
X6607200Y9892766D03*
G01*
X6607200Y8892768D03*
G01*
X6607200Y8392769D03*
G01*
X6607200Y7892770D03*
G01*
X6607200Y7392771D03*
G01*
X6607200Y6892772D03*
G01*
X6607200Y5892774D03*
G01*
X6607200Y4892776D03*
G01*
X6607200Y4392777D03*
G01*
X6607200Y892784D03*
G01*
X6607200Y392785D03*
G01*
X7107199Y9892766D03*
G01*
X7107199Y8892768D03*
G01*
X7107199Y8392769D03*
G01*
X7107199Y7892770D03*
G01*
X7107199Y7392771D03*
G01*
X7107199Y6892772D03*
G01*
X7107199Y5892774D03*
G01*
X7107199Y4892776D03*
G01*
X7107199Y4392777D03*
G01*
X7107199Y892784D03*
G01*
X7607198Y9892766D03*
G01*
X7607198Y8892768D03*
G01*
X7607198Y8392769D03*
G01*
X7607198Y7892770D03*
G01*
X7607198Y7392771D03*
G01*
X7607198Y6892772D03*
G01*
X7607198Y5892774D03*
G01*
X7607198Y4892776D03*
G01*
X7607198Y4392777D03*
G01*
X7607198Y892784D03*
G01*
X7607198Y392785D03*
G01*
X8107197Y9892766D03*
G01*
X8107197Y9392767D03*
G01*
X8107197Y8892768D03*
G01*
X8107197Y8392769D03*
G01*
X8107197Y7892770D03*
G01*
X8107197Y7392771D03*
G01*
X8107197Y6892772D03*
G01*
X8107197Y5892774D03*
G01*
X8107197Y4892776D03*
G01*
X8107197Y4392777D03*
G01*
X8107197Y892784D03*
G01*
X8107197Y392785D03*
G01*
X8607196Y9892766D03*
G01*
X8607196Y9392767D03*
G01*
X8607196Y8892768D03*
G01*
X8607196Y8392769D03*
G01*
X8607196Y7892770D03*
G01*
X8607196Y7392771D03*
G01*
X8607196Y6892772D03*
G01*
X8607196Y5892774D03*
G01*
X8607196Y5392775D03*
G01*
X8607196Y4892776D03*
G01*
X8607196Y892784D03*
G01*
X8607196Y392785D03*
G01*
X9107195Y8892768D03*
G01*
X9107195Y8392769D03*
G01*
X9107195Y7892770D03*
G01*
X9107195Y7392771D03*
G01*
X9107195Y6892772D03*
G01*
X9107195Y5892774D03*
G01*
X9607194Y8892768D03*
G01*
X9607194Y8392769D03*
G01*
X9607194Y7892770D03*
G01*
X9607194Y7392771D03*
G01*
X9607194Y6892772D03*
G01*
X9607194Y6392773D03*
M02*
