G04 Layer: TopSilkscreenLayer*
G04 EasyEDA v6.5.20, 2023-09-17 03:17:05*
G04 a67cddfb3fce44daa9051d46cbbcc19f,10*
G04 Gerber Generator version 0.2*
G04 Scale: 100 percent, Rotated: No, Reflected: No *
G04 Dimensions in millimeters *
G04 leading zeros omitted , absolute positions ,4 integer and 5 decimal *
%FSLAX45Y45*%
%MOMM*%

%ADD10C,0.1524*%
%ADD11C,0.2032*%
%ADD12C,0.2540*%

%LPD*%
D10*
X5052822Y9565131D02*
G01*
X5052822Y9481820D01*
X5047741Y9466326D01*
X5042408Y9460992D01*
X5031993Y9455912D01*
X5021579Y9455912D01*
X5011165Y9460992D01*
X5006086Y9466326D01*
X5001006Y9481820D01*
X5001006Y9492234D01*
X5087111Y9544304D02*
G01*
X5097525Y9549384D01*
X5113020Y9565131D01*
X5113020Y9455912D01*
D11*
X3800106Y8999865D02*
G01*
X3800106Y8805809D01*
X3800106Y8999865D02*
G01*
X3883418Y8999865D01*
X3911104Y8990467D01*
X3920248Y8981323D01*
X3929392Y8962781D01*
X3929392Y8944239D01*
X3920248Y8925951D01*
X3911104Y8916553D01*
X3883418Y8907409D01*
X3800106Y8907409D02*
G01*
X3883418Y8907409D01*
X3911104Y8898265D01*
X3920248Y8888867D01*
X3929392Y8870325D01*
X3929392Y8842639D01*
X3920248Y8824351D01*
X3911104Y8814953D01*
X3883418Y8805809D01*
X3800106Y8805809D01*
X3873919Y9254744D02*
G01*
X3800005Y9060687D01*
X3873919Y9254744D02*
G01*
X3947833Y9060687D01*
X3827691Y9125458D02*
G01*
X3920147Y9125458D01*
D10*
X4999481Y7944104D02*
G01*
X5072379Y7835137D01*
X5072379Y7944104D02*
G01*
X4999481Y7835137D01*
X5111750Y7918195D02*
G01*
X5111750Y7923276D01*
X5117084Y7933689D01*
X5122163Y7939023D01*
X5132577Y7944104D01*
X5153406Y7944104D01*
X5163820Y7939023D01*
X5168900Y7933689D01*
X5174234Y7923276D01*
X5174234Y7912862D01*
X5168900Y7902447D01*
X5158486Y7886954D01*
X5106670Y7835137D01*
X5179313Y7835137D01*
X1274998Y9165297D02*
G01*
X1274998Y9056331D01*
X1274998Y9165297D02*
G01*
X1321734Y9165297D01*
X1337228Y9160217D01*
X1342562Y9154883D01*
X1347642Y9144469D01*
X1347642Y9134055D01*
X1342562Y9123641D01*
X1337228Y9118561D01*
X1321734Y9113481D01*
X1274998Y9113481D01*
X1311320Y9113481D02*
G01*
X1347642Y9056331D01*
X1381932Y9165297D02*
G01*
X1381932Y9056331D01*
X1381932Y9165297D02*
G01*
X1428668Y9165297D01*
X1444416Y9160217D01*
X1449496Y9154883D01*
X1454830Y9144469D01*
X1454830Y9128975D01*
X1449496Y9118561D01*
X1444416Y9113481D01*
X1428668Y9108147D01*
X1381932Y9108147D01*
X1489120Y9144469D02*
G01*
X1499534Y9149803D01*
X1515028Y9165297D01*
X1515028Y9056331D01*
D12*
X6320790Y9368281D02*
G01*
X6320790Y8488171D01*
X3700106Y9369864D02*
G01*
X3700106Y8489868D01*
X6117843Y9368281D02*
G01*
X6317488Y9368281D01*
X3700018Y9369805D02*
G01*
X3705606Y9369805D01*
X4050029Y9369805D01*
X3700104Y8489868D02*
G01*
X6300116Y8489868D01*
X1024889Y7799984D02*
G01*
X9024874Y7799984D01*
X9024874Y4199991D01*
X1024889Y4199991D01*
X1024889Y7799984D01*
X1459890Y7284973D02*
G01*
X8589873Y7284973D01*
X8589873Y4654981D01*
X1459890Y4654981D01*
X1459890Y7284973D01*
X1799894Y6819976D02*
G01*
X8249894Y6819976D01*
X8249894Y5179974D01*
X1799894Y5179974D01*
X1799894Y6819976D01*
X1859897Y8982583D02*
G01*
X920097Y8982583D01*
X920097Y8030083D01*
X1872597Y8030083D01*
X1872597Y8068183D01*
X1821797Y8068183D01*
X1821797Y8919083D01*
X1859897Y8919083D01*
X1859897Y8982583D01*
X1340004Y8364636D02*
G01*
X1340004Y8635682D01*
G75*
G01*
X1475387Y8500047D02*
G03*
X1475387Y8497507I-135343J-1271D01*
M02*
