M48
METRIC,LZ,000.000
;FILE_FORMAT=3:3
;TYPE=PLATED
;Layer: PTH_Through_Via
;EasyEDA v6.5.20, 2023-09-17 03:17:05
;a67cddfb3fce44daa9051d46cbbcc19f,10
;Gerber Generator version 0.2
;Holesize 1 = 0.305 mm
T01C0.305
;Holesize 2 = 0.306 mm
T02C0.306
%
G05
G90
T01
X083000Y054000
X080000Y054000
X077500Y054000
X075000Y054000
X070000Y054000
X065000Y054000
X062500Y054000
X060000Y054000
X080000Y090000
X080000Y094500
X077500Y090000
X077500Y095500
X070000Y090000
X070000Y096500
X065000Y090000
X065000Y097500
X064000Y091000
X064000Y099000
X075000Y087000
X067500Y082500
X060000Y040000
X062500Y040000
X070000Y040000
X075000Y040000
X077500Y040000
X083000Y040000
X080000Y040000
X065000Y040000
X034750Y081500
X034750Y078000
X067501Y052499
X057000Y068250
X054000Y068250
X060000Y068250
X057490Y018000
X060030Y013000
X062570Y013000
X070190Y013000
X072730Y013000
X075270Y013000
X077810Y013000
X082890Y013000
X085430Y013000
X087970Y013000
X090510Y013000
X065110Y013000
X058500Y080497
X090175Y080497
X080350Y013000
X093050Y013000
X067650Y013000
X093000Y037250
X067750Y037250
T02
X001072Y088928
X001072Y083928
X001072Y078928
X001072Y073928
X001072Y068928
X001072Y063928
X001072Y058928
X001072Y053928
X001072Y048928
X001072Y043928
X001072Y038928
X001072Y033928
X001072Y028928
X001072Y023928
X001072Y018928
X001072Y013928
X006072Y088928
X006072Y083928
X006072Y078928
X006072Y073928
X006072Y068928
X006072Y063928
X006072Y058928
X006072Y053928
X006072Y048928
X006072Y043928
X006072Y038928
X006072Y033928
X006072Y028928
X006072Y023928
X006072Y018928
X006072Y013928
X011072Y098928
X011072Y093928
X011072Y088928
X011072Y083928
X011072Y078928
X011072Y073928
X011072Y068928
X011072Y063928
X011072Y058928
X011072Y053928
X011072Y048928
X011072Y038928
X011072Y033928
X011072Y028928
X011072Y023928
X011072Y018928
X011072Y013928
X011072Y008928
X011072Y003928
X016072Y098928
X016072Y093928
X016072Y088928
X016072Y078928
X016072Y073928
X016072Y068928
X016072Y063928
X016072Y058928
X016072Y053928
X016072Y048928
X016072Y043928
X016072Y038928
X016072Y033928
X016072Y028928
X016072Y023928
X016072Y018928
X016072Y013928
X016072Y008928
X016072Y003928
X021072Y098928
X021072Y093928
X021072Y088928
X021072Y083928
X021072Y053928
X021072Y048928
X021072Y043928
X021072Y038928
X021072Y033928
X021072Y028928
X021072Y023928
X021072Y018928
X021072Y013928
X021072Y008928
X021072Y003928
X026072Y098928
X026072Y093928
X026072Y088928
X026072Y083928
X026072Y078928
X026072Y003928
X031072Y098928
X031072Y093928
X031072Y088928
X031072Y083928
X031072Y078928
X036072Y098928
X036072Y093928
X036072Y078928
X036072Y068928
X036072Y063928
X036072Y058928
X036072Y053928
X036072Y048928
X036072Y043928
X036072Y038928
X036072Y033928
X036072Y028928
X036072Y023928
X036072Y018928
X036072Y013928
X036072Y003928
X041072Y098928
X041072Y083928
X041072Y078928
X041072Y068928
X041072Y063928
X041072Y058928
X041072Y053928
X041072Y048928
X041072Y043928
X041072Y038928
X041072Y033928
X041072Y028928
X041072Y023928
X041072Y018928
X041072Y013928
X041072Y008928
X041072Y003928
X046072Y098928
X046072Y083928
X046072Y078928
X046072Y008928
X046072Y003928
X051072Y093928
X051072Y083928
X051072Y078928
X051072Y003928
X056072Y083928
X056072Y078928
X056072Y058928
X056072Y053928
X056072Y048928
X056072Y043928
X056072Y038928
X056072Y003928
X061072Y083928
X061072Y078928
X061072Y058928
X061072Y048928
X061072Y043928
X061072Y003928
X066072Y098928
X066072Y088928
X066072Y083928
X066072Y078928
X066072Y073928
X066072Y068928
X066072Y058928
X066072Y048928
X066072Y043928
X066072Y008928
X066072Y003928
X071072Y098928
X071072Y088928
X071072Y083928
X071072Y078928
X071072Y073928
X071072Y068928
X071072Y058928
X071072Y048928
X071072Y043928
X071072Y008928
X076072Y098928
X076072Y088928
X076072Y083928
X076072Y078928
X076072Y073928
X076072Y068928
X076072Y058928
X076072Y048928
X076072Y043928
X076072Y008928
X076072Y003928
X081072Y098928
X081072Y093928
X081072Y088928
X081072Y083928
X081072Y078928
X081072Y073928
X081072Y068928
X081072Y058928
X081072Y048928
X081072Y043928
X081072Y008928
X081072Y003928
X086072Y098928
X086072Y093928
X086072Y088928
X086072Y083928
X086072Y078928
X086072Y073928
X086072Y068928
X086072Y058928
X086072Y053928
X086072Y048928
X086072Y008928
X086072Y003928
X091072Y088928
X091072Y083928
X091072Y078928
X091072Y073928
X091072Y068928
X091072Y058928
X096072Y088928
X096072Y083928
X096072Y078928
X096072Y073928
X096072Y068928
X096072Y063928
M30
